<svg xmlns="http://www.w3.org/2000/svg" width="94" height="114" viewBox="0 0 94 114">
    <g fill="#FFF" fill-rule="nonzero">
        <path d="M93.682 40.092c0-11.016-4.255-21.135-12.004-28.5C74.057 4.355 63.704.384 52.59.384 39.251.384 28.2 4.42 20.58 12.104 13.083 19.79 9.018 30.87 9.018 44.191L.635 68.528c-.635 1.537-.444 3.33.508 4.74.953 1.408 2.477 2.305 4.192 2.305h7.495l2.667 17.42c.572 3.779 3.748 6.469 7.558 6.469h11.623l4.383 13.129c.19.64.762 1.025 1.397 1.025h32.138c.762 0 1.46-.577 1.524-1.345L75.2 96.9c.445-6.597 2.985-12.937 7.24-18.253 6.415-8.005 9.146-18.06 10.29-25.105 1.206-7.366 1.016-12.938.952-13.45zm-13.591 36.57c-4.637 5.828-7.368 12.68-7.876 19.918l-.953 13.962h-29.66l-4.383-13.13c-.19-.64-.762-1.024-1.397-1.024H23.119c-2.287 0-4.255-1.601-4.573-3.907l-2.858-18.765c-.127-.769-.762-1.217-1.461-1.217H5.272c-.699 0-1.27-.384-1.652-.96a2.066 2.066 0 0 1-.19-1.922v-.064l8.447-24.593c.064-.193.064-.32.064-.513 0-25.682 15.18-40.989 40.585-40.989 21.721 0 38.108 15.755 38.108 36.634v.064c.063.256.952 22.096-10.543 36.506z"/>
        <path d="M83.076 38.427c0-2.306-.89-4.483-2.477-6.084a8.893 8.893 0 0 0 1.08-4.227c0-4.547-3.494-8.326-8.003-8.71a8.553 8.553 0 0 0-8.448-6.981 8.427 8.427 0 0 0-3.302.64 8.342 8.342 0 0 0-6.796-3.458 8.643 8.643 0 0 0-5.97 2.433 8.671 8.671 0 0 0-5.018-1.6c-3.62 0-6.86 2.305-8.066 5.635a8.838 8.838 0 0 0-3.176-.384c-4.255.32-7.685 3.843-7.94 8.134-.063.704 0 1.409.128 2.113-3.684 1.281-6.161 4.996-5.78 9.095.381 4.098 3.62 7.365 7.622 7.813.508.064 1.016.064 1.524.064.254 4.291 3.81 7.621 9.21 8.646h.127l8.13.96c.57.065 1.143.129 1.714.129 2.223 0 3.81-.576 5.018-1.345.889 2.37 2.921 4.675 7.875 4.931h.254l4.446-.576c.826.833 2.668 3.33 2.795 8.646.063 1.537 1.016 2.946 2.413 3.523.445.192.953.256 1.461.256 1.715 0 3.24-1.153 3.748-2.882l2.032-7.494a6.399 6.399 0 0 1 1.27-2.433 8.719 8.719 0 0 0 1.97-5.508 8.514 8.514 0 0 0-.953-3.97v-.065s-.064-.064-.064-.128c-.064-.064-.064-.192-.127-.256 2.032-1.665 3.303-4.227 3.303-6.917zm-6.479 14.922c-.889 1.025-1.46 2.242-1.842 3.523l-2.032 7.493a.856.856 0 0 1-.826.64c-.127 0-.19 0-.317-.063a.832.832 0 0 1-.508-.769c-.254-8.454-4.32-11.272-4.51-11.4a1.389 1.389 0 0 0-.826-.256h-.19l-5.018.64c-3.81-.256-4.954-1.793-5.398-4.355.317-.896.825-2.818.063-4.931-.762-2.114-2.54-3.779-5.335-4.996-.762-.32-1.651.064-1.969.833a1.537 1.537 0 0 0 .826 1.985c1.969.833 3.176 1.922 3.62 3.203.445 1.216.127 2.433-.063 2.882-.953.96-2.223 1.793-4.637 1.793-.444 0-.89 0-1.397-.064l-8.13-.96c-4.065-.77-6.732-3.203-6.732-6.213 0-.192 0-.449.063-.64.762-.897 3.493-3.843 6.796-2.37.064 0 .127.064.127.064.572 1.088 1.524 2.113 2.795 3.01.254.192.571.32.889.32.445 0 .953-.192 1.207-.64.508-.705.317-1.602-.318-2.114-1.397-1.025-2.16-2.05-2.286-3.074-.127-1.153.508-1.986.571-2.05.508-.64.445-1.6-.127-2.113-.635-.576-1.588-.512-2.16.128-.126.128-1.142 1.345-1.333 3.138-3.684-.768-6.923 1.794-8.447 3.715-.635.128-1.27.192-1.906.128-2.604-.256-4.7-2.434-4.954-5.06-.254-2.882 1.525-5.38 4.256-6.084.952.705 2.858 2.05 5.208 2.498h.317c.699 0 1.334-.512 1.461-1.217.19-.833-.38-1.601-1.207-1.793-1.905-.384-3.493-1.537-4.128-2.05-.254-.704-.318-1.409-.254-2.113.19-2.818 2.413-5.06 5.145-5.252a5.512 5.512 0 0 1 2.286.32c-.318 2.946.445 7.302 5.018 8.903.127.064.317.064.508.064.635 0 1.206-.385 1.46-1.025.255-.769-.19-1.665-.952-1.921-1.652-.577-2.604-1.73-2.922-3.587-.254-1.537.064-2.946.064-2.946v-.128c.38-2.754 2.794-4.867 5.589-4.867 1.27 0 2.413.384 3.366 1.152l-1.842 5.124c-.254.768.127 1.665.89 1.921.19.064.317.064.508.064.635 0 1.206-.384 1.397-1.024l2.096-5.828c1.08-1.41 2.73-2.242 4.446-2.242 1.715 0 3.239.768 4.319 1.985-.763.577-1.525 1.217-2.16 2.114-1.969 2.562-2.667 5.892-2.096 9.863a8.204 8.204 0 0 0-3.557 1.921c-.635.576-.635 1.537-.063 2.178.318.32.699.512 1.08.512.38 0 .762-.128 1.016-.384 0 0 .826-.769 1.969-1.09 1.397-.447 2.667-.127 3.81 1.026.572.576 1.525.576 2.16 0 .572-.577.572-1.537 0-2.178-1.08-1.089-2.223-1.73-3.366-1.985-.508-3.33-.064-6.02 1.46-8.006 1.97-2.626 5.209-3.138 5.717-3.202 3.049.064 5.462 2.434 5.526 5.508v.128c.063.448.317 4.675-4.002 5.956-.825.256-1.27 1.089-1.016 1.857.19.64.826 1.09 1.46 1.09.128 0 .255 0 .445-.065 4.383-1.28 5.844-4.803 6.161-7.43 2.731.385 4.827 2.755 4.827 5.637 0 1.153-.317 2.241-.952 3.138l-4.573 1.089a1.545 1.545 0 0 0-1.144 1.857c.19.705.762 1.153 1.461 1.153.127 0 .254 0 .318-.064l4.382-1.025c1.143 1.089 1.842 2.562 1.842 4.163 0 1.857-.826 3.522-2.286 4.547a12.467 12.467 0 0 0-1.334-1.153c-2.096-1.6-5.716-3.202-10.798-2.305-1.27-2.178-3.747-3.33-4.064-3.459-.763-.32-1.652 0-1.97.769-.317.768 0 1.665.763 1.985.698.32 2.604 1.473 2.921 2.882.191.897-.254 1.922-1.333 3.01-.572.64-.572 1.602.063 2.178.318.256.635.384 1.016.384a1.65 1.65 0 0 0 1.08-.448c1.334-1.473 2.096-2.882 2.16-4.355 7.367-1.217 10.543 3.97 10.924 4.611.445.833.635 1.73.635 2.626.064 1.28-.381 2.562-1.207 3.586z"/>
    </g>
</svg>
