<svg xmlns="http://www.w3.org/2000/svg" width="64" height="61" viewBox="0 0 64 61">
    <g fill="none" fill-rule="evenodd">
        <path d="M-3.9-9.76h72v72h-72z"/>
        <path fill="#FFC670" fill-rule="nonzero" d="M60.096 16.136A1.584 1.584 0 0 0 58.5 14.54H5.7a1.584 1.584 0 0 0-1.596 1.596v7.704a6.348 6.348 0 0 0 .792 3.036v19.656A3.204 3.204 0 0 0 8.1 49.736h48a3.204 3.204 0 0 0 3.204-3.204V26.864a6.348 6.348 0 0 0 .792-3.024v-7.704z"/>
        <path fill="#FFC670" fill-rule="nonzero" d="M38.496 1.736H25.704C19.958 1.736 15.3 6.394 15.3 12.14v2.4h4.8v-2.4a5.604 5.604 0 0 1 5.604-5.604h12.792A5.604 5.604 0 0 1 44.1 12.14v2.4h4.8v-2.4c0-5.746-4.658-10.404-10.404-10.404z"/>
        <path fill="#FFA742" fill-rule="nonzero" d="M56.1 45.14h-48a3.216 3.216 0 0 1-3.204-3.204v4.596A3.204 3.204 0 0 0 8.1 49.736h48a3.204 3.204 0 0 0 3.204-3.204v-4.596A3.216 3.216 0 0 1 56.1 45.14zM53.7 25.628H10.5a6.396 6.396 0 0 1-6.396-6.408v8.88a6.396 6.396 0 0 0 6.396 6.396h43.2a6.396 6.396 0 0 0 6.396-6.396v-8.88a6.396 6.396 0 0 1-6.396 6.408zM20.1 12.14a5.556 5.556 0 0 1 .336-1.86c-1.68-.144-3.3-.324-4.8-.528a10.404 10.404 0 0 0-.288 2.4v2.4h4.8L20.1 12.14zM44.1 14.54h4.8v-2.4c-.002-.808-.1-1.614-.288-2.4-1.548.204-3.168.384-4.8.528.202.603.3 1.236.288 1.872v2.4z"/>
        <path fill="#FCFEFF" fill-rule="nonzero" d="M36.576 25.904l-9.312 5.376-.564 8.328 10.392-6zM37.608 41.312l-11.46 6.612-.348 5.124 1.992 1.92 10.332-5.964z"/>
        <path fill="#F6716F" fill-rule="nonzero" d="M27.792 54.968l4.308 4.188 6.3-6.108-.276-4.044zM37.092 33.608l-10.392 6-.552 8.316 11.46-6.612zM37.272 12.26H26.928a2.4 2.4 0 0 0-2.4 2.796l.912 5.46a1.596 1.596 0 0 0 1.584 1.344h.84l-.564 9.42 9.312-5.376-.276-4.044h.84a1.596 1.596 0 0 0 1.584-1.344l.912-5.46a2.4 2.4 0 0 0-2.4-2.796z"/>
        <path fill="#F0504D" fill-rule="nonzero" d="M32.1 18.296a63.708 63.708 0 0 1-7.056-.384l.432 2.604a1.596 1.596 0 0 0 1.584 1.344h10.08a1.596 1.596 0 0 0 1.584-1.344l.432-2.604a63.708 63.708 0 0 1-7.056.384z"/>
        <path fill="#FFC670" fill-rule="nonzero" d="M18.504 28.136h-4.8a.804.804 0 0 0-.804.804v3.996a3.204 3.204 0 1 0 6.396 0V28.94a.804.804 0 0 0-.792-.804zM50.496 28.136h-4.8a.804.804 0 0 0-.792.804v3.996a3.204 3.204 0 1 0 6.396 0V28.94a.804.804 0 0 0-.804-.804z"/>
        <path fill="#3D3D63" fill-rule="nonzero" d="M62.496 48.536H60a4.308 4.308 0 0 0 .504-2.004V27.2a7.584 7.584 0 0 0 .792-3.36v-7.704A2.796 2.796 0 0 0 58.5 13.34h-8.4v-1.2C50.093 5.734 44.902.543 38.496.536H25.704C19.298.543 14.107 5.734 14.1 12.14v1.2H5.7a2.796 2.796 0 0 0-2.796 2.796v7.704c0 1.17.271 2.324.792 3.372v19.32c.003.699.176 1.387.504 2.004H1.704a1.2 1.2 0 1 0 0 2.4h23.04l-.144 2.04a1.2 1.2 0 0 0 .372.948l6.288 6.096a1.2 1.2 0 0 0 1.68 0l6.288-6.096a1.2 1.2 0 0 0 .372-.948l-.144-2.04h23.04a1.2 1.2 0 1 0 0-2.4zM16.5 12.14a9.216 9.216 0 0 1 9.204-9.204h12.792A9.216 9.216 0 0 1 47.7 12.14v1.2h-2.4v-1.2a6.804 6.804 0 0 0-6.804-6.804H25.704A6.804 6.804 0 0 0 18.9 12.14v1.2h-2.4v-1.2zm26.4 0v1.2h-2.304a3.42 3.42 0 0 0-.588-1.008 3.6 3.6 0 0 0-2.736-1.272H26.928a3.6 3.6 0 0 0-2.736 1.272c-.252.3-.451.64-.588 1.008H21.3v-1.2a4.404 4.404 0 0 1 4.404-4.404h12.792A4.404 4.404 0 0 1 42.9 12.14zm-18 36.396H8.1a2.004 2.004 0 0 1-2.004-2.004V30.008a7.56 7.56 0 0 0 4.404 1.416h1.2v1.512a4.404 4.404 0 1 0 8.796 0v-1.512H26.1l-1.2 17.112zm-10.8-15.6v-3.6h3.996v3.6a2.004 2.004 0 1 1-3.996 0zm12.12-3.912h-5.724v-.084a1.992 1.992 0 0 0-1.992-2.004h-4.8A2.004 2.004 0 0 0 11.7 28.94v.084h-1.2a5.196 5.196 0 0 1-5.196-5.184v-7.704c0-.219.177-.396.396-.396h17.76l.84 4.98a2.772 2.772 0 0 0 2.316 2.304l-.396 6zm.816 23.616l.264-3.996 9.24-5.328.36 5.028-8.904 5.148-.96-.852zm8.472-24.72l.336 5.028-7.788 4.5.36-5.448 7.092-4.08zm-6.888 1.2l.408-6h6.144l.156 2.184-6.708 3.816zm7.404 6.492l.336 5.04-8.868 5.112.372-5.436 8.16-4.716zM32.1 57.44l-2.34-2.256 7.296-4.212.108 1.56L32.1 57.44zm5.04-36.828H27.06a.396.396 0 0 1-.396-.336l-.912-5.472a1.2 1.2 0 0 1 .264-.972 1.2 1.2 0 0 1 .912-.42h10.344c.35 0 .684.153.912.42a1.2 1.2 0 0 1 .264.972l-.912 5.472a.396.396 0 0 1-.396.384v-.048zm.444 2.4A2.772 2.772 0 0 0 39.9 20.72l.84-4.98H58.5c.219 0 .396.177.396.396v7.704a5.196 5.196 0 0 1-5.196 5.184h-1.2v-.084a2.004 2.004 0 0 0-2.004-2.004h-4.8a1.992 1.992 0 0 0-1.992 2.004v.084H37.98l-.396-6.012zM50.1 29.336v3.6a2.004 2.004 0 1 1-3.996 0v-3.6H50.1zm-10.8 19.2l-1.2-17.112h5.556v1.512a4.404 4.404 0 1 0 8.796 0v-1.512h1.2a7.56 7.56 0 0 0 4.404-1.416v16.524a2.004 2.004 0 0 1-1.956 2.004H39.3z"/>
    </g>
</svg>
