<svg xmlns="http://www.w3.org/2000/svg" width="101" height="80" viewBox="0 0 101 80">
    <g fill="none">
        <g fill="#181357">
            <path d="M82.111 19.802c.09.703-.042.812-.601.601-.289-.114-.518-.367-.915-.223-.24.09-.276-.06-.036-.529-.078-.033-.167-.033-.246.002-.078.034-.14.098-.169.179-.192.427-.42.445-.643.054-.115-.199-.109-.163-.24 0-.356.42-.687-.072-1.041-.078-.037 0-.103-.205-.103-.313.002-.074.033-.144.088-.194.055-.05.127-.076.201-.07.656.107 1.27-.157 1.907-.151.222 0 .403-.054.457.24 0 .103.168.265.24.12.301-.6.728-.156 1.083-.138.578.13 1.17.19 1.763.18.499-.084.643.23.601.668.277 0 .223-.15.205-.288-.018-.139 0-.343.294-.295 1.252.18 2.52.295 3.772.481 1.062.16 2.12.361 3.17.602.373.084 1.004-.307 1.064.48.15-.174.56.217.572-.27 0-.277.3-.186.385-.162.506.118 1.027-.132 1.25-.602.602-1.203 1.74-2.147 2.16-3.494.055-.183.175-.34.337-.44.337-.162.752-.228.433-.751 0 0 .036-.085.06-.127.163-.33.602 0 .746-.295.145-.294-.601-.27-.174-.637.216-.187.186-.602.601-.602-.11-.307-.09-.645.054-.938.307-.535-.282-.379-.427-.553-.066-.079-.174-.139-.234-.241-.385-.601-.566-.638-.818 0-.602 1.588-1.763 2.881-2.406 4.427-.27.638-.77 1.1-1.077 1.72-.307.62-1.059.277-1.564.193-1.186-.113-2.362-.314-3.519-.602-1.16-.379-2.406-.228-3.579-.445-.87-.107-1.735-.268-2.586-.48-.818-.266-1.666.041-2.442-.332-.528-.171-1.046-.372-1.552-.601-.12-.078-.277-.157-.223-.325.062-.167.248-.253.415-.193.843.271 1.727.169 2.605.446.782.24 1.768.132 2.659.252l2.436.337c.126 0 .276 0 .246.18-.108.488.205.307.331.175.283-.3.481-.313.854-.09.18.108.53.457.927 0 .27-.289.842.162 1.028.276.752.47 1.546-.144 2.322.355.668.421 1.023-.469 1.293-.974.15-.283.247-.542.554-.668.216-.096.397-.307.354-.5-.126-.6.434-.92.602-1.413.159-.522.659-.864 1.203-.824.186 0 .289-.06.186-.252-.102-.193-.162-.271-.306-.054-.054.09-.12.15-.229.09-.108-.06-.096-.15-.054-.253.283-.601.56-1.203.842-1.804.052-.08.112-.152.18-.217.283.602 1.107-.295 1.354.481.066.199.33.163.505.235.5.192 1.42 1.287 1.263 1.726-.111.6-.289 1.184-.529 1.745-1.143 1.864-2.153 3.795-3.35 5.63-.506.826-1.298 1.436-2.226 1.714-.204.066-.186-.048-.235-.132-.126-.229-.342-.271-.439-.055-.174.38-.457.277-.65.145-.703-.457-1.623.06-2.297-.548-.114-.108-.451.049-.686.055-.938 0-1.804-.476-2.725-.482-.342.03-.682-.088-.932-.324-.096-.103-.307-.26-.469.168-.12.313-.752 0-1.143-.054-.59-.15-1.203-.178-1.804-.084-.71.096-.488-.686-.933-.86zM66.388 62.617c-.98-.265-1.925-.704-2.96-.428-.246.067-.366-.162-.39-.409-.097-1.13-.175-2.261-.295-3.392-.111-1.789-.334-3.569-.668-5.33-.065-.49-.165-.974-.3-1.449-.103-.182-.111-.403-.023-.592.088-.19.262-.325.468-.364.276-.055.565.264.637.559.223.866.403 1.75.602 2.629.393 2.164.64 4.352.74 6.55 0 .391.24.451.535.53 1.245.324 2.484.667 3.723.998.372.113.67.394.806.758.205.541-.283.68-.698.824-1.142.403-2.363.204-3.518.457-1.329.28-2.714-.024-3.802-.836-.511-.343-.601-.902-.866-1.336-.437-.771-.813-1.576-1.125-2.406-.818-1.774-1.63-3.554-2.484-5.317-.247-.517-.758-.86-.987-1.431-.15-.373 0-.434.223-.602.223-.168.319-.343.602-.072.776.798 1.388 1.74 1.804 2.773.986 1.99 1.84 4.048 2.773 6.063.246.507.525.998.836 1.468.345.44.895.668 1.45.601.976-.029 1.95-.11 2.917-.246zM30.424 62.719c1.102.204 2.225.275 3.344.21.53-.08.984-.424 1.203-.914 1.372-2.286 2.136-4.854 3.417-7.17.523-.938.926-1.96 1.756-2.707.247-.222.397-.258.602 0 .204.259.439.223.24.644-.39.854-1.082 1.504-1.45 2.406-.775 1.847-1.725 3.609-2.495 5.468-.273.846-.68 1.644-1.203 2.364-.702.755-1.682 1.19-2.713 1.203-1.281.048-2.533-.361-3.82-.277-.325 0-.535-.283-.872-.277-.42.068-.824-.191-.938-.601-.078-.421.355-.65.601-.873.28-.212.613-.345.963-.384 1.052-.079 1.99-.554 3.007-.734.367-.06.475-.235.523-.602.199-1.528.12-3.086.41-4.601.252-1.324.487-2.647.733-3.964.028-.211.095-.416.199-.602.156-.21.319-.601.601-.469.189.047.348.173.436.346.087.174.095.377.021.556-.224.788-.385 1.593-.48 2.406-.301 1.66-.392 3.339-.53 5.023-.072.914-.247 1.804-.27 2.749 0 .27-.121.53-.41.457-.974-.325-1.913.126-2.875.343zM3.495 15.982c-.451.042-.602-.21-.602-.602.096-1.287-.24-2.556-.108-3.867-.062-.55-.165-1.095-.307-1.63-.168-1.468-.3-2.942-.445-4.415 0-.115-.036-.29 0-.343.427-.38.41-.602-.144-.854-.193-.079-.24-.325-.175-.566.066-.24-.138-.3-.27-.45-.409-.398-.7-.9-.842-1.45-.043-.265.354-.337.517-.38C2.46 1.066 3.753.47 5.173.446c.282.04.557.116.818.229.397.126.186.499.235.782.18 1.124-.283 2.213-.199 3.29.078.956 0 1.889 0 2.827 0 .09.066.204 0 .277-.421.836.096 1.684-.054 2.544-.112.894-.098 1.799.042 2.689.096.872 0 1.804.662 2.562.523.602 1.287.752 1.894 1.203.608.451 1.324.722 1.943 1.203.385.283 1.017.193 1.257.782.085.205.5.391.109.602-.298.19-.694.107-.89-.187-.103-.168-.043-.204-.283-.162-.493.084-.842-.109-.602-.95-.343.396-.56.529-.848.324-.487-.36-1.269-.319-1.437-1.155-.043-.222-.41-.343-.77-.355-.704 0-1.48-.312-1.63-1.004-.21-.518-.348-1.063-.41-1.618.037-.475-.535-1.017.127-1.444-.015-.06-.043-.116-.084-.162-.602-.493-.15-.993.138-1.275.289-.283.223-.355 0-.452-.223-.096-.325-.228-.289-.354.301-1.047-.102-2.124.157-3.2.072-.442.11-.888.114-1.336 0-.601-.33-1.203.054-1.762.066-.096-.042-.169-.054-.253-.084-.505-.078-.505.517-.601-.15-.32-.601-.481-.463-.939.09-.342 0-.758.656-.673-.325-.391-.566-.536-.98-.361-.163.066-.554.264-.56-.313-.006-.577-.44 0-.602-.192-.15.282.331.372.133.601-.199.229-.289 0-.373-.168 0-.055-.103-.133-.12 0-.067.541-.602.39-.873.493-.716.252-.872.445-.349.926 1.203 1.089 1.155 2.563 1.384 3.952.144.884.186 1.805.252 2.683 0 .307.217.65-.174.902-.114.072-.06.223.078.265.295.084.253.306.235.517-.054.842.222 1.654.216 2.49 0 .24.217.487-.192.644-.229.084.042.18.102.276.421.68.253 1.294-.36 1.396l-.205-.006zM52.692 64.914c1.25.205 2.297-.276 3.398-.33.797-.121 1.6-.193 2.406-.217.644.048.933.433.602 1.01l1.997-.144h.505c.184-.029.372.019.52.133.148.113.243.283.262.469.036.348-.403.571-.71.553-.866-.054-1.702.144-2.556.174h-1.077c-.383.075-.768-.12-.932-.475-.199-.553-.602-.535-.95-.36-.287.117-.594.174-.903.168-1.51 0-3.007.499-4.535.162-.199-.048-.481-.036-.53-.289-.132-.745-.685-.499-1.064-.415-1.83.34-3.674.587-5.528.74-.47.054-1.023.054-1.27-.541-.132-.307-.372-.199-.6-.163-1.497.163-3.003.211-4.506.145-.192 0-.427 0-.421-.265.006-.264.217-.283.415-.313 2.04-.288 4.096-.379 6.135-.601 1.618-.199 3.267-.169 4.873-.505.517-.157 1.077-.08 1.533.21.476.161.996.124 1.444-.102.482-.251 1.064-.214 1.51.096.445.307.33.493-.018.86z" transform="translate(0 13.233)"/>
            <path d="M3.495 15.982h.15c.361.168.86.216.421.848-.216.307.44.999.999 1.089 1.08.204 2.132.53 3.14.968.601.259 1.305.433 1.954.656.169.06.638 0 .18.373-.09.078.037.102.079.144.27.229.265.463-.042.505-.368.107-.763.066-1.1-.114-.36-.293-.812-.45-1.276-.445-.349 0-.77-.325-1.203-.44-.577-.234-1.185-.386-1.805-.45-.553 0-.938-.475-1.461-.638-.523-.162.5-.156.138-.463-.18-.156-.451.162-.601-.186-.223-.518 0-1.041-.085-1.558-.048-.331.47.024.512-.289z" transform="translate(0 13.233)"/>
        </g>
        <g>
            <path fill="#CAC9D8" d="M56.541.415h.145l1.45.36-.049.187-.673-.114.499.445 1.076-.878h.145c.829.165 1.666.285 2.508.36.65.031 1.323-.21 1.769.26l.601-.602h.144c.436.217.933.277 1.408.169.734-.038 1.47-.022 2.201.048.674 0 1.348-.15 2.021-.229h4.8c.085.09.163.265.241.265.343 0 .68-.084 1.203-.163-.944 16.668-.601 33.221-.493 49.793-.707.126-1.424.182-2.142.168-2.042-.13-4.09-.153-6.135-.072-.433 0-.842.042-.818-.511-.198.126-.36.319-.535.33-.794.049-1.636.692-2.406-.144 0 0-.169.066-.253.072-1.065.067-2.13.169-3.194.187-1.468 0-2.941-.03-4.409-.03-.68 0-1.365.078-2.051.084h-4.571c-1.041 0-2.088-.036-3.128 0-1.203.048-2.37-.168-3.561.09-.229.054-.53-.204-.812-.325l-1.486.217.427-.571-.601.132.138.601c-.524-.194-1.088-.256-1.642-.18-.295.072-.65-.132-.98-.217v-.222l-.44.475-.228-.602-.048.301c-.169.098-.349.175-.536.229-.601.108-1.203-.102-1.804-.036-1.125.114-2.268 0-3.41.156-.602.084-1.204-.15-1.901-.108-.602.036-1.378.379-1.931-.265h-.133c-1.203.09-2.406.229-3.639.27-1.233.043-2.484 0-3.723 0-1.24 0-2.364.055-3.543.067H12c-.602 0-1.203.042-1.805 0-.601-.042-1.377-.066-2.069-.126-.45-.036-.908-.12-1.329-.175-.108.042-.259.169-.397.163-.47 0-.998-.24-1.377-.085-.413.194-.903.09-1.203-.252-.12-.096-.35-.06-.524-.084v.198l.343.175c-.601-.175-1.6.601-1.768-.602l-.65.457c-.042-.204-.066-.27-.072-.343-.096-4.505-.265-9.022-.277-13.515 0-4.32.169-8.632.24-12.945.115-6.905.205-13.834.332-20.716 0-.547-.355-1.263.601-1.551L1.317.782l.698-.44h50.292c.33.428.685.602 1.203.2.132-.109.409-.037.601-.06.313-.037.602-.091.933-.14h.144c.174.644.764.326 1.149.518l.204-.445z" transform="translate(10.226 13.233)"/>
            <path fill="#CAC9D8" d="M1.937.415l-.698.44.728.228c-.932.288-.565 1.004-.602 1.552-.126 6.905-.216 13.834-.33 20.715-.073 4.313-.247 8.626-.241 12.945 0 4.505.18 9.022.277 13.516 0 .072 0 .138.072.342l.65-.457c.168 1.203 1.148.427 1.768.602l-.343-.175v-.198c.174 0 .403 0 .523.084.3.343.79.446 1.203.253.38-.157.909.066 1.378.084.138 0 .289-.12.397-.163.42.055.878.139 1.33.175.69.06 1.377.108 2.068.126.692.018 1.203 0 1.805 0h4.042c1.203 0 2.358-.054 3.543-.066 1.185-.012 2.484.048 3.723 0 1.24-.048 2.406-.18 3.64-.27h.132c.553.643 1.353.3 1.93.264.668-.042 1.3.193 1.901.108 1.143-.162 2.286-.042 3.41-.156.602-.066 1.204.144 1.805.036.187-.054.367-.131.535-.229l.049-.3.228.601.44-.475v.192c.33.085.685.29.98.217.554-.076 1.118-.014 1.642.18l-.139-.601.602-.132-.427.571 1.486-.216c.282.12.601.378.812.324 1.203-.258 2.376-.042 3.56-.09 1.041-.042 2.088 0 3.128 0h4.572c.686 0 1.371-.078 2.05-.084 1.469 0 2.942.048 4.41.03 1.065 0 2.13-.12 3.194-.186.084 0 .228-.103.253-.073.745.836 1.588.193 2.406.145.174 0 .336-.205.535-.331 0 .553.385.505.818.511 2.045-.081 4.093-.057 6.135.072.718.014 1.435-.042 2.142-.168-.085-16.572-.451-33.125.493-49.793-.541.079-.878.145-1.203.163-.078 0-.157-.175-.24-.265h1.587v50.238H.5V.415h1.438z" transform="translate(10.226 13.233)"/>
            <path fill="#0CB" d="M64.042.415l-.601.602c-.446-.47-1.12-.229-1.769-.26-.842-.075-1.679-.195-2.508-.36l4.878.018zM69.805.415c-.674.078-1.348.205-2.022.229-.737-.07-1.48-.083-2.22-.042-.471.101-.964.037-1.395-.18l5.637-.007zM58.995.415L57.919 1.293 57.42.848 58.093.962 58.141.776 56.692.415zM54.965.415c-.312.048-.601.102-.932.138-.21 0-.487-.048-.601.06-.5.41-.855.23-1.203-.198h2.736zM56.541.415l-.288.517c-.385-.192-.975.127-1.15-.517h1.438z" transform="translate(10.226 13.233)"/>
        </g>
        <path fill="#FFF" d="M47.952 28.602l-4.505 3.386c-.229.174-.433.379-.674.535-.243.19-.564.247-.857.15-.293-.097-.517-.334-.599-.63-.24-.554-.517-1.102-.806-1.637-.397-.728-.36-1.203.24-1.672 1.438-1.203 2.894-2.364 4.326-3.555.734-.602 1.407-1.3 2.153-1.895s1.588-1.137 2.364-1.726c.304-.19.558-.45.74-.758.21-.457.535-.409.89-.367 1.04.132 2.081.289 3.122.415.505.06.77.205.734.83-.048.927.132 1.87.09 2.803-.09 1.805-.283 3.61-.397 5.468-.042.68.042 1.371 0 2.051-.072 1.684-.199 3.362-.265 5.04-.048 1.318-.036 2.635-.042 3.952v5.197c0 2.07 0 4.139-.036 6.202 0 1.125-.054 2.25-.126 3.368-.042.638-.602.824-1.077.843-1.371.048-2.743 0-4.12 0-.117-.009-.234-.023-.35-.043-1.443-.126-1.46-.15-1.449-1.648 0-1.973 0-3.952.036-5.93.042-1.757.187-3.507.241-5.264.042-1.618 0-3.242 0-4.86 0-1.618.138-3.302.247-4.95.09-1.402.234-2.803.342-4.21.005-.306-.01-.612-.048-.915l-.174-.18z"/>
        <path fill="#181357" d="M78.592.505c.139.403-.439.848.067 1.24.138-.217-.048-.548.349-.747.041.591-.06 1.183-.295 1.727 1.341.264 2.682 0 4.012.114.182.012.359.066.517.156.114.06.108.307.3.241.193-.066 0-.216 0-.325 0-.108.061-.066.097-.084.777-.18 1.592.047 2.166.602.085.17.085.37 0 .54-.506 1.51-.355 3.063-.343 4.608v3.387l1.094-.21c-.054.288-.33.3-.505.396-.352.15-.596.48-.637.86.026.18-.044.36-.185.473-.141.114-.332.145-.501.08-.487-.101-1.01.133-1.48-.24-.307-.246-.601.169-.992.139-1.412-.136-2.83-.184-4.247-.145-.92 0-1.804-.108-2.743-.048-.439 0-.896 0-1.089-.674.229.686-.096.698-.505.686-1.682-.101-3.37-.061-5.046.12-.465.013-.93-.044-1.378-.168-.601-.102-1.203.403-1.744.066-.806-.481-1.522.301-2.328.066-.53-.156-1.161.037-1.642-.397-.127-.118-.32-.133-.463-.036-1.04.56-2.13.271-3.206.169-.925-.123-1.864-.111-2.785.036-.2.026-.402.026-.602 0-1.889-.096-3.741.427-5.618.415-2.61 0-5.215.24-7.82.174-2.243-.054-4.487 0-6.73 0-1.973 0-3.934-.12-5.907-.162h-2.635c-.697.042-1.397-.011-2.08-.156 0-.271.402-.193.36-.47-.108-.09-.234-.114-.319 0-.673.909-1.558.518-2.406.433-.174 0-.373.247-.643.205-1.275-.21-2.533.06-3.796.108-.35-.054-.708-.028-1.046.078-.223.115-.662.265-.536-.324-.24 0-.27-.32-.601-.403.493.908-.133.836-.638.812-.974-.049-1.925.168-2.893.174-.3 0-.385-.072-.373-.421.042-1.149 0-2.304 0-3.459.032-.356.01-.715-.066-1.064-.096-.301-.054-.301.36-.44.199-.042.329-.233.295-.432-.03-.139-.15-.271-.318-.145-.277.199-.295 0-.253-.174.223-.975-.277-1.98.15-2.942.066-.138.017-.304-.114-.385-.601-.324.09-.667 0-1.034-.054-.21.331 0 .523 0 1.379-.063 2.76-.003 4.127.18.005-.077-.026-.152-.084-.203-.057-.052-.135-.074-.211-.061-.367.09-.355-.085-.27-.331.201-.442.238-.942.102-1.408-.097-.246.138-.667.367-.667.323.04.584.282.65.601.041.456.041.915 0 1.372.035.697.45.715.901.685.897-.085 1.8-.053 2.69.096.41.064.83 0 1.202-.186.44-.198.132-.806.138-1.203 0-.217-.216-.397.12-.602.44-.258.855-.096 1.053.464.058.273.058.556 0 .83 0 .415.073.601.602.637 1.649.097 3.302.097 4.95 0 .689-.085 1.384-.101 2.075-.048.554.066.602-.222.602-.65 0-.426-.223-.908.21-1.25.133-.109.223-.47.38-.307.156.162.6.18.54.601-.005.048-.005.097 0 .145.091 1.31.091 1.335 1.402 1.329 1.973 0 3.946.042 5.92.132.216 0 .312 0 .222-.276-.094-.44-.229-.868-.403-1.282-.277-.45 0-.703.234-.914.367-.319.602.132.734.319.327.471.501 1.032.5 1.606 0 .439.198.56.6.571 1.378.054 2.756.223 4.133.21 1.202-.083 2.408-.083 3.61 0 .468.06.8-.192.877-.77.079-.577 0-1.4.602-1.912.204-.174.33-.367.65-.12.318.246.33.349.15.601-.15.268-.238.566-.259.872-.156 1.131-.114 1.203 1.047 1.131 1.624-.066 3.248-.156 4.872-.192.433 0 .602-.102.553-.56-.02-.332-.02-.666 0-.998-.019-.293.165-.562.446-.65.174-.036.469.21.565.506.135.518.194 1.053.174 1.588 0 .126-.156.282 0 .366.157.085.199-.114.241-.234.022-.042.046-.082.072-.12.397.252.776.078 1.167 0 .078 0 .12.138.054.222-.264.319-.511.71-.914.812-.403.102-.602.602-.451.728.295.397.355.836-.036.968-.458.085-.899-.212-.993-.667 0-1.005-.553-.686-1.143-.704-1.594-.054-3.176.204-4.764.06-.213-.016-.428-.002-.637.042-.602.12-.668.415-.433.902.174.29.17.653-.014.936-.183.284-.511.44-.846.4-.247 0-.361-.157-.325-.373.108-.602-.139-1.167.156-1.805h-2.406c-1.44.076-2.884.076-4.325 0-.589.05-1.182.016-1.762-.102-.136-.036-.282-.005-.391.084-.114.15.066.313.132.44.066.126.24 0 .361-.049.12-.048.35-.288.602-.102-.265.373-.536.722-.77 1.095-.295.463-.71.096-1.059.156s-.204-.319-.246-.511c-.29-1.167-.29-1.203-1.45-1.125-1.018.021-2.036-.015-3.05-.108-1.016 0-2.015.102-3.007.102-.217 0-.385 0-.253.33.099.219.173.447.223.68.072.307.108.674-.235.758-.343.085-.818.139-.938-.415-.03-.14-.049-.283-.054-.427-.055-.992-.085-1.058-1.083-.932-1.955.259-3.916.066-5.877.132h-.427c-1.113 0-1.143 0-.68.98.15.32-.078.368-.18.524-.289-.21-.638.53-.914-.066-.19-.458-.318-.94-.38-1.432-.6-.138-1.25.109-1.804-.379-.27-.155-.608-.126-.848.073-.517.324-1.203.084-1.804.168-.5.066-.391.036-.403.493-.012.457.192.909.186 1.354-.012.18-.098.348-.238.462-.14.114-.323.165-.502.14-.26-.066-.45-.288-.475-.554-.102-.482-.102-.98 0-1.462.193-.5-.084-.36-.325-.475-.24-.114-.752.036-.776-.565 0-.247-.258-.06-.325.084-.228.487-.469.601-.938.216-.216-.186-.517.193-.842.175-.325-.018-.15.312-.132.463.252 1.973 0 3.946.084 5.919 0 .324-.06.661-.036 1.01.06.782.307.788 1.095.728.553-.042 1.064-.253 1.612-.24.623-.022 1.248-.01 1.87.036.503.02 1.006-.037 1.492-.169.375-.085.76-.112 1.143-.078.48.028.962.008 1.437-.06.229 0 .536-.175.698.144.037.093.14.141.235.108 2.707-.547 5.413-.252 8.162-.216 1.384 0 2.803.054 4.21.192 1.536.086 3.076.064 4.608-.066 1.498-.066 3.008.06 4.512 0 1.263 0 2.532-.054 3.795-.15 1.558-.109 3.134 0 4.686-.217 1.552-.216 3.007-.18 4.505-.24.33-.023.658.059.938.234.163.108.21.205.373 0 .163-.204.259-.264.481.066.115.175.752.06 1.137 0 .259-.048.193-.054.445.133.246.123.531.138.788.042.857-.262 1.772-.262 2.629 0 .217.054.692-.313.662.313 0 .06.192.042.234-.043.24-.475.602-.48 1.07-.384.187.036.548-.301.284.24-.015.046-.006.095.025.132.03.037.078.055.125.049.138 0 .379-.103.379-.157 0-.686.259-.168.379-.066.144.139.373.139.517 0 .625-.451 1.456-.494 2.123-.108.145.066.187-.09.283-.139.53-.288 1.017.229 1.564.097.187-.048-.186.39.156.39.343 0 0-.378.247-.432.505-.103 1.047-.35 1.323.439.03-.415.067-.433.373-.343.09.012.183-.003.265-.042.108-.042.277-.18.307-.15.481.444.8-.085 1.203-.157.511-.102 1.022.174 1.528.138.484-.072.977-.072 1.461 0-.222.21-.493.38-.499.716.343.15.409-.878.86-.18.059-.07.109-.147.15-.229.068-.154.202-.27.365-.313.163-.043.336-.01.472.09.228.163.33.205.517 0 .186-.204.319-.228.397.085 0 .066.042.162.186.09.488-.247.975-.602 1.396.15.102.175.373-.168.601-.204.482-.066.92-.451 1.257.21.277-.409.758.048 1.077-.252.26-.278.38-.659.325-1.035-.144-1.203 0-2.364-.036-3.543-.042-.499.039-1 .234-1.461v-.127c-.68-.553-.102-1.137-.036-1.696 0-.217.103-.421-.072-.601-.174-.18-.313.09-.469.126-.68.046-1.364.02-2.04-.078-.502.076-1.016.05-1.509-.079-.481-.192-.914.18-1.401.103-.25 0-.47.167-.536.409-.138.427.265.114.307.21.175.373-.144.668-.277.963-.084.198-.228.318-.168.601.036.169.054.457-.24.511-.238.083-.501-.003-.644-.21-.227-.358-.288-.797-.169-1.203.325-1.275.307-1.203-.968-1.3-.848-.041-1.744.301-2.556-.21-.16.267-.496.369-.776.235-.542-.542-1.203.337-1.715-.217-1.348.311-2.733.428-4.114.349-.3 0-.601.042-.53.385.073.343.043.668.512.644.174-.018.35-.018.523 0-.511.036-.601.541-.95.8-.175.13-.412.145-.602.036-.24-.072 0-.24.055-.38.013-.107-.012-.216-.073-.306-.836.102-.367-.493-.397-.776-.03-.283 0-.265-.258-.295-1.336-.174-2.67.09-3.994.15-.698 0-1.42 0-2.142.103.301-.223.698-.337.602-.818-.023-.07-.009-.147.037-.204.046-.057.118-.087.191-.079.36-.044.721-.064 1.083-.06.605.014 1.209-.03 1.805-.132.74 0 1.467-.247 2.213.132.265.138.487-.174.44-.523-.037-.235-.2-.494.198-.602.174-.06.18-.24 0-.397-.5-.457-.331-.872.102-1.263h.289c.192.319.998.493.228 1.017-.06.042-.06.072 0 .102.662.307 0 .77.12 1.155.06.234.115.36.301.294 1.167-.439 2.406.037 3.543-.21.421-.09.662.433.909.186.469-.469.98-.186 1.461-.198.307.04.617.052.927.036.905-.196 1.843-.196 2.748 0 .367.09 1.101.21 1.203-.36.021-.719.256-1.414.674-1.998l.162.054z"/>
    </g>
</svg>
