<svg xmlns="http://www.w3.org/2000/svg" width="24" height="24" viewBox="0 0 24 24">
    <g fill="none" fill-rule="evenodd" stroke-linecap="round" stroke-linejoin="round">
        <path stroke="#181357" stroke-width="1.5" d="M2.25 3.75h19.5c.828 0 1.5.672 1.5 1.5v16.5c0 .828-.672 1.5-1.5 1.5H2.25c-.828 0-1.5-.672-1.5-1.5V5.25c0-.828.672-1.5 1.5-1.5zM.75 9.75L23.25 9.75M6.75 6L6.75.75M17.25 6L17.25.75"/>
        <path stroke="#181357" stroke-width="1.5" d="M5.625 13.5c-.207 0-.375.168-.375.375s.168.375.375.375.375-.168.375-.375-.168-.375-.375-.375h0"/>
        <path stroke="#181357" stroke-width="1.5" d="M5.625 18.75c-.207 0-.375.168-.375.375s.168.375.375.375.375-.168.375-.375-.168-.375-.375-.375"/>
        <path stroke="#181357" stroke-width="1.5" d="M12 13.5c-.207 0-.375.168-.375.375s.168.375.375.375.375-.168.375-.375-.168-.375-.375-.375h0"/>
        <path stroke="#181357" stroke-width="1.5" d="M12 18.75c-.207 0-.375.168-.375.375s.168.375.375.375.375-.168.375-.375-.168-.375-.375-.375"/>
        <path stroke="#181357" stroke-width="1.5" d="M18.375 13.5c-.207 0-.375.168-.375.375s.168.375.375.375.375-.168.375-.375-.168-.375-.375-.375h0"/>
        <path stroke="#181357" stroke-width="1.5" d="M18.375 18.75c-.207 0-.375.168-.375.375s.168.375.375.375.375-.168.375-.375-.168-.375-.375-.375"/>
    </g>
</svg>
