<svg xmlns="http://www.w3.org/2000/svg" width="101" height="80" viewBox="0 0 101 80">
    <g fill="none">
        <path fill="#181357" d="M69.668 75.657c-1.053-.247-2.025-.808-3.126-.481-.29.086-.357-.228-.382-.5-.19-2.234-.332-4.467-.615-6.688-.106-1.224-.327-2.434-.659-3.616-.074-.234-.246-.574.16-.814.652-.395.806.154.91.506.253.839.407 1.696.58 2.554.402 2.224.655 4.473.756 6.731 0 .39.222.488.53.568 1.28.333 2.553.673 3.821 1.03.462.1.809.486.862.957 0 .413-.517.549-.948.654-1.56.3-3.14.483-4.726.549-1.04.099-2.517-.888-3.077-1.728-.979-1.554-1.508-3.3-2.314-4.936-.548-1.11-1.145-2.196-1.606-3.344-.27-.666-.91-1.036-1.139-1.734-.129-.394.056-.444.247-.617.19-.172.332-.271.615-.037.78.8 1.395 1.745 1.81 2.783 1.02 2.042 1.895 4.159 2.848 6.232.249.522.529 1.029.837 1.518.34.47.902.723 1.477.666 1.046.019 2.093-.154 3.139-.253zM32.677 75.743c1.213.254 2.457.329 3.692.223.477-.093.88-.413 1.077-.858 1.41-2.425 2.259-5.115 3.588-7.565.492-.9.88-1.9 1.698-2.603.228-.204.376-.327.653-.05.277.278.406.272.221.679-.375.833-1.052 1.462-1.415 2.32-.831 1.937-1.846 3.8-2.616 5.763-.278.848-.694 1.644-1.23 2.357-.702.762-1.68 1.207-2.714 1.234-1.33.068-2.634-.377-3.982-.29-.314 0-.541-.29-.886-.284-.41.044-.792-.217-.898-.617-.074-.413.363-.666.615-.895.27-.204.592-.328.93-.358 1.052-.074 1.987-.573 3.008-.734.437-.074.573-.259.616-.71.178-1.166.092-2.344.258-3.51.228-1.58.517-3.147.837-4.708.093-.45 0-.969.419-1.29.123-.104.147-.48.461-.302.314.18.616.278.474.722-.359 1.524-.632 3.067-.818 4.622-.117.777-.056 1.554-.191 2.338-.203 1.19-.228 2.419-.32 3.628 0 .29-.142.543-.437.45-1.059-.32-2.019.266-3.04.438zM92.443 39.951c-.105.278-.105.413.27.29.18-.056.493-.142.567.142.043.185-.197.296-.37.401-.578.272-1.128.6-1.642.981-.191.179-.185.16-.16.401.024.24-.382.29-.616.37-.394.13-.763.229-.898.71-.068.234-.357.315-.616.37-.743.198-1.31.804-1.458 1.561-.04.78.314 1.53.942 1.993.714.529 1.535.895 2.406 1.074-.616-.704-.813-1.494-1.557-1.851-.32-.167-.32-.439-.074-.71.316-.28.687-.49 1.09-.617 1.635-.803 3.13-1.868 4.424-3.153 1.142-.97 2.232-2 3.267-3.085.216-.24.616-.179.739-.679.326-1.104.295-1.573-.775-1.993-.8-.406-1.622-.767-2.462-1.08-.258-.067-.314-.308-.43-.456-.807-1.049-2.204-.765-3.152-1.462-.065-.044-.135-.08-.209-.105-.135-.32.825-.346.142-.778-.093-.055.141-.296.246-.203.468.382 1.274.265 1.49 1.018.04.045.1.068.16.062.362-.08.793-.321.731.395 0 0 .13.104.173.092.806-.308 1.009.333 1.292.82.166.285.252.396.455 0 .068-.129.53-.308.493.223 0 .173 0 .308.221.284.4-.037.437.166.4.493 0 .087.197.407.203.333.037-.444.714.476.505-.259 0-.117.068-.142.11-.123.196.083.381.186.555.308.098.074-.043.105-.093.118-.16.03-.307.067-.166.265.142.197.19 0 .296-.037.412-.136 1.409.728 1.193 1.03-.218.303-.395.633-.529.981-.043.118-.424.247.043.37.24.068 0 .254-.086.39-.197.314-.695.332-.75.783 0 0-.118.086-.167.08-.615-.105-.812 0-.726.617.086.617-.53.302-.492.617-.228 0-.228-.154-.228-.278 0-.123-.055-.333-.21-.327-.153.007-.165.18-.14.346.048.32-.228.376-.518.506.222.11.56.03.56.327 0 .296-.314.259-.43.308-.357.13-.413.45-.585.617-.455.47-.825 1.154-1.588 1.234-.226.004-.431.132-.535.334-.265.69-.966.808-1.47 1.153-.506.346-.752.753-1.312.914-.258.08 0 .357.136.518.45.481.788 1.057.99 1.684.271.907.056.994-.836 1.099-1.564.185-2.616-.827-3.822-1.426-1.022-.5-1.268-1.931-.874-3.085.165-.664.45-1.291.843-1.85.173-.198.394-.408.69-.167.387.302.584.067.83-.229.936-1.098 2.222-1.77 3.311-2.69.03 0 .135 0 .203.043v-.012zM55.563 78.125c1.908-.099 3.692-.617 5.539-.66.867 0 .861 0 1.04.858.055.259.264.16.418.148.67-.037 1.342-.068 2.012-.13.468-.043.862.197.874.574.012.376-.45.586-.818.555-1.176-.099-2.32.253-3.496.191-.517-.03-.91-.135-1.114-.617-.166-.394-.443-.382-.763-.283-.727.202-1.479.304-2.233.302-.936 0-1.847.327-2.8.148-.554-.099-1.12 0-1.404-.734-.135-.364-.683-.087-1.021 0-1.594.306-3.205.513-4.825.617-.363 0-.689.197-1.07.11-.259-.06-.616-.055-.72-.258-.296-.753-.88-.475-1.348-.414-1.366.102-2.736.133-4.105.093-.178 0-.387 0-.406-.216-.018-.216.203-.302.406-.333 2.086-.296 4.191-.395 6.277-.648 1.656-.198 3.336-.18 4.985-.512.51-.142 1.056-.07 1.514.197.485.177 1.021.152 1.489-.068.512-.274 1.134-.233 1.606.105.59.414-.012.593-.037.975zM4.197 38.945c-.19-.117-.455-.154-.499-.395-.043-.24.148-.462-.153-.45-.302.012-.117.383-.277.617-.246-.26-.72-.222-.616-.84.086-.406-.35-.616-.726-.487 0 0-.043.044-.055.044-.333-.087-.197-.704-.69-.617.044-.247-.732-.315-.16-.74.015-.386-.132-.76-.406-1.031-.307-.191-.24-.432-.104-.506.406-.24.455-1.234 1.267-.66 0 0 .191-.093.204-.155.043-.259-.29-.092-.333-.271.376-.26.363-.253.616 0 .252.253.35-.148.615 0s.19-.21.19-.284c0-.34 0-.586.438-.53.11 0 .16-.075.203-.173.24-.55.289-.55.75-.056.173-.271.351-.53.493-.808.141-.278.234-.352.437-.346.35 0 .794.278.75-.407 0 0 .074-.092.105-.092.917.068 1.397-.833 2.21-1.006.104 0 .184-.037.246.055.023.06.023.126 0 .186-.093.345-.074.425.209.666l-2.019.975c-.129.055-.301.203-.4.08-.394-.494-.658.08-.701.185-.363.926-1.293 1.024-1.994 1.42-.686.283-1.34.638-1.95 1.06-.286.242-.385.64-.247.988.27.962 1.102 1.35 1.698 1.925 1.084 1.118 2.23 2.173 3.434 3.159 1.293.975 2.499 2.073 4.08 2.604.301.096.543.322.659.617.166.456-.326.42-.493.617-.4.506-.763 1.055-1.23 1.696 1.452-.302 2.664-.882 4.11-1.277-.294.436-.683.799-1.138 1.061-.722.653-1.58 1.136-2.51 1.413-.494.077-.997.077-1.49 0-.45 0-.418-.617-.326-.968.183-.695.539-1.332 1.034-1.851.307-.334.4-.475-.111-.722-.51-.247-.794-.876-1.23-.932-.985-.123-1.182-1.203-2.1-1.45-.657-.167-1.156-.706-1.273-1.376 0-.296-.443-.191-.56-.32-.117-.13-.499-.106-.474-.383.025-.278.332-.111.517-.235z"/>
        <path fill="#181357" d="M8.135 37.736c-.166 0-.363-.117-.498-.062-.788.352-1.17-.388-1.735-.617-.16-.068-.327-.29-.105-.469.064-.06.153-.087.24-.072.086.014.162.069.203.146.062.118.068.346.258.235.191-.111.111-.321.037-.475-.357-.4-.932-.523-1.421-.303-.068-.518.51-.968.13-1.493.323-.216.628-.46.91-.728.922-.783 1.89-1.51 2.898-2.178.185-.142.351-.284.616-.234.794.172 1.114-.697 1.778-.796-.228-.574.265-.438.523-.543.259-.105.339.136.443.271.105.136 0 .327-.141.426-.248.197-.532.342-.837.426-.4.043-.616.105-.616.574s-.535 0-.658.339c-.388-.296-.43.086-.56.284-.37.574-1.04.74-1.538 1.141-.333.26-.665-.333-1.022-.055.308.45.265.617-.234.839-.32.087-.56.35-.62.676-.061.326.07.658.337.854.492.438.732 1.141 1.446 1.345.098.03.175.104.21.2.033.096.02.203-.037.287l-.007-.018zM92.462 39.97c-.06-.083-.076-.19-.042-.287.035-.096.115-.17.214-.195.683-.172.898-.833 1.348-1.234.701-.617.615-1.234-.24-1.678-.351-.191-.69-.395-.087-.753-.092-.037-.178-.105-.215-.086-.874.438-1.465-.253-2.043-.617-.48-.315-.726-.975-1.47-.82-.021.005-.042.005-.062 0 .037-.963-.973-.618-1.348-1.093-.142-.166-.499-.197-.32-.524.08-.142.215-.438.425-.253.209.185.523-.185.615.382.263.522.779.868 1.36.913.474.031.928.208 1.298.506 1.231.728 2.185 1.79 3.373 2.549.049.037.11.148.098.166-.406.494.185.889.142 1.456-.486-.469-.837-.086-1.231.087-.265.123-.388.413-.215.617.27.277.221-.148.332-.229.06-.063.144-.098.23-.098.088 0 .171.035.231.098.046.077.054.17.023.255-.03.084-.098.149-.183.177-.566.235-.947.981-1.741.617-.13-.055-.326.037-.492.062v-.018z"/>
        <path fill="#303336" d="M8.117 37.754c.683.087 1.095.617 1.594 1 .837.617 1.612 1.345 2.406 2.036.211.15.365.368.437.617.043.216-.154.414-.246.278-.253-.389-.745-.167-.942-.389-.463-.603-1.112-1.037-1.846-1.234.062-.617-.517-.728-.868-1-.295-.2-.608-.374-.935-.518-.203-.098-.474-.203-.419-.432.056-.228.382-.19.567-.123.4.136.344-.05.264-.302l-.012.067zM9.446 29.517c.609.004 1.18-.294 1.526-.795.333-.432 1.04-.513 1.619-.574.209 0 .184.376.381.543.197.166-.11.234-.215.302-.363.24-.283-.056-.339-.265-.055-.21-.258-.08-.295 0-.27.617-.972.617-1.378 1.005-.24.241-.53.617-.96.198-.13-.136-.123.068-.154.123-.038.1-.113.181-.21.225-.097.044-.208.048-.307.01-.228-.124-.228-.438-.179-.673.074-.351.296-.13.511-.099z"/>
        <path fill="#181357" d="M88.345 30.881c-.179 0-.203.05-.191.216.012.167-.136.284-.277.154-.142-.13-.437-.191-.265-.345.173-.155.136-.74.745-.482.61.26 1.292.136 1.41.982.54-.186.88.58 1.44.314.178-.086.393-.173.442.13.077.243.005.508-.184.678-.154.093-.345-.043-.493-.178-.147-.136 0-.408-.221-.124-.222.284-.486.093-.616-.043-.504-.432-1.23-.617-1.593-1.19-.062-.056-.148-.081-.197-.112z"/>
        <path fill="#CAC9D8" d="M68.345 14.191h.147l1.483.37-.049.198-.69-.117.512.45 1.107-.9h.142c.855.129 1.71.332 2.566.375.665 0 1.354-.215 1.81.26l.615-.617h.147c.44.229.945.296 1.428.19.75-.043 1.504-.029 2.252.044.69 0 1.379-.154 2.068-.234h4.886c.08.098.166.277.24.271.351 0 .696-.086 1.231-.167-.966 17.104-.615 34.084-.498 51.082-.726.128-1.461.183-2.197.167-2.093-.228-4.185-.056-6.271-.074-.45 0-.862.05-.843-.525-.203.13-.37.327-.548.34-.812.055-1.674.71-2.461-.148 0 0-.167.074-.259.08-1.09.068-2.178.166-3.268.185-1.501 0-3.003-.03-4.51 0-.696 0-1.397.08-2.099.08H60.61c-1.064 0-2.135-.037-3.194 0-1.23.05-2.43-.173-3.643.093-.24.05-.547-.21-.837-.333l-1.52.215.437-.58-.615.13.141.617c-.535-.202-1.113-.266-1.68-.185-.301.068-.664-.142-.996-.222v-.204l-.45.488-.234-.617-.049.308c-.172.102-.356.183-.547.24-.616.112-1.231-.104-1.877-.042-1.151.117-2.32 0-3.49.16-.615.086-1.261-.154-1.944-.111-.616.043-1.41.395-1.97-.272H38c-1.23.1-2.462.235-3.692.284-1.231.05-2.542 0-3.81 0-1.267 0-2.418.05-3.624.068h-4.136c-.615 0-1.23.037-1.846 0-.615-.037-1.409-.074-2.117-.13-.461-.043-.923-.123-1.36-.184-.11.049-.258.172-.406.166-.474 0-1.021-.247-1.409-.08-.423.199-.927.09-1.23-.265-.124-.1-.352-.062-.536-.087v.21l.32.234c-.616-.185-1.637.617-1.81-.617l-.664.47c-.031-.114-.054-.23-.068-.346-.104-4.628-.277-9.255-.283-13.87 0-4.424.166-8.854.24-13.278.117-7.084.21-14.191.339-21.25 0-.555-.357-1.296.615-1.592l-.745-.228.702-.5h51.446c.339.444.702.617 1.23.204.136-.111.426-.031.616-.056.32-.043.616-.099.954-.148h.148c.184.66.781.34 1.175.53l.296-.53z"/>
        <path fill="#181357" d="M80.29.58l-.093 1.197h.148l.203-.722.215.043-.228 1.716c1.52.431 3.262-.346 4.88.468l-.049-.376h1.545c.51 0 .966.703.83 1.086-.676 1.944-.326 3.949-.381 5.93v2.356l1.15-.21c-.615.488-1.433.76-1.2 1.975-.824-.136-1.525-.271-2.227-.346-.338 0-.683.112-1.028.1-1.47 0-2.947-.093-4.424-.13-.905 0-1.816 0-2.726-.031-.38-.07-.751-.189-1.102-.352 0-.037.03.117.105.352h-2.893c-.941 0-1.846.099-2.8.148h-.147c-1.077-.037-2.148-.062-3.219-.124-.232-.048-.456-.131-.664-.246-1.052.498-2.277.47-3.305-.074-.142-.062-.35-.142-.455-.087-1.151.617-2.308.266-3.49.148-.878-.034-1.758-.014-2.633.062l-.511.03c-3.262.192-6.523.402-9.791.562-1.39.068-2.788 0-4.178 0h-6.819c-2.012 0-4.025-.123-6.037-.166h-4.85v-.229l.616-.505c-.32.055-.486.043-.517.098-.615 1.006-1.587.364-2.363.586-.35.09-.715.102-1.07.037-1.182-.172-2.351.186-3.502.105-.615-.043-1.102.24-1.575.198l-.548-.82-.13.073.222.617c-.154.033-.31.058-.467.074l-3.773.21v-3.912V6.46c0-.407.086-.814.13-1.234 0-.123.061-.32 0-.352-.647-.395 0-.863-.154-1.29l4.818.217v-.068l-.615-.154.258-2.598c.32.086.593.299.755.59.163.29.201.633.107.953-.154 1.166-.043 1.234 1.138 1.234.757 0 1.52.148 2.277.172.542-.015 1.082-.06 1.619-.135l-.087-1.777.579-.457c.576.344.854 1.029.683 1.678-.086.377.055.617.566.617 1.692-.043 3.385 0 5.077 0h2.658c.277-.771-.326-1.77.665-2.295 1.04.407.443 1.357.708 2.172h7.655c-.088-.504-.239-.996-.45-1.462-.11-.161-.143-.363-.09-.551.052-.188.184-.344.362-.424.123-.08.615.142.732.34.26.493.426 1.03.492 1.585.056.53.259.617.733.617 1.366.043 2.72.185 4.086.216.972 0 1.944-.056 2.923-.08h1.495c.468-.982 0-2.302 1.231-2.95l.517.352-.535 2.394h6.769c-.029-.446-.029-.893 0-1.339.08-.405.19-.803.332-1.19 1.102.783.843 1.8.862 2.85.313-.284.523-1.074.867-.185.29-.204.536-.76.88-.074-.448.286-.878.601-1.286.944-.15.2-.195.458-.123.697.172.432.172.759-.24 1.006-.646-.321-1.23-.654-.997-1.574-.53.031-.997.087-1.47.093H52.08c-.843 0-.985.29-.652 1.061.12.311.068.663-.138.926-.206.262-.535.396-.865.351-.163-.063-.281-.205-.314-.376-.037-.617 0-1.179 0-1.851h-8.88l.203.469.91-.333c-.486.74-.682 1.85-1.969 1.326L40 4.98h-7.705c.05.37.068.654.13.926.147.722.098.814-.302.92-.775.209-.85-.285-.917-.828-.037-.327-.074-.654-.104-.876h-8.536c.197.518.499.92.43 1.234-.067.315-.614.37-1.014.617l-.616-1.85c-.523-.167-1.157.209-1.68-.346-.13-.142-.51-.093-.77-.062-.258.03-.56.21-.848.24-.616.056-1.231.056-1.705.08.156.666.254 1.343.295 2.025 0 .172-.504.388-.806.487-.067 0-.375-.376-.394-.617-.055-.617 0-1.234 0-1.907l-1.009-.24-.141-.568c-.726.87-.874.907-1.311.438l-.93.284V12.704c0 .29.77.895.948.71.4-.42.936-.284 1.373-.352 1.096-.198 2.213-.252 3.323-.16.43.049.646-.204.997-.204 1.23 0 2.51.068 3.772 0 1.44-.099 2.892-.05 4.308 0 3.114.074 6.221.216 9.335.271 1.982.031 3.97-.055 5.95-.067 1.029 0 2.056.086 3.078.049 1.23-.043 2.461-.191 3.729-.265 2.64-.155 5.286-.309 7.932-.426.515.03 1.026.109 1.526.234v.155l.517-.37v.184c.193.097.402.155.616.173.394-.043.99-.358 1.138-.21.499.513 1.01.167 1.502.204.714.056 1.427.148 2.135.148.32 0 .677-.265.616.18l1.747-.457-.123.549.154.098.486-.561c.308.389.696.561 1.139 0 .061-.08.27-.05.412-.068.794-.08 1.588.24 2.375 0 .098-.018.2-.005.29.037.203.068.406.16.701.284v.352c.492-.827 1.139-.864 1.73-.18-.105-.931.78.08.885-.45l.505.24c1.188-.875 2.535 0 3.859-.357l-.585.796.178.148.487-.617.283.358c.338-1.197 1.36.136 1.772-.617l.197.34c.275-.217.626-.314.973-.269.347.045.662.229.873.509l-.32-.37c.77.376 1.274-.383 2.074.216.658.487 1.39-.334 1.304-1.345-.129-1.61.124-3.221 0-4.832 0-.068.16-.154.302-.283-1.145-.68.455-1.666-.086-2.283H85.07l-1.754-.05c-.784-.083-1.576-.07-2.357.037-.278.119-.536.281-.763.482l.092.172.456-.043c-.068.191-.117.346-.173.494-.129.345-.258.697-.394 1.042-.08.204-.172.408-.258.617-.246-.11-.615-.16-.714-.351-.148-.302-.207-.64-.172-.975.052-.492.132-.98.24-1.462h-4.259c-.344 0-.689-.142-1.033-.13-.462 0-.917.148-1.373.167-1.298.055-2.597.061-3.895.135-.185 0-.35.247-.53.383.168.223.355.43.56.617.105.08.314 0 .48 0-.615.16-.762 1.302-1.692.895l.173-.778-.536.228V4.32l-6.597.383c.302-.37.936-.321.616-.914.174-.129.37-.227.578-.29.83-.074 1.668-.098 2.499-.148.677-.037 1.353-.086 2.037-.105.141 0 .283.124.43.155.37.08.468-.118.486-.45.047-.356.121-.706.222-1.05-.223-.16-.346-.427-.325-.702.022-.274.184-.518.43-.643h.295l.542.864c-.616.204.221.475-.044.778-.166.203-.098.617-.141 1.005 1.895-.518 3.766-.203 5.612-.216 1.846-.012 3.773-.395 5.717 0 .037-.938.03-1.789.696-2.425l.067.019z"/>
        <path fill="#FFF" d="M68.695 34.3c.899-1.926 2.043-3.086 4.308-2.092-.492 1.08-.941 2.073-1.397 3.085-.29.617-.548 1.308-.88 1.93-.775 1.438-1.581 2.851-2.375 4.277-.38.436-1.04.488-1.483.117-.742-.512-1.435-1.092-2.068-1.734-.858-.91-1.825-1.71-2.88-2.381-.936-.728-1.79-1.555-2.548-2.468-.067-.075 0-.377.117-.506.893-1.167 2.117-1.234 3.256-.21.43.388.861.759 1.384 1.234.026-.263.026-.527 0-.79-.178-1.21-.462-2.4-.849-3.56-1.046-2.554-2.388-4.936-5.255-5.892-.948-.321-1.902-.66-2.862-.945-.3-.045-.602-.06-.905-.043-2.057-.158-4.126.038-6.116.58-1.73.478-3.387 1.192-4.924 2.123-.353.214-.667.488-.929.808-1.501 1.851-2.91 3.733-3.23 6.17-.074.568-.388.728-.942.747-1.317.049-2.628.179-4.074.284.105-.66.16-1.235.302-1.777.241-1.185.587-2.345 1.033-3.468.742-1.492 1.738-2.843 2.942-3.992 1.104-1.18 2.278-2.292 3.514-3.332 1.031-.74 2.134-1.375 3.292-1.894.94-.515 1.933-.929 2.96-1.234 1.173-.282 2.37-.447 3.576-.494 3.128-.097 6.232.593 9.027 2.006.477.235.913.545 1.293.919 1.084.953 2.111 1.968 3.076 3.042 2.043 2.33 3.251 5.276 3.434 8.372.046.376.114.75.203 1.117zM69.785 44.202c-.2.767-.444 1.521-.733 2.258-.615 1.358-1.31 2.684-2.018 4.005-.89 1.668-2.18 3.086-3.754 4.128-.898.617-1.846 1.104-2.812 1.622-1.04.605-2.11 1.157-3.206 1.654-.728.252-1.481.424-2.247.512-.743.155-1.495.264-2.252.327-.861.092-1.73.092-2.59 0-1.231-.179-2.5-.537-3.755-.79-1.462-.273-2.833-.91-3.987-1.85-1.231-1.013-2.351-2.148-3.502-3.24-.299-.277-.567-.585-.8-.92-1.172-1.708-2.09-3.579-2.726-5.552-.228-.692-.492-1.37-.745-2.074-.295.364-.652.747-.947 1.173-.616.857-1.502.524-2.265.543-.523 0-.548-.617-.357-.969 1.342-2.468 2.708-4.911 4.099-7.33.301-.524.843-.518 1.403-.413.75.148 1.163.734 1.68 1.184 1.23 1.074 2.554 2.086 3.747 3.215.586.644 1.117 1.335 1.588 2.067-.525.502-1.238.756-1.961.7-.723-.057-1.389-.419-1.83-.996-.313-.483-.694-.917-1.132-1.29-.01.188.003.376.037.562.499 1.78 1.116 3.527 1.846 5.226.633 1.288 1.617 2.37 2.837 3.122 1.26.808 2.586 1.507 3.963 2.091 1.036.48 2.188.649 3.317.488 1.65-.303 3.379-.16 5.052-.383 1.02-.165 2.01-.474 2.942-.92 1.468-.666 2.74-1.701 3.692-3.004.801-1.219 1.438-2.538 1.896-3.924.424-1.123.332-1.197 1.538-1.234 1.206-.037 2.505.012 3.982.012z"/>
    </g>
</svg>
