<svg xmlns="http://www.w3.org/2000/svg" width="54" height="46" viewBox="0 0 54 46">
    <g fill="none" fill-rule="evenodd" transform="translate(-3 -6.946)">
        <path d="M0 0h60v60H0z"/>
        <circle cx="29.89" cy="26.85" r="18.34" fill="#EDF4FF" fill-rule="nonzero"/>
        <path fill="#96DDFF" fill-rule="nonzero" d="M55.88 50.44l-12-17a.65.65 0 0 0-1.08 0l-4.36 6.18 7.66 10.87a.67.67 0 0 1-.55 1.05h9.8a.67.67 0 0 0 .53-1.1z"/>
        <path fill="#EDF4FF" fill-rule="nonzero" d="M48.7 41.62l-1.81 1.81L44 40.55a1.05 1.05 0 0 0-.75-.32 1.09 1.09 0 0 0-.75.32l-1.56 1.56-1.73-2.46 4-5.74 5.49 7.71z"/>
        <path fill="#96DDFF" fill-rule="nonzero" d="M21.47 39.42l-4.25-6a.65.65 0 0 0-1.08 0l-12 17a.67.67 0 0 0 .55 1.05h9.58a.66.66 0 0 1-.54-1.05l7.74-11z"/>
        <path fill="#EDF4FF" fill-rule="nonzero" d="M11.3 41.62l1.81 1.81L16 40.55a1.05 1.05 0 0 1 .75-.32c.282.006.55.12.75.32l1.56 1.56 1.73-2.46-4.05-5.74-5.44 7.71z"/>
        <path fill="#69BAF9" fill-rule="nonzero" d="M55.88 50.44l-3.23-4.58a38.5 38.5 0 0 1-8.38 2l1.81 2.56a.67.67 0 0 1-.55 1.05h9.8a.67.67 0 0 0 .55-1.03zM15.53 47.85a38.11 38.11 0 0 1-8.18-2l-3.23 4.59a.67.67 0 0 0 .55 1.05h9.58a.66.66 0 0 1-.54-1.05l1.82-2.59z"/>
        <path fill="#79DEB4" fill-rule="nonzero" d="M29.35 28.24l-15.64 22.2a.66.66 0 0 0 .54 1.05h31.28a.67.67 0 0 0 .55-1.05l-15.64-22.2a.66.66 0 0 0-1.09 0z"/>
        <path fill="#62CCA1" fill-rule="nonzero" d="M42.89 45.91a66.06 66.06 0 0 1-13 1.26 66.21 66.21 0 0 1-13-1.26l-3.18 4.53a.66.66 0 0 0 .54 1.05h31.28a.67.67 0 0 0 .55-1.05l-3.19-4.53z"/>
        <path fill="#EDF4FF" fill-rule="nonzero" d="M36.85 37.35l-3.22 3.22L30 36.94l-3.47 3.47L23.15 37l6.2-8.79a.66.66 0 0 1 1.09 0l6.41 9.14z"/>
        <path fill="#F6716F" fill-rule="nonzero" d="M29.89 23.64h7.32l-1.99-2.66 1.99-2.66h-7.32z"/>
        <path fill="#3D3D63" fill-rule="nonzero" d="M56.67 49.88L46.89 36a19.31 19.31 0 1 0-33.9.18l-9.66 13.7a1.63 1.63 0 0 0 1.34 2.58h50.66a1.63 1.63 0 0 0 1.34-2.58zm-40-15.57l3.6 5.11-1.6 2.27-1.3-1.3a1 1 0 0 0-.69-.29 1 1 0 0 0-.69.29L13.36 43l-1.66-1.63 4.97-7.06zm18.58-15l-.82 1.1a1 1 0 0 0 0 1.17l.82 1.1h-4.38V19.3l4.38.01zm-5.37 9.86l5.69 8.08-1.95 1.95-2.94-2.94a1 1 0 0 0-1.38 0L26.53 39l-2.11-2.11 5.46-7.72zm-6.61 9.38l2.56 2.56a1 1 0 0 0 1.38 0L30 38.32l2.94 2.94a1 1 0 0 0 1.38 0l2.4-2.41 8.22 11.66H14.85l8.42-11.96zm16.33 1l3.71-5.26 5 7.06L46.64 43 44 40.39a1 1 0 0 0-.69-.29 1 1 0 0 0-.69.29l-1.42 1.43-1.6-2.27zm-27.07-12.7a17.36 17.36 0 1 1 33.09 7.34l-1-1.37a1.7 1.7 0 0 0-2.68 0l-3.56 5.05-7.15-10.2a1.45 1.45 0 0 0-.36-.34v-2.71h6.34a1 1 0 0 0 .79-1.56L36.43 21 38 18.91a1 1 0 0 0-.78-1.56h-7.33a1 1 0 0 0-1 1v9a1.33 1.33 0 0 0-.37.34l-7.08 10L18 32.82a1.7 1.7 0 0 0-2.68 0l-1.09 1.54a17.37 17.37 0 0 1-1.7-7.51zM10.57 43l2.1 2.1a1 1 0 0 0 1.38 0l2.64-2.63.85.85-4.63 6.57a1.65 1.65 0 0 0-.26.63H5.26L10.57 43zm36.56 7.52a1.63 1.63 0 0 0-.25-.63l-4.54-6.44 1-1L46 45.09a1 1 0 0 0 1.38 0l2.1-2.1 5.31 7.52-7.66.01z"/>
    </g>
</svg>
