<svg xmlns="http://www.w3.org/2000/svg" width="116" height="117" viewBox="0 0 116 117">
    <g fill="#FFF" fill-rule="nonzero" stroke="#FFF" stroke-width=".5">
        <path d="M62.358 108.386H12.177c-1.987 0-3.846-.386-5.512-1.157-3.396-1.608-5.447-4.5-6.088-8.422-.513-3.536.32-7.136 2.371-10.286l30.314-45.257V7.586l-2.435-5.4c-.193-.386-.129-.836.064-1.222.256-.385.64-.578 1.09-.578h21.79c.448 0 .832.193 1.089.578.256.386.256.836.128 1.222L52.552 7.97v35.55l13.459 19.415c.385.578.256 1.414-.32 1.8-.577.385-1.41.257-1.795-.322l-13.715-19.8c-.128-.193-.256-.45-.256-.707V7.65c0-.193.064-.321.128-.514l1.795-4.179H34.03l1.73 3.857c.064.193.129.322.129.515V43.65c0 .257-.065.514-.193.707L5.127 90c-1.73 2.571-2.435 5.593-1.987 8.421.449 3.022 2.051 5.208 4.615 6.493 1.281.579 2.755.9 4.422.9h50.181c.705 0 1.282.579 1.282 1.286 0 .707-.577 1.286-1.282 1.286z"/>
        <path d="M83.892 116.614c-17.496 0-31.724-13.5-31.724-30.021 0-13.693 9.677-25.586 23.584-29.057V30.15l-2.563-4.564a1.505 1.505 0 0 1 0-1.286c.192-.386.64-.643 1.09-.643l19.098-.064c.448 0 .897.257 1.09.643.256.385.256.9 0 1.285l-2.628 4.758V57.47c13.97 3.472 23.648 15.236 23.648 29.058.064 16.65-14.163 30.085-31.595 30.085zm-7.435-90.321l1.667 2.893c.128.193.192.385.192.643v28.735c0 .579-.385 1.093-.961 1.222l-.257.064C63.896 62.871 54.731 73.8 54.731 86.593c0 15.171 13.075 27.45 29.16 27.45 16.087 0 29.16-12.343 29.16-27.45 0-12.922-9.292-23.914-22.622-26.807-.577-.129-1.026-.643-1.026-1.222V29.957c0-.193.064-.45.128-.643l1.73-3.15-14.804.129z"/>
        <path d="M59.859 70.2H17.624a1.288 1.288 0 0 1-1.281-1.286c0-.707.576-1.285 1.281-1.285H59.86c.705 0 1.281.578 1.281 1.285S60.564 70.2 59.86 70.2zM113.885 82.414H54.027a1.288 1.288 0 0 1-1.282-1.285c0-.708.577-1.286 1.282-1.286h59.858c.705 0 1.282.578 1.282 1.286 0 .707-.577 1.285-1.282 1.285zM11.344 96.686a1.08 1.08 0 0 1-.641-.193c-.577-.386-.77-1.157-.449-1.736l10.639-17.486c.384-.578 1.153-.771 1.73-.45.577.386.77 1.158.449 1.736L12.433 96.043c-.256.45-.64.643-1.09.643zM76.97 103.5c-.128 0-.192 0-.32-.064-11.536-3.022-12.562-16.2-12.626-16.329-.064-.707.513-1.35 1.218-1.35.705-.064 1.346.514 1.346 1.222 0 0 .256 2.957 1.666 6.171 1.923 4.179 4.935 6.814 8.973 7.843.704.193 1.089.9.897 1.543-.064.578-.577.964-1.154.964z"/>
    </g>
</svg>
