<?xml version="1.0" encoding="UTF-8"?>
<svg width="53px" height="45px" viewBox="0 0 53 45" version="1.1" xmlns="http://www.w3.org/2000/svg" xmlns:xlink="http://www.w3.org/1999/xlink">
    <!-- Generator: sketchtool 51.2 (57519) - http://www.bohemiancoding.com/sketch -->
    <title>DB3AAA20-F579-4F58-B89D-E134820B2310</title>
    <desc>Created with sketchtool.</desc>
    <defs></defs>
    <g id="Examples----Core" stroke="none" stroke-width="1" fill="none" fill-rule="evenodd">
        <g id="Homepage-answers-module" transform="translate(-695.000000, -865.000000)">
            <g id="Comment" transform="translate(690.000000, 858.000000)">
                <rect id="Rectangle-path" x="0" y="0" width="60" height="60"></rect>
                <path d="M6.67,17.1 L6.67,43.42 C6.66998382,44.3549927 7.42502352,45.1145 8.36,45.12 L23.18,45.12 L23.18,50.42 L32.59,45.12 L47.41,45.12 C47.860868,45.12 48.2932697,44.9408934 48.6120815,44.6220815 C48.9308934,44.3032697 49.11,43.870868 49.11,43.42 L49.11,17.1 C49.11,16.649132 48.9308934,16.2167303 48.6120815,15.8979185 C48.2932697,15.5791066 47.860868,15.4 47.41,15.4 L8.41,15.4 C7.95224192,15.3892262 7.50949256,15.5635653 7.18197641,15.8835523 C6.85446027,16.2035394 6.66987323,16.6421152 6.67,17.1 Z" id="Shape" fill="#FFDEAD" fill-rule="nonzero"></path>
                <path d="M47.41,15.4 L8.41,15.4 C7.47502352,15.4055 6.71998382,16.1650073 6.72,17.1 L6.72,19.45 C6.71998382,18.5150073 7.47502352,17.7555 8.41,17.75 L47.41,17.75 C47.860868,17.75 48.2932697,17.9291066 48.6120815,18.2479185 C48.9308934,18.5667303 49.11,18.999132 49.11,19.45 L49.11,17.1 C49.11,16.649132 48.9308934,16.2167303 48.6120815,15.8979185 C48.2932697,15.5791066 47.860868,15.4 47.41,15.4 Z" id="Shape" fill="#FFF3DB" fill-rule="nonzero"></path>
                <path d="M32.59,45.12 L47.41,45.12 C47.860868,45.12 48.2932697,44.9408934 48.6120815,44.6220815 C48.9308934,44.3032697 49.11,43.870868 49.11,43.42 L49.11,21.26 C49.11,21.26 45.61,44.26 6.67,39.7 L6.67,43.42 C6.66998382,44.3549927 7.42502352,45.1145 8.36,45.12 L23.19,45.12 L23.19,50.42 L32.59,45.12 Z" id="Shape" fill="#F2C182" fill-rule="nonzero"></path>
                <polygon id="Shape" fill="#54CA63" fill-rule="nonzero" points="36.27 37.05 42.24 34.99 34.52 30.53"></polygon>
                <path d="M52.26,8.73 C51.4317522,8.24888778 50.445921,8.11768114 49.5206692,8.3654159 C48.5954174,8.61315067 47.8070387,9.21939931 47.33,10.05 L46.16,12.05 L52.41,15.66 L53.58,13.66 C54.5702898,11.9332472 53.9806178,9.73091137 52.26,8.73 Z" id="Shape" fill="#54CA63" fill-rule="nonzero"></path>
                <rect id="Rectangle-path" fill="#F7FBFF" fill-rule="nonzero" transform="translate(43.837224, 23.314552) rotate(30.000000) translate(-43.837224, -23.314552) " x="39.3822236" y="12.4145522" width="8.91" height="21.8"></rect>
                <path d="M45.42,11.65 L45.11,12.19 L48.58,14.19 C49.5346113,14.7429293 49.861234,15.9644087 49.31,16.92 L41.11,31.12 C40.8460976,31.5828794 40.408402,31.9213192 39.8940073,32.0602433 C39.3796126,32.1991674 38.8310475,32.12709 38.37,31.86 L34.91,29.86 L34.52,30.53 L39.72,33.53 L42.24,35 L53.14,16.1 L45.42,11.65 Z" id="Shape" fill="#D8E3F0" fill-rule="nonzero"></path>
                <polygon id="Shape" fill="#599ED4" fill-rule="nonzero" points="36.12 36.48 36.12 36.48 36.27 37.05 42.24 34.99 39.61 33.47"></polygon>
                <path d="M52.26,8.73 C52.2,8.73 52.13,8.68 52.07,8.64 C52.6012088,9.7032329 52.57503,10.9598137 52,12 L50.83,14 L46.51,11.51 L46.21,12.02 L52.46,15.63 L53.63,13.63 C54.5916925,11.8970284 53.9810293,9.71290453 52.26,8.73 Z" id="Shape" fill="#599ED4" fill-rule="nonzero"></path>
                <path d="M15.43,24.47 L28.8,24.47 C29.3522847,24.47 29.8,24.0222847 29.8,23.47 C29.8,22.9177153 29.3522847,22.47 28.8,22.47 L15.43,22.47 C14.8777153,22.47 14.43,22.9177153 14.43,23.47 C14.43,24.0222847 14.8777153,24.47 15.43,24.47 Z" id="Shape" fill="#3D3D63" fill-rule="nonzero"></path>
                <path d="M15.43,31.26 L28.8,31.26 C29.3522847,31.26 29.8,30.8122847 29.8,30.26 C29.8,29.7077153 29.3522847,29.26 28.8,29.26 L15.43,29.26 C14.8777153,29.26 14.43,29.7077153 14.43,30.26 C14.43,30.8122847 14.8777153,31.26 15.43,31.26 Z" id="Shape" fill="#3D3D63" fill-rule="nonzero"></path>
                <path d="M56.37,20.94 C57.8113641,18.4517136 57.2305613,15.2848543 55,13.47 C55.7294368,11.2315189 54.6549476,8.80306756 52.5077901,7.83736036 C50.3606326,6.87165316 47.8307987,7.67902137 46.64,9.71 L45.95,10.89 C45.4953237,10.7138326 44.9798793,10.8912807 44.73,11.31 L42.93,14.4 L8.21,14.4 C6.72110864,14.405484 5.515484,15.6111086 5.51,17.1 L5.51,43.42 C5.515484,44.9088914 6.72110864,46.114516 8.21,46.12 L22,46.12 L22,50.42 C21.998576,50.7786848 22.1893658,51.110659 22.5,51.29 C22.6524029,51.3763804 22.8248236,51.4212098 23,51.42 C23.1717883,51.4194743 23.3405443,51.3747023 23.49,51.29 L32.67,46.12 L47.26,46.12 C47.9760845,46.12 48.6628401,45.8355365 49.1691883,45.3291883 C49.6755365,44.8228401 49.96,44.1360845 49.96,43.42 L49.96,24.05 L54.17,16.76 C54.4031041,16.3349255 54.2977371,15.8038758 53.92,15.5 L54.02,15.31 C55.2528572,16.5340855 55.5073639,18.4346754 54.64,19.94 L51.53,25.32 C50.6089787,26.9162736 51.1549332,28.9568903 52.75,29.88 C53.2248504,30.1284017 53.8111063,29.9583237 54.0792932,29.4943602 C54.3474802,29.0303968 54.2022526,28.437496 53.75,28.15 C53.1095443,27.77982 52.8902124,26.9606823 53.26,26.32 L56.37,20.94 Z M48,43.42 C48,43.6056515 47.9262502,43.7836993 47.7949747,43.9149747 C47.6636993,44.0462502 47.4856515,44.12 47.3,44.12 L32.44,44.12 C32.2682117,44.1205257 32.0994557,44.1652977 31.95,44.25 L24,48.71 L24,45.12 C24,44.5677153 23.5522847,44.12 23,44.12 L8.21,44.12 C7.82564964,44.1146237 7.51537631,43.8043504 7.51,43.42 L7.51,17.1 C7.51537631,16.7156496 7.82564964,16.4053763 8.21,16.4 L41.77,16.4 L33.77,30.19 C33.6502636,30.4097517 33.6113405,30.6645211 33.66,30.91 L34.85,36.05 L15.43,36.05 C14.8777153,36.05 14.43,36.4977153 14.43,37.05 C14.43,37.6022847 14.8777153,38.05 15.43,38.05 L36.12,38.05 L36.25,38.05 C36.3132386,38.0548989 36.3767614,38.0548989 36.44,38.05 L42.69,36.14 C42.9296779,36.0667288 43.1331045,35.9061289 43.26,35.69 L48,27.51 L48,43.42 Z M36.88,35.78 L36.17,32.7 L39.91,34.86 L36.88,35.78 Z M42.03,33.78 L36.03,30.32 L46,13.17 L52,16.63 L42.03,33.78 Z M52.87,13.32 L52.2,14.47 L47.68,11.86 L48.35,10.71 C48.8088095,9.88772493 49.6749599,9.37633133 50.6165658,9.37177147 C51.5581717,9.36721161 52.4292344,9.8701925 52.8959861,10.6879854 C53.3627378,11.5057783 53.3528074,12.5115822 52.87,13.32 Z" id="Shape" fill="#3D3D63" fill-rule="nonzero"></path>
            </g>
        </g>
    </g>
</svg>