<svg xmlns="http://www.w3.org/2000/svg" width="15" height="15" viewBox="0 0 15 15">
  <path fill="#919EAB" d="M15,8.10810811 C15,6.89189189 14.1891892,5.87837838 13.1081081,5.47297297 C13.0405405,2.43243243 10.5405405,0 7.5,0 C4.45945946,0 1.95945946,2.43243243 1.89189189,5.47297297 C0.810810811,5.87837838 0,6.89189189 0,8.10810811 C0,9.45945946 0.945945946,10.5405405 2.09459459,10.8108108 C2.77027027,13.2432432 4.93243243,15 7.5,15 C10.0675676,15 12.2297297,13.2432432 12.9054054,10.8108108 C14.0540541,10.5405405 15,9.45945946 15,8.10810811 Z M11.8918919,5.33783784 L11.8243243,5.27027027 L11.9594595,5.33783784 L11.8918919,5.33783784 L11.8918919,5.33783784 Z M7.5,13.7162162 C5.06756757,13.7162162 3.10810811,11.6891892 3.10810811,9.25675676 C3.10810811,8.64864865 3.24324324,7.7027027 3.51351351,7.09459459 C3.51351351,7.02702703 3.58108108,6.95945946 3.64864865,6.82432432 C4.59459459,6.48648649 5.40540541,5.81081081 5.87837838,5 C7.02702703,6.35135135 8.71621622,7.2972973 10.6081081,7.2972973 L11.5540541,7.2972973 C11.6216216,7.7027027 11.7567568,8.17567568 11.8243243,8.71621622 C11.6216216,9.45945946 10.4054054,10.2027027 8.71621622,10.3378378 C8.64864865,10.1351351 8.44594595,10 8.24324324,10 L6.68918919,10 C6.41891892,10 6.28378378,10.2702703 6.28378378,10.472973 L6.28378378,11.4189189 C6.28378378,11.6891892 6.41891892,11.8918919 6.68918919,11.8918919 L8.24324324,11.8918919 C8.44594595,11.8918919 8.64864865,11.7567568 8.71621622,11.5540541 C9.7972973,11.5540541 10.8108108,11.2162162 11.5540541,10.7432432 C11.0135135,12.5 9.39189189,13.7162162 7.5,13.7162162 L7.5,13.7162162 Z"/>
</svg>
