<svg xmlns="http://www.w3.org/2000/svg" width="34" height="34" viewBox="0 0 34 34">
    <g fill="none" fill-rule="evenodd">
        <circle cx="17" cy="17" r="17" fill="#4CB337"/>
        <g fill="#FFF">
            <path d="M18.123 6.924l-.657 2.066.005.006c.059.046.112.099.157.159l.006.005 1.632-.517v2.408l-1.635-.857-.004.003a.845.845 0 0 1-.168.167l.938 2.832.003.01.002.003a1.523 1.523 0 0 1-1.234 1.953l-.033.006a1.394 1.394 0 0 1-.384 0l-.031-.006a1.524 1.524 0 0 1-1.235-1.953l.001-.003c0-.004.002-.007.004-.01l.938-2.832a.862.862 0 0 1-.169-.167l-.004-.003-1.634.857V8.643l1.633.517.004-.005a.83.83 0 0 1 .158-.16l.005-.005-.657-2.066h2.359zM24.002 10.02c.501.008.978.312 1.182.806a1.285 1.285 0 0 1-.695 1.677 1.29 1.29 0 1 1-.487-2.482zM9.874 10.02a1.294 1.294 0 0 1 1.204 1.785 1.292 1.292 0 0 1-1.69.698 1.285 1.285 0 0 1-.696-1.677c.204-.494.68-.798 1.182-.805zM20.736 11.052c.5.008.978.311 1.182.805a1.29 1.29 0 1 1-1.182-.805zM13.14 11.052c.167-.002.337.027.5.094.664.273.977 1.036.705 1.691a1.292 1.292 0 0 1-1.691.696 1.284 1.284 0 0 1-.695-1.676c.203-.494.68-.797 1.181-.805zM26.93 11.736c.5.008.978.311 1.181.805.271.654-.042 1.41-.695 1.677a1.292 1.292 0 1 1-.486-2.482zM6.948 11.736A1.294 1.294 0 0 1 8.15 13.52a1.291 1.291 0 0 1-1.69.697 1.286 1.286 0 0 1-.696-1.677 1.306 1.306 0 0 1 1.183-.805zM27.786 14.99c.501.008.978.31 1.182.805a1.285 1.285 0 0 1-.695 1.677 1.291 1.291 0 1 1-.487-2.483zM6.09 14.99a1.294 1.294 0 0 1 1.204 1.786 1.29 1.29 0 0 1-1.69.696 1.284 1.284 0 0 1-.695-1.677c.203-.494.68-.797 1.181-.806zM23.116 15.333c1.066 1.416.914 2.586-.405 3.902.86-.475 2.194.025 1.407 1.63-.411-.998-1.293-.773-1.477.085-.124.606.244 1.32 1.045 1.467.656.121 1.668-.329 2.48-2.075-.458.011-.856.242-1.375.6l.852-2.837c.215.797.488 1.317.779 1.6.195-.573.167-.988-.007-1.88l1.757.625c-.933 1.274-1.837 3.063-2.58 6.185-2.615-.374-5.55-.585-8.652-.585-3.101 0-6.038.21-8.654.586-.743-3.123-1.647-4.912-2.581-6.186l1.757-.626c-.174.893-.202 1.308-.006 1.881.29-.283.565-.803.78-1.6l.85 2.836c-.517-.357-.918-.588-1.375-.599.81 1.746 1.824 2.196 2.48 2.075.801-.147 1.17-.86 1.045-1.467-.184-.858-1.065-1.083-1.477-.084-.786-1.606.548-2.106 1.408-1.63-1.32-1.317-1.471-2.487-.406-3.903 1.485 1.135 1.502 2.258.834 3.839.867-.992 2.216-.46 1.729 1.142-.625-.967-1.454-.358-1.324.561.11.802 1.167 1.448 2.485 1.334 1.887-.172 2-1.473 2.047-2.552-.464-.085-1.3.344-2.012 1.345l-.262-3.008c.775.808 1.479.961 2.261.986-.26-.813-1.458-2.143-1.458-2.143h3.755s-1.197 1.33-1.458 2.143c.783-.025 1.487-.178 2.262-.986l-.263 3.008c-.713-1-1.547-1.43-2.011-1.345.046 1.079.16 2.38 2.047 2.552 1.317.114 2.374-.532 2.483-1.334.13-.919-.697-1.528-1.322-.56-.487-1.603.863-2.135 1.729-1.143-.668-1.581-.651-2.704.834-3.84z"/>
        </g>
    </g>
</svg>
