<svg height="54" viewBox="0 0 60 54" width="60" xmlns="http://www.w3.org/2000/svg"><g fill="none" fill-rule="evenodd"><path d="m29 54c0-3.8659932-3.1340068-7-7-7s-7 3.1340068-7 7z" fill="#65ddcf"/><path d="m41 54c0-3.8659932-3.1340068-7-7-7s-7 3.1340068-7 7z" fill="#65ddcf"/><path d="m57 54c0-3.8659932-3.1340068-7-7-7s-7 3.1340068-7 7z" fill="#12b4a6"/><path d="m46 54c0-2.7614237-2.2385763-5-5-5s-5 2.2385763-5 5z" fill="#65ddcf"/><path d="m31 54c0-2.7614237-2.2385763-5-5-5s-5 2.2385763-5 5z" fill="#12b4a6"/><path d="m53 41v12" stroke="#9c4d4d" stroke-linecap="square" stroke-width="2"/><path d="m53 42c3.8659932 0 7-2.1146465 7-14.4375s-3.1340068-27.5625-7-27.5625-7 15.2396465-7 27.5625 3.1340068 14.4375 7 14.4375z" fill="#12b4a6"/><path d="m18 53v-31" stroke="#9c4d4d" stroke-linecap="square" stroke-width="2"/><g fill="#bd7575"><path d="m19 25h13l4 4-4 4h-13z"/><path d="m0 33h13l4 4-4 4h-13z" transform="matrix(-1 0 0 1 17 0)"/></g></g></svg>