<svg xmlns="http://www.w3.org/2000/svg" width="78" height="116" viewBox="0 0 78 116">
    <g fill="#FFF" fill-rule="nonzero">
        <path d="M76.602 3.375c-.385-.32-.835-.383-1.348-.32l-13.667 3.45v-4.28c0-.511-.257-.958-.642-1.278-.385-.32-.962-.383-1.412-.255L2.297 15.194A1.604 1.604 0 0 0 .82 16.792v93.66c0 .32.128.64.32.96.129.382.45.702.835.83l1.989.958c3.016 1.47 6.224 2.172 9.497 2.172 1.283 0 2.502-.128 3.785-.32l.642-.127c.064 0 .128 0 .193-.064l58.006-16.93a1.573 1.573 0 0 0 1.155-1.534V4.653c-.064-.447-.256-.959-.641-1.278zm-18.224.958V7.4L17.44 17.622c-.128 0-.32.064-.45.064a17.94 17.94 0 0 1-9.367-.575L58.377 4.333zM5.377 110.261s-.064 0 0 0l-1.348-.639v-6.26l5.39 1.085h.321c.77 0 1.412-.51 1.604-1.278a1.52 1.52 0 0 0-1.283-1.852l-5.903-1.15h-.129v-8.753L9.42 92.5h.321c.77 0 1.412-.511 1.604-1.278a1.52 1.52 0 0 0-1.283-1.853l-5.903-1.15h-.129v-8.752l5.39 1.086h.321c.77 0 1.412-.511 1.604-1.278a1.52 1.52 0 0 0-1.283-1.853l-5.903-1.15h-.129V67.52l5.39 1.087h.321c.77 0 1.412-.512 1.604-1.278a1.52 1.52 0 0 0-1.283-1.853l-5.903-1.15h-.129v-9.008l5.39 1.086h.321c.77 0 1.412-.511 1.604-1.278a1.52 1.52 0 0 0-1.283-1.853l-5.903-1.15h-.129v-8.816l5.39 1.086h.321c.77 0 1.412-.511 1.604-1.278a1.52 1.52 0 0 0-1.283-1.853l-5.903-1.15h-.129v-8.817l5.39 1.087h.321c.77 0 1.412-.512 1.604-1.278a1.52 1.52 0 0 0-1.283-1.853L4.158 28.1h-.129v-8.944l.642.255c3.593 1.533 7.443 2.108 11.229 1.661v90.914a17.677 17.677 0 0 1-10.523-1.725zM73.97 95.183L19.172 111.22V20.433L73.971 6.697v88.486z"/>
        <path d="M29.696 48.736c.256.192.706.32 1.026.32.129 0 .257 0 .386-.064l33.623-8.434c.706-.191 1.219-.83 1.219-1.533V26.822c0-.51-.257-.958-.642-1.278-.385-.319-.898-.383-1.411-.319l-33.624 8.497c-.706.192-1.283.83-1.283 1.534v12.202c.064.511.32.959.706 1.278zm2.566-12.267l30.48-7.602v8.88l-30.48 7.667v-8.945zM45.994 57.233c.834-.191 1.412-1.086 1.155-1.916-.192-.83-1.09-1.406-1.925-1.15L31.236 57.68c-.834.191-1.412 1.086-1.155 1.916.192.703.834 1.214 1.54 1.214.128 0 .257 0 .385-.064l13.988-3.514zM53.694 55.253c.128 0 .257 0 .385-.064l8.406-2.108c.834-.192 1.412-1.087 1.155-1.917-.193-.83-1.09-1.406-1.925-1.15l-8.406 2.108c-.834.192-1.411 1.086-1.155 1.917a1.565 1.565 0 0 0 1.54 1.214zM39.064 65.603l-5.903 1.47c-.834.19-1.412 1.085-1.155 1.916.192.703.834 1.214 1.54 1.214.128 0 .257 0 .385-.064l5.903-1.47c.834-.191 1.412-1.086 1.155-1.916-.192-.83-1.09-1.342-1.925-1.15zM61.715 59.917l-14.758 3.897a1.676 1.676 0 0 0-1.155 1.98c.192.703.834 1.214 1.54 1.214.128 0 .256 0 .385-.064l14.758-3.897a1.676 1.676 0 0 0 1.155-1.98c-.193-.83-1.09-1.342-1.925-1.15z"/>
    </g>
</svg>
