<?xml version="1.0" encoding="UTF-8"?>
<svg width="78px" height="59px" viewBox="0 0 78 59" version="1.1" xmlns="http://www.w3.org/2000/svg" xmlns:xlink="http://www.w3.org/1999/xlink">
    <!-- Generator: sketchtool 41.2 (35397) - http://www.bohemiancoding.com/sketch -->
    <title>22242910-297F-4CC8-A057-3EC6E1D93748</title>
    <desc>Created with sketchtool.</desc>
    <defs></defs>
    <g id="Page-1" stroke="none" stroke-width="1" fill="none" fill-rule="evenodd">
        <g id="contact-us-desktop-large" transform="translate(-1072.000000, -396.000000)">
            <g id="envelope" transform="translate(1072.000000, 396.000000)">
                <g id="Capa_1">
                    <g id="Group">
                        <path d="M68.3789256,0.119918699 L9.52438017,0.119918699 C4.27066116,0.119918699 0,4.35704607 0,9.5695122 L0,49.4784553 C0,54.6909214 4.27066116,58.9280488 9.52438017,58.9280488 L68.3628099,58.9280488 C73.6165289,58.9280488 77.8871901,54.6909214 77.8871901,49.4784553 L77.8871901,9.58550136 C77.9033058,4.37303523 73.6326446,0.119918699 68.3789256,0.119918699 Z M73.5520661,49.4784553 C73.5520661,52.3085366 71.231405,54.6109756 68.3789256,54.6109756 L9.52438017,54.6109756 C6.67190083,54.6109756 4.35123967,52.3085366 4.35123967,49.4784553 L4.35123967,9.58550136 C4.35123967,6.75542005 6.67190083,4.45298103 9.52438017,4.45298103 L68.3628099,4.45298103 C71.2152893,4.45298103 73.5359504,6.75542005 73.5359504,9.58550136 L73.5359504,49.4784553 L73.5520661,49.4784553 Z" id="Shape" fill="#6F7C82"></path>
                        <path d="M49.1206612,29.0283198 L68.1694215,12.0798103 C69.0557851,11.2803523 69.1363636,9.92127371 68.3305785,9.02588076 C67.5247934,8.14647696 66.1549587,8.06653117 65.2524793,8.86598916 L38.9838843,32.2581301 L33.8590909,27.7172087 C33.8429752,27.7012195 33.8268595,27.6852304 33.8268595,27.6692412 C33.7140496,27.5573171 33.6012397,27.4613821 33.472314,27.3654472 L12.618595,8.85 C11.7161157,8.05054201 10.346281,8.1304878 9.54049587,9.02588076 C8.73471074,9.92127371 8.81528926,11.2803523 9.7177686,12.0798103 L28.9921488,29.1722222 L9.79834711,47.0001355 C8.92809917,47.8155827 8.87975207,49.1746612 9.70165289,50.054065 C10.1367769,50.5017615 10.7169421,50.7415989 11.2971074,50.7415989 C11.8289256,50.7415989 12.3607438,50.549729 12.7797521,50.1659892 L32.2636364,32.0822493 L37.5495868,36.7670732 C37.968595,37.1348238 38.4842975,37.3107046 39,37.3107046 C39.5157025,37.3107046 40.0475207,37.1188347 40.4504132,36.751084 L45.881405,31.9223577 L65.2524793,50.1819783 C65.6714876,50.5817073 66.2194215,50.7735772 66.7512397,50.7735772 C67.331405,50.7735772 67.8954545,50.549729 68.3305785,50.1020325 C69.1524793,49.2386179 69.1202479,47.8635501 68.25,47.048103 L49.1206612,29.0283198 Z" id="Shape" fill="#2091EB"></path>
                    </g>
                </g>
            </g>
        </g>
    </g>
</svg>