<svg xmlns="http://www.w3.org/2000/svg" width="51" height="31" viewBox="0 0 51 31">
    <path fill="#FFF" fill-rule="nonzero" d="M50.34 13.66a4.247 4.247 0 0 1-.492-.622c-4.015-4.415-8.585-7.77-13.527-10.072-6.92-3.172-13.962-3.293-20.82-.311-5.25 2.239-10.009 5.72-14.39 10.504-1.481 1.554-1.481 3.108 0 4.725 3.397 3.793 7.413 6.9 11.983 9.324 1.67.869 3.334 1.617 5.004 2.112 2.471.748 5.005 1.18 7.596 1.18.618 0 1.235 0 1.853-.063 1.11-.127 2.345-.248 3.523-.559 7.041-1.801 13.407-5.841 19.333-12.432.806-1.116.806-2.607-.063-3.787zm-1.79 2.238c-5.623 6.216-11.554 10.072-18.16 11.747-1.053.248-2.225.374-3.215.495a23.493 23.493 0 0 1-8.522-.995c-1.544-.495-3.089-1.117-4.57-1.992-4.324-2.302-8.156-5.283-11.365-8.886-.68-.749-.68-.933 0-1.618 4.198-4.535 8.648-7.833 13.59-9.945 3.026-1.307 6.114-1.992 9.14-1.992 3.272 0 6.549.748 9.82 2.302 4.696 2.176 9.02 5.41 12.847 9.572.126.127.246.31.372.437.251.317.309.628.063.875zm-23.228-8.95c-4.759 0-8.648 3.914-8.648 8.703 0 4.788 3.89 8.702 8.648 8.702 4.759 0 8.648-3.914 8.648-8.702.063-4.789-3.826-8.703-8.648-8.703zm0 15.166c-3.523 0-6.36-2.86-6.36-6.4 0-3.54 2.843-6.406 6.36-6.406 3.518 0 6.36 2.86 6.36 6.4.07 3.482-2.837 6.406-6.36 6.406z"/>
</svg>
