<?xml version="1.0" encoding="UTF-8"?>
<svg width="40px" height="40px" viewBox="0 0 40 40" version="1.1" xmlns="http://www.w3.org/2000/svg" xmlns:xlink="http://www.w3.org/1999/xlink">
    <!-- Generator: Sketch 42 (36781) - http://www.bohemiancoding.com/sketch -->
    <title>facebook_icon</title>
    <desc>Created with Sketch.</desc>
    <defs></defs>
    <g id="Impact-case-study-page" stroke="none" stroke-width="1" fill="none" fill-rule="evenodd">
        <g id="Impact-case-study-page-no-hero-image" transform="translate(-96.000000, -243.000000)">
            <g id="Group-37" transform="translate(96.000000, 243.000000)">
                <g id="facebook_icon">
                    <path d="M20.002634,0 C8.95561702,0 0,8.95561702 0,20.002634 C0,31.044383 8.95561702,40 20.002634,40 C31.044383,40 40,31.044383 40,20.002634 C40,8.95561702 31.044383,0 20.002634,0 L20.002634,0 Z" id="Facebook" fill="#4160A3"></path>
                    <path d="M21.6117647,29.9897177 L21.6117647,20.9638353 L24.6741177,20.9638353 L25.1383059,17.0956 L21.6117647,17.0956 L21.6117647,15.0841176 C21.6117647,14.0525882 21.8889882,13.2273647 23.3718118,13.2273647 L25.48,13.2273647 L25.48,10.1521176 C24.8352941,10.1069882 23.836,10.0102823 22.5272471,10.0102823 C19.8065882,10.0102823 17.7435294,11.6736235 17.7435294,14.7295294 L17.7435294,17.0956 L14.52,17.0956 L14.52,20.9638353 L17.7435294,20.9638353 L17.7435294,29.9897177 L21.6117647,29.9897177 Z" id="Path" fill="#FFFFFF"></path>
                </g>
            </g>
        </g>
    </g>
</svg>