<svg xmlns="http://www.w3.org/2000/svg" width="51" height="40" viewBox="0 0 51 40">
    <g fill="none" fill-rule="evenodd" transform="translate(-6 -13)">
        <path d="M0 0v60h60V0z"/>
        <path fill="#FFF6E6" fill-rule="nonzero" d="M7.33 51.85h9.27V26.83l-9.26 5.45zM55.72 13.82a1 1 0 0 0-1.09.22l-6.78 6.77a1 1 0 0 0-.29.71v30.33h8.77v-37.1a1 1 0 0 0-.61-.93z"/>
        <path fill="#96DDFF" fill-rule="nonzero" d="M48.56 22.28v29.57H32.58V25.9l7.99 3.61 7.23-7.23z"/>
        <path fill="#C7ECFF" fill-rule="nonzero" d="M47.8 22.28l-7.23 7.23-7.99-3.61v2l7.99 3.61 7.23-7.23h.76v-2z"/>
        <path fill="#69BAF9" fill-rule="nonzero" d="M40.57 45.26l-7.99-3.61v10.2h15.98V38.03h-.76z"/>
        <path fill="#F6716F" fill-rule="nonzero" d="M32.58 25.9v25.95H16.6V26.83l7.48-4.78z"/>
        <path fill="#F6A2A2" fill-rule="nonzero" d="M24.08 22.05l-7.48 4.78v2l7.48-4.78 8.5 3.85v-2z"/>
        <path fill="#F0504D" fill-rule="nonzero" d="M16.6 43.44v8.41h15.98v-9.34l-8.5-3.85z"/>
        <circle cx="24.08" cy="22.05" r="3.51" fill="#EDF4FF" fill-rule="nonzero"/>
        <circle cx="40.57" cy="29.56" r="3.51" fill="#EDF4FF" fill-rule="nonzero"/>
        <path fill="#3D3D63" fill-rule="nonzero" d="M55.33 21.29a1 1 0 0 0 1-1v-5.54a1 1 0 0 0-1-1h-5.54a1 1 0 0 0 0 2h3.13l-5.07 5.08L43 25.74a4.46 4.46 0 0 0-6 1.09L33.06 25a1 1 0 0 0-.18-.08L28.5 23a4.52 4.52 0 1 0-8.68.52l-11.49 7V19.7l.45.44a1 1 0 1 0 1.41-1.41L8 16.58a1 1 0 0 0-1-.22 1 1 0 0 0-.62.93v34.56a1 1 0 0 0 1 1h48a1 1 0 0 0 .62-1.71L53.89 49a1.004 1.004 0 1 0-1.42 1.42l.45.44h-3.36V22l4.77-4.78v3.12a1 1 0 0 0 1 .95zM40.57 27a2.52 2.52 0 1 1 0 5.04 2.52 2.52 0 0 1 0-5.04zm-16.49-7.5a2.51 2.51 0 1 1-2.51 2.51 2.51 2.51 0 0 1 2.51-2.47v-.04zm-1 6.9v3.69a1 1 0 0 0 2 0v-3.65a4.48 4.48 0 0 0 2.57-1.66l3.92 1.78v24.29h-6.49v-3.34a1 1 0 0 0-2 0v3.34H17.6V27.18l3.25-2a4.49 4.49 0 0 0 2.23 1.26v-.04zM8.33 32.85l7.27-4.44v22.44H8.33v-18zm39.23 18h-6v-3.34a1 1 0 0 0-2 0v3.34h-6V27.47l2.58 1.17A4.52 4.52 0 0 0 39.57 34v3.69a1 1 0 0 0 2 0V34a4.49 4.49 0 0 0 2.8-6.8l3.19-3.2v26.85z"/>
        <path fill="#3D3D63" fill-rule="nonzero" d="M24.08 42.72a1 1 0 0 0 1-1v-5.8a1 1 0 0 0-2 0v5.8a1 1 0 0 0 1 1z"/>
    </g>
</svg>
