<svg xmlns="http://www.w3.org/2000/svg" width="81" height="111" viewBox="0 0 81 111">
    <g fill="none" fill-rule="evenodd" stroke="#FFF" stroke-width="2.954">
        <path d="M55.119 48.642c0 2.416-1.526 5.34-3.433 5.34H29.314c-1.907 0-3.433-2.924-3.433-5.34H55.12zM66.623 80.37c0 2.416-1.526 5.532-3.432 5.532H17.809c-1.906 0-3.432-3.116-3.432-5.532h52.246zM49.462 12.08c0-2.415-1.526-4.386-3.432-4.386H34.97c-1.906 0-3.432 1.97-3.432 4.387h17.924z"/>
        <g>
            <path d="M27.979 58.116c-2.098 8.138-4.767 14.687-7.818 21.872m40.487-.445c-2.987-6.994-5.53-13.416-7.627-21.427M18.127 85.647c-4.195 8.966-9.152 16.914-14.682 23.78h19.513c3.241-9.41 8.072-15.577 17.67-15.577 9.597 0 15 6.23 17.732 15.578h19.195c-5.657-6.93-10.678-15.133-14.936-24.29m-29.81-4.832l2.797-11.572h10.233l2.288 11.572M51.56 48.578c-2.289-10.046-3.75-15.324-4.386-26.387H33.763c-.636 11.063-2.098 16.34-4.386 26.387M46.983 18.249a85.89 85.89 0 0 1 0-5.723M34.017 12.526a85.89 85.89 0 0 1 0 5.723M40.436 0v7.63"/>
        </g>
    </g>
</svg>
