<svg xmlns="http://www.w3.org/2000/svg" width="86" height="111" viewBox="0 0 86 111">
    <g fill="#FFF" fill-rule="nonzero">
        <path d="M82.624 29.09C78.547 17.926 70.584 8.867 60.009 3.509l.51-1.085c.318-.702 0-1.467-.638-1.786-.7-.319-1.465 0-1.783.638l-3.25 7.017c-4.904-2.105-10.064-3.126-15.352-3.126A39.254 39.254 0 0 0 18.73 11.1c-6.434 3.955-11.53 9.697-14.78 16.586a40.181 40.181 0 0 0-2.675 7.464c0 .064-.064.128-.064.191-2.357 9.697-.891 19.776 3.695 28.26l.191.383a39.61 39.61 0 0 0 16.372 15.821l-3.631 7.464c-.318.702 0 1.467.637 1.786.191.064.382.128.573.128.51 0 1.02-.32 1.21-.766l.51-1.084A47.085 47.085 0 0 0 37.84 91.16v8.804h-2.293c-4.97 0-8.983 4.146-8.983 9.058 0 .766.637 1.468 1.338 1.468h29.431c.765 0 1.338-.702 1.338-1.404v-.191c-.064-4.912-4.077-8.931-8.982-8.931h-2.293v-9.505c2.548-.447 5.032-1.149 7.453-2.042 11.594-4.21 20.895-12.695 26.118-23.858 5.288-11.228 5.861-23.795 1.657-35.47zM43.574 8.166c3.949.446 7.835 1.594 11.53 3.317 5.478 2.615 10.001 6.38 13.377 10.908-.19.192-.382.256-.573.256-1.529.255-4.332-1.85-5.86-3.445l-.064-.064c-1.02-.893-6.116-5.422-9.428-4.848-1.02.191-1.784.765-2.294 1.658-.19.32-.446.51-.828.574-3.886.638-7.772-2.551-9.11-3.7.255-1.084.892-3.636 3.25-4.656zM3.44 37.128c1.21.319 3.185 1.02 4.46 2.551 1.019 1.276 1.4 2.935 1.146 4.976-.064.51-.255 1.02-.573 1.595-1.53 2.743-1.402 6.826.382 8.867a2.358 2.358 0 0 1 0 3.19c-.828.957-1.656 1.786-2.42 2.552-3.505-7.273-4.651-15.63-2.995-23.731zm4.396 26.219c.955-.894 1.974-1.978 3.057-3.19a5.09 5.09 0 0 0 0-6.826c-.892-1.02-1.083-3.891-.063-5.678.446-.829.764-1.658.891-2.551.383-2.807-.19-5.168-1.72-7.081-1.72-2.233-4.268-3.126-5.86-3.573a45.94 45.94 0 0 1 2.102-5.614C12.295 16.14 25.29 7.91 39.369 7.91h.191c-1.784 2.36-1.975 5.295-1.975 5.487 0 .382.128.701.382 1.02.255.255 5.797 5.933 11.913 4.912 1.21-.191 2.23-.957 2.803-2.041.127-.191.191-.255.318-.255 1.466-.255 5.097 2.296 7.135 4.146.574.574 4.268 4.274 7.581 4.274.191 0 .446 0 .637-.063.51-.064 1.083-.256 1.72-.702 2.293 3.572 4.013 7.591 4.969 11.738-2.484 1.34-8.6 5.167-8.027 10.398.319 2.68-1.019 3.764-3.249 5.231-1.083.766-2.23 1.531-2.994 2.68-.955 1.403-1.146 3.253-.637 5.23.51 1.85 2.166 5.232 7.39 8.166-6.88 8.293-17.264 13.333-28.285 13.333-5.478 0-10.765-1.212-15.734-3.573-6.753-3.38-12.104-8.484-15.671-14.544zm64.595-2.935a32.714 32.714 0 0 1-3.185 5.422c-3.44-1.85-5.733-4.274-6.434-6.698-.319-1.148-.255-2.233.255-2.998.446-.702 1.337-1.276 2.23-1.914 2.038-1.403 4.904-3.317 4.395-7.783-.319-2.998 3.312-5.805 5.86-7.336 1.084 7.081.192 14.417-3.12 21.307zm-16.627 47.335h-26.31c.638-2.935 3.122-5.04 6.116-5.04H49.69c2.994-.064 5.478 2.105 6.115 5.04zM44.72 99.964h-4.077V91.16c1.338-.063 2.74-.127 4.077-.319v9.123zm33.827-36.617c-4.906 10.525-13.633 18.5-24.59 22.455-4.65 1.722-9.492 2.551-14.333 2.615-.128-.064-.255-.064-.383-.064-.127 0-.254 0-.382.064-5.733-.064-11.466-1.212-16.881-3.572l1.847-3.955a39.1 39.1 0 0 0 15.48 3.19 39.254 39.254 0 0 0 20.768-5.933 38.204 38.204 0 0 0 10.574-9.633c.064-.064.128-.128.128-.192a38.125 38.125 0 0 0 4.077-6.762c3.758-7.974 4.65-16.522 3.058-24.56 0-.128-.064-.319-.064-.447-1.083-5.294-3.249-10.398-6.434-14.863-.064-.128-.128-.192-.191-.32-3.568-4.911-8.282-8.994-13.951-11.929l1.592-3.444c9.938 5.04 17.391 13.524 21.214 23.986 3.95 10.972 3.376 22.838-1.53 33.364z"/>
        <path d="M26.756 54.67l-.128.383c-1.975 4.657-3.376 8.038-1.529 15.438.574 2.17 2.485 3.509 5.16 3.509 4.905 0 11.658-4.274 14.525-11.291 2.484-6.188 6.179-7.72 9.428-9.059 2.74-1.148 5.606-2.297 6.37-6.188 1.402-7.017-2.612-8.357-5.86-9.441-2.358-.766-4.587-1.531-5.734-4.083-.191-.447-.382-.83-.573-1.212-2.039-4.466-3.95-8.676-8.791-8.676-.765 0-1.53.128-2.421.319-.127.064-.255.064-.382.191-.128.064-3.25 2.106-6.434 4.976-4.46 4.02-6.69 7.72-6.69 10.909 0 3.38 1.147 5.869 2.103 8.102 1.02 2.36 1.784 4.082.956 6.124zm11.339-27.686a7.13 7.13 0 0 1 1.529-.19c2.93 0 4.204 2.423 6.306 7.08.191.383.383.83.574 1.212 1.656 3.636 4.841 4.657 7.326 5.55 3.185 1.085 4.969 1.659 4.013 6.316-.446 2.296-1.847 2.998-4.714 4.21-3.376 1.404-8.027 3.317-10.957 10.59-2.612 6.507-8.728 9.569-11.976 9.569-1.402 0-2.23-.51-2.485-1.468-1.656-6.506-.51-9.25 1.338-13.715l.127-.319c1.338-3.126.191-5.741-.955-8.293-.892-2.042-1.848-4.21-1.848-7.017 0-4.849 8.282-11.292 11.722-13.525z"/>
    </g>
</svg>
