<?xml version="1.0" encoding="UTF-8"?>
<svg width="101px" height="99px" viewBox="0 0 101 99" version="1.1" xmlns="http://www.w3.org/2000/svg" xmlns:xlink="http://www.w3.org/1999/xlink">
    <!-- Generator: Sketch 43.1 (39012) - http://www.bohemiancoding.com/sketch -->
    <title>002-building</title>
    <desc>Created with Sketch.</desc>
    <defs></defs>
    <g id="tutor-resources" stroke="none" stroke-width="1" fill="none" fill-rule="evenodd">
        <g id="tutor-resources-schools" transform="translate(-670.000000, -1473.000000)" fill-rule="nonzero" fill="#FFFFFF">
            <g id="002-building" transform="translate(670.000000, 1473.000000)">
                <path d="M99.4414272,33.0830332 L51.3290565,1.14935112 C50.8286013,0.81693223 50.1720439,0.81693223 49.6713267,1.14972766 L1.55840143,33.083087 C0.878844616,33.5339347 0.696550541,34.4426412 1.14902193,35.1164164 C1.60398034,35.7954035 2.5324744,35.9798132 3.21572321,35.526368 L6.32652946,33.4541238 L6.32652946,96.6288999 C6.32652946,97.4391305 6.99069048,98.1 7.81444453,98.1 L93.1792228,98.1 C94.003749,98.1 94.6681783,97.4390504 94.6681783,96.6288999 L94.6681783,33.4509497 L97.6214338,35.4179664 C98.0313235,35.6902201 98.3154996,35.7744977 98.6080715,35.7744977 C99.1075552,35.7744977 99.5718685,35.5329304 99.8519783,35.1147909 C100.303461,34.4424898 100.121272,33.5341221 99.4414272,33.0830332 Z M26.8827854,79.2497478 L9.30270641,93.4996045 L9.30270641,64.998454 L26.8827854,79.2497478 Z M46.3597795,95.1584899 L11.9703658,95.1584899 L29.2108541,81.1546846 L46.3597795,95.1584899 Z M31.5615943,79.2497475 L49.0096122,64.9753258 L49.0096122,93.5227299 L31.5615943,79.2497475 Z M69.6634155,79.249748 L51.986136,93.4828889 L51.986136,65.0151718 L69.6634155,79.249748 Z M89.1288958,95.1588349 L54.7387178,95.1588349 L71.9803432,81.1554237 L89.1288958,95.1588349 Z M91.6923482,64.9577188 L91.6923482,93.5403347 L74.3430389,79.2497473 L91.6923482,64.9577188 Z M54.9501554,63.4343547 L89.1118286,63.4343547 L71.9860796,77.3434915 L54.9501554,63.4343547 Z M12.1822485,63.4343547 L46.3434529,63.4343547 L29.2161721,77.3435061 L12.1822485,63.4343547 Z M9.30270641,60.4921546 L9.30270641,31.4858369 L50.5003133,4.14302311 L91.6923482,31.4827443 L91.6923482,60.4921546 L9.30270641,60.4921546 Z" id="Shape"></path>
                <path d="M35.7101852,30.9793605 L35.7101852,47.0580279 C35.7101852,47.8860892 36.3730867,48.5528302 37.1858086,48.5528302 L63.8141914,48.5528302 C64.6265214,48.5528302 65.2898148,47.8857894 65.2898148,47.0580279 L65.2898148,30.9793605 C65.2898148,30.1517251 64.6266478,29.4849057 63.8141914,29.4849057 L37.1858086,29.4849057 C36.3728107,29.4849057 35.7101852,30.1512277 35.7101852,30.9793605 Z M62.3389134,32.4734679 L62.3389134,45.5628782 L38.6607411,45.5628782 L38.6607411,32.4734679 L62.3389134,32.4734679 Z" id="Shape"></path>
            </g>
        </g>
    </g>
</svg>