<svg height="48" viewBox="0 0 160 48" width="160" xmlns="http://www.w3.org/2000/svg"><g fill="none" fill-rule="evenodd"><path d="m0 0h160v48h-160z" fill="none"/><g fill="#4c5157" transform="translate(21 12)"><path d="m26.7624617 9.85001539v-.65376208c1.2021176-.0290561 1.4338511-.17433656 1.4338511-.624706v-7.58364016h-.1158668c-1.0572841 0-1.6800679 1.03149129-2.4042352 2.76032879l-.7531339-.02905609.0724167-3.42861892h9.0231237l.0724168 3.42861892-.753134.02905609c-.7096838-1.78694969-1.346951-2.76032879-2.4042352-2.76032879h-.1158667v7.58364016c0 .45036944.2317335.5956499 1.4338511.624706v.65376208zm8.3424065 0v-.65376208c1.0717675-.04358414 1.2166009-.17433656 1.2166009-.624706v-7.00251831c0-.45036944-.1448334-.58112185-1.2166009-.62470599v-.65376208h4.9677872v.65376208c-.7096839.04358414-1.1297009.14528046-1.1297009.62470599v2.9491934h3.1718525v-2.9491934c0-.47942553-.420017-.58112185-1.1297009-.62470599v-.65376208h4.9677872v.65376208c-1.0717675.04358414-1.2166009.17433655-1.2166009.62470599v7.00251831c0 .45036944.1448334.58112186 1.2166009.624706v.65376208h-4.9677872v-.65376208c.7096839-.04358414 1.1297009-.14528047 1.1297009-.624706v-3.31239455h-3.1718525v3.31239455c0 .47942553.420017.58112186 1.1297009.624706v.65376208zm11.6880591 0v-.65376208c1.0717675-.04358414 1.2166009-.17433656 1.2166009-.624706v-7.00251831c0-.45036944-.1448334-.58112185-1.2166009-.62470599v-.65376208h8.4582732l.1303501 3.42861892-.7821006.02905609c-.5648504-1.64166923-1.1152175-2.76032879-2.8821855-2.76032879h-1.0862509v3.69012376h.2172502c.926934 0 1.2455676-.13075242 1.7524847-1.42374854h.6517505v3.58842744h-.6517505c-.5069171-1.29299612-.8255507-1.46733268-1.7524847-1.46733268h-.2172502v3.76276399h.9414174c2.1145683 0 2.6939021-1.14771566 3.360136-3.00730558l.7821006.02905609-.1448335 3.69012376zm18.0462474.23244871c-3.027019 0-4.8808872-1.90317404-4.8808872-4.98311985 0-3.06541777 2.100085-5.04123206 5.1850374-5.04123206 1.0862509 0 1.9407682.24697678 2.4187186.46489748l.3910503-.52300967h.7386506v3.45767502h-.7821007c-.6227838-1.569029-1.4773011-2.67316052-2.8532188-2.67316052-1.3179844 0-2.2883685 1.17677175-2.2883685 4.28577366 0 3.12352995.9414174 4.28577365 2.4042352 4.28577365.4779504 0 .9124507-.08716827 1.2455676-.33414506v-2.58599224c0-.45036944-.3910503-.61017795-1.5207511-.65376208v-.65376209h4.9677872v.65376209c-.7096839.04358413-.9848675.14528046-.9848675.62470599v2.64410442c-.8255506.45036944-2.143535 1.03149126-4.0408531 1.03149126zm10.5149082 0c-3.0270191 0-4.8808872-1.90317404-4.8808872-4.98311985 0-3.06541777 1.9262849-5.04123206 4.8808872-5.04123206 3.027019 0 4.8808871 1.91770211 4.8808871 4.98311987 0 3.07994582-1.9262848 5.04123204-4.8808871 5.04123204zm.0579334-.72640229c1.5352345 0 2.0131849-1.1622437 2.0131849-4.28577365 0-3.10900191-.5938172-4.28577366-2.1290517-4.28577366s-2.0131849 1.17677175-2.0131849 4.28577366c0 3.12352995.5938171 4.28577365 2.1290517 4.28577365zm10.717675.72640229c-3.0270191 0-4.8808872-1.90317404-4.8808872-4.98311985 0-3.06541777 1.9262849-5.04123206 4.8808872-5.04123206 3.027019 0 4.8808871 1.91770211 4.8808871 4.98311987 0 3.07994582-1.9262848 5.04123204-4.8808871 5.04123204zm.0579333-.72640229c1.5352346 0 2.0131849-1.1622437 2.0131849-4.28577365 0-3.10900191-.5938171-4.28577366-2.1290516-4.28577366s-2.0131849 1.17677175-2.0131849 4.28577366c0 3.12352995.5938171 4.28577365 2.1290516 4.28577365zm5.7498879.49395358v-.65376208c1.0717675-.04358414 1.2166009-.17433656 1.2166009-.624706v-7.00251831c0-.45036944-.1448334-.58112185-1.2166009-.62470599v-.65376208h4.7215703c3.5629032 0 5.2140042 1.84506188 5.2140042 4.59086263 0 2.64410442-1.289018 4.96859183-4.9388206 4.96859183zm3.8380863-.69734622h.7676172c1.8393848 0 2.5780354-.8135706 2.5780354-4.08238101 0-3.25428237-.9414174-4.08238101-2.7083855-4.08238101h-.6372671z"/><path d="m0 24.9553911v-3.457675h.78210061c.73865057 1.5980851 1.73800135 2.6731605 2.94011896 2.6731605 1.0717675 0 1.53523453-.7118742 1.53523453-1.3946924 0-.929795-.52140041-1.3075242-2.08560163-1.7724217-1.60765125-.4794255-3.11391909-1.2058278-3.11391909-2.9927775 0-1.8450619 1.3324677-3.138058 3.40358598-3.138058.73865058 0 1.54971788.2179207 1.98421822.4648975l.3910503-.5230097h.73865058v3.0218336h-.78210061c-.69520055-1.3801644-1.50626784-2.2373191-2.50561862-2.2373191-.78210061 0-1.30350102.5375377-1.30350102 1.2784681 0 .929795.56485044 1.2348839 2.21595173 1.7433655 1.3324677.4067853 2.8242522 1.0896035 2.8242522 2.8910813 0 1.7869497-1.0717675 3.3850347-3.57738612 3.3850347-.78210061 0-1.7524847-.1452804-2.31733514-.4648974l-.3910503.5230096zm13.2232936-.0581122c-3.30220254 0-4.89537045-2.1646789-4.89537045-4.9395357 0-2.9491934 2.18698505-5.0848162 5.14158735-5.0848162.8110673 0 1.7814514.2324487 2.4476852.5956499l.420017-.624706h.7241673v3.748236h-.8834841c-.5503671-1.874118-1.5497178-2.9927776-2.650452-2.9927776-1.303501 0-2.3897519 1.2929961-2.3897519 3.9371006 0 2.9346653 1.3469511 4.3148297 2.7518355 4.3148297 1.0717675 0 2.0421516-.5520657 2.8387355-2.1065667l.6372672.305089c-.7386506 1.7578936-2.100085 2.847497-4.1422366 2.847497zm5.1705541-.2324487v-.6537621c1.0717675-.0435841 1.2166009-.1743365 1.2166009-.624706v-7.0025183c0-.4503694-.1448334-.5811218-1.2166009-.624706v-.6537621h4.9677872v.6537621c-.7096839.0435842-1.1297009.1452805-1.1297009.624706v2.9491934h3.1718525v-2.9491934c0-.4794255-.420017-.5811218-1.1297009-.624706v-.6537621h4.9677872v.6537621c-1.0717675.0435842-1.216601.1743366-1.216601.624706v7.0025183c0 .4503695.1448335.5811219 1.216601.624706v.6537621h-4.9677872v-.6537621c.7096839-.0435841 1.1297009-.1452804 1.1297009-.624706v-3.3123945h-3.1718525v3.3123945c0 .4794256.420017.5811219 1.1297009.624706v.6537621zm16.6558463.2324487c-3.0270191 0-4.8808872-1.903174-4.8808872-4.9831198 0-3.0654178 1.9262849-5.0412321 4.8808872-5.0412321 3.027019 0 4.8808871 1.9177021 4.8808871 4.9831199 0 3.0799458-1.9262848 5.041232-4.8808871 5.041232zm.0579333-.7264023c1.5352346 0 2.0131849-1.1622437 2.0131849-4.2857736 0-3.1090019-.5938171-4.2857737-2.1290516-4.2857737s-2.0131849 1.1767718-2.0131849 4.2857737c0 3.1235299.5938171 4.2857736 2.1290516 4.2857736zm10.7176751.7264023c-3.0270191 0-4.8808872-1.903174-4.8808872-4.9831198 0-3.0654178 1.9262849-5.0412321 4.8808872-5.0412321 3.027019 0 4.8808871 1.9177021 4.8808871 4.9831199 0 3.0799458-1.9262848 5.041232-4.8808871 5.041232zm.0579333-.7264023c1.5352346 0 2.0131849-1.1622437 2.0131849-4.2857736 0-3.1090019-.5938171-4.2857737-2.1290516-4.2857737s-2.0131849 1.1767718-2.0131849 4.2857737c0 3.1235299.5938171 4.2857736 2.1290516 4.2857736zm5.7498879.4939536v-.6537621c1.0717675-.0435841 1.2166009-.1743365 1.2166009-.624706v-7.0025183c0-.4503694-.1448334-.5811218-1.2166009-.624706v-.6537621h5.0836539v.6537621c-1.0717675.0435842-1.2455676.1743366-1.2455676.624706v7.5691121h.420017c2.1145683 0 2.7518354-1.2203559 3.490486-3.2106982l.7821006.0290561-.0579333 3.8935164zm9.6314241.2905609v-3.457675h.7821006c.7386506 1.5980851 1.7380014 2.6731605 2.940119 2.6731605 1.0717675 0 1.5352345-.7118742 1.5352345-1.3946924 0-.929795-.5214004-1.3075242-2.0856016-1.7724217-1.6076513-.4794255-3.1139191-1.2058278-3.1139191-2.9927775 0-1.8450619 1.3324677-3.138058 3.403586-3.138058.7386506 0 1.5497179.2179207 1.9842182.4648975l.3910503-.5230097h.7386506v3.0218336h-.7821006c-.6952006-1.3801644-1.5062679-2.2373191-2.5056186-2.2373191-.7821007 0-1.3035011.5375377-1.3035011 1.2784681 0 .929795.5648505 1.2348839 2.2159518 1.7433655 1.3324677.4067853 2.8242522 1.0896035 2.8242522 2.8910813 0 1.7869497-1.0717675 3.3850347-3.5773862 3.3850347-.7821006 0-1.7524847-.1452804-2.3173351-.4648974l-.3910503.5230096zm15.9316791-.0581122c-3.027019 0-4.8808871-1.903174-4.8808871-4.9831198 0-3.0654178 2.1000849-5.0412321 5.1850373-5.0412321 1.0862509 0 1.9407682.2469768 2.4187186.4648975l.3910503-.5230097h.7386506v3.457675h-.7821006c-.6227839-1.569029-1.4773012-2.6731605-2.8532189-2.6731605-1.3179844 0-2.2883685 1.1767718-2.2883685 4.2857737 0 3.1235299.9414174 4.2857736 2.4042352 4.2857736.4779504 0 .9124507-.0871682 1.2455677-.334145v-2.5859923c0-.4503694-.3910503-.6101779-1.5207512-.6537621v-.653762h4.9677872v.653762c-.7096839.0435842-.9848675.1452805-.9848675.624706v2.6441045c-.8255506.4503694-2.143535 1.0314912-4.0408531 1.0314912zm10.9494085 0c-2.650452 0-4.1856866-1.0169632-4.1856866-3.6029554v-4.9104797c0-.4503694-.1448334-.5811218-1.2166009-.624706v-.6537621h4.9677872v.6537621c-.7096839.0435842-1.1297009.1452805-1.1297009.624706v4.9831199c0 1.6997814.7676173 2.4261837 2.3173351 2.4261837.6227839 0 1.1152176-.1743365 1.4773012-.5375377.4489837-.4503694.6662339-1.0750754.6662339-2.1792069v-3.12353c0-1.3946924-.3041503-2.0629826-1.680068-2.193735v-.6537621h3.910503v.6537621c-1.2890176.1598085-1.346951.7990426-1.346951 2.193735v3.3705068c0 2.222791-1.2021176 3.5738993-3.780153 3.5738993zm5.8802379-.2324487v-.6537621c1.0717675-.0435841 1.2455677-.1743365 1.2455677-.624706v-7.0025183c0-.4503694-.1738002-.5811218-1.2455677-.624706v-.6537621h5.1126207v.6537621c-1.0717675.0435842-1.2455676.1743366-1.2455676.624706v7.0025183c0 .4503695.1738001.5811219 1.2455676.624706v.6537621zm6.0685218 0v-.6537621c1.071767-.0435841 1.216601-.1743365 1.216601-.624706v-7.0025183c0-.4503694-.144834-.5811218-1.216601-.624706v-.6537621h4.72157c3.562903 0 5.214004 1.8450619 5.214004 4.5908627 0 2.6441044-1.289018 4.9685918-4.93882 4.9685918zm3.838086-.6973462h.767617c1.839385 0 2.578036-.8135706 2.578036-4.082381 0-3.2542824-.941418-4.082381-2.708386-4.082381h-.637267zm7.024422.6973462v-.6537621c1.071768-.0435841 1.216601-.1743365 1.216601-.624706v-7.0025183c0-.4503694-.144833-.5811218-1.216601-.624706v-.6537621h8.458273l.13035 3.428619-.7821.0290561c-.564851-1.6416693-1.115218-2.7603288-2.882186-2.7603288h-1.086251v3.6901237h.217251c.926934 0 1.245567-.1307524 1.752484-1.4237485h.651751v3.5884274h-.651751c-.506917-1.2929961-.82555-1.4673327-1.752484-1.4673327h-.217251v3.762764h.941418c2.114568 0 2.693902-1.1477156 3.360136-3.0073055l.7821.029056-.144833 3.6901238z"/></g></g></svg>