<svg height="48" viewBox="0 0 160 48" width="160" xmlns="http://www.w3.org/2000/svg"><g fill="none" fill-rule="evenodd"><path d="m0 0h160v48h-160z" fill="none"/><g fill="#4c5157" transform="translate(11 13)"><path d="m113.204528 7.0352869-.851452 2.58975146h-2.083715v-3.32821929c1.12876-.3661655 2.722304-.96348574 4.848982-.96348574 3.228098 0 4.944673 1.33169684 4.944673 4.17715046v6.89577581l1.42755.6218676v1.1107702c-.392527.2209267-1.577921.5032219-2.550451.5032219-1.261556 0-2.245804-.4213972-2.433279-1.7878695h-.109361c-.53704 1.1353176-1.968496 1.8124169-3.472207 1.8124169-2.14816 0-3.497595-1.4442058-3.497595-3.5552828 0-2.5958883 1.63846-3.1666156 4.294366-3.7434796l2.320013-.4132147v-1.53216735c0-1.63035696-.468689-2.4404214-2.013412-2.4404214-.201145 0-.580003.03068426-.824112.05318605m2.837524 8.8534315v-3.5818758l-.935426.096144c-.93152.0940984-1.695093.7425591-1.695093 1.9556101 0 1.3992022.73428 2.0128874 1.507617 2.0128874.447208 0 .902227-.2291091 1.122902-.4827657"/><path d="m68.3981552 7.0352869-.8535435 2.58975146h-2.0820991v-3.32821929c1.1289431-.3661655 2.722745-.96348574 4.8478142-.96348574 3.2305741 0 4.9474269 1.33169684 4.9474269 4.17715046v6.89577581l1.4277809.6218676v1.1107702c-.3945441.2209267-1.5781764.5032219-2.5508644.5032219-1.2617598 0-2.2461669-.4213972-2.4317198-1.7878695h-.1113318c-.5371269 1.1353176-1.9688142 1.8124169-3.4727694 1.8124169-2.1485075 0-3.4962077-1.4442058-3.4962077-3.5552828 0-2.5958883 1.6367721-3.1666156 4.2931087-3.7434796l2.3203881-.4132147v-1.53216735c0-1.63035696-.4687653-2.4404214-2.0137375-2.4404214-.2011785 0-.5800971.03068426-.8242456.05318605m2.8379831 8.8534315v-3.5818758l-.9355774.096144c-.931671.0940984-1.6953677.7425591-1.6953677 1.9556101 0 1.3992022.7363521 2.0128874 1.5098148 2.0128874.445327 0 .9004199-.2291091 1.1211303-.4827657"/><path d="m1.85011311 14.8720707v-7.03393522h-1.85011311v-1.921885l1.85011311-.26021258v-2.40133179l3.98815127-.58803944v2.98937123h2.64774336v2.18209758h-2.64774336v6.66513002c0 1.2436931.33267018 1.8850044 1.49993397 1.8850044.42021497 0 .98828334-.049174 1.27815385-.1003969v1.6432321c-.65366772.3974901-2.01353003.7355616-3.27028405.7355616-2.38121813 0-3.49595504-1.1043668-3.49595504-3.794596"/><path d="m28.2038766 12.3668409h7.1231674c0-5.33661239-1.7249012-7.03350757-5.3038303-7.03350757-3.5615837 0-5.8974275 2.43877447-5.8974275 6.62158007 0 4.3221642 2.118063 6.7117533 6.2231351 6.7117533 2.2086445 0 3.9894363-1.0349421 4.5406338-1.8383031v-1.2419306c-.8287235.2766677-1.6805741.4385696-3.2108217.4385696-2.154681 0-3.2628578-1.1845476-3.4748568-3.6581617m1.7518829-5.49031667c.9944682 0 1.5283203.45291526 1.5283203 3.76882877l-3.3148939.204939c0-2.99006042.5280703-3.97376777 1.7865736-3.97376777"/><path d="m44.8202969 15.5581151h-4.1097252c-.6212376 0-1.0194667-.4158064-1.0194667-.8478395 0-.3367018.0896015-.8458111.3862823-1.0932667.6730073.2068891 1.433625.3103336 2.2599506.3103336 3.1818512 0 5.3601649-1.4198268 5.3601649-4.15197939 0-1.23524938-.4261052-1.9269079-1.2165902-2.64493463l.0418141-.10547285 2.1384907.66934695v-2.36096925h-.2389375l-3.0683559.55778913h-.1752208c-.7646001-.28802202-1.8497746-.52330762-2.8413653-.52330762-3.1798601 0-5.3820675 1.54963961-5.3820675 4.27976385 0 1.66525411.6690251 2.88833351 2.0289777 3.59216201v.1298127c-1.1309708.8539245-2.0528714 2.0080409-2.0528714 3.0323445 0 .9756239.6769896 2.1094571 1.9871636 2.427904v.131841c-1.1230063.3995799-2.7298611.8275563-2.7298611 2.1926184 0 1.683509 2.0568538 2.8457387 5.9395884 2.8457387 4.8225555 0 6.9849399-1.9978992 6.9849399-4.9896773 0-2.4563005-1.569023-3.4522076-4.2929106-3.4522076m-2.482959-8.68325545c.8920334 0 1.4714569.66934695 1.4714569 2.77271904 0 2.09931541-.5873881 2.63682131-1.4714569 2.63682131-.8820776 0-1.4555277-.5375059-1.4555277-2.63682131 0-2.10337209.5634943-2.77271904 1.4555277-2.77271904m-.109513 15.47611285c-2.2420303 0-3.2137096-.5740157-3.2137096-1.4482234 0-.6125539.1792032-1.170343.5754412-1.5293564h4.8345024c1.0154844 0 1.8039782.1480677 1.8039782 1.0810968 0 1.2960991-1.1986699 1.896483-4.0002122 1.896483"/><path d="m101.672956 6.19584445v1.33354269l1.479302.66991155v8.48066151l-1.417342.636416v1.3502905h6.831122v-1.3502905l-1.421214-.636416v-11.34662687h-.334973z"/><path d="m77.5471698 6.19584445v1.33354269l1.5364824.66991155v8.48066151l-1.4722112.636416v1.3502905h7.6121153v-1.3502905l-1.9964228-.636416-.004017-7.05709947c.7069828-.35379704 1.6389146-.46893808 2.7536175-.46893808.3655422 0 .797364.04605642 1.0484232.11514104v-3.78081331c-.1365762-.04814989-.4097286-.06908463-.6166014-.06908463-1.3657621 0-2.4784565.91484796-3.209541 2.65243105h-.1365762v-2.73826347h-.3474659z"/><path d="m105.550314 0c1.191247 0 2.154089.99171874 2.154089 2.21917391 0 1.22948737-.962842 2.22527053-2.154089 2.22527053-1.189277 0-2.154088-.99578316-2.154088-2.22527053 0-1.22745517.964811-2.21917391 2.154088-2.21917391"/><path d="m95.1571718 16.1270262v-8.64426758c-.3198552-.25375774-.6619788-.46006484-1.4191044-.46006484-1.3097868 0-2.3098403 1.20483348-2.3098403 4.81727082 0 3.1626879.7955892 4.5366932 2.4454751 4.5366932.6417348 0 1.002078-.1320365 1.2834696-.2496316m.0020244-13.30474503-1.6944228-.65811966v-1.31211317l5.5205386-.85204834h.3502212v16.0383142l1.4757878.7406425v1.2625994l-5.1116101.5714707-.35427-.0020631v-1.3306808h-.1396836c-.5202707.6787504-1.5992759 1.3863838-3.1560394 1.3863838-2.2956696 0-5.0245607-1.481285-5.0245607-6.389331 0-5.15974065 2.7916475-7.01444151 6.1157122-7.01444151.6862716 0 1.5142512.16298262 2.0183268.53227233z"/><path d="m51.5225576 8.14024296-1.5477148-.65610743v-1.30606387l5.3554563-.84473833h.3490935v8.96406787c0 1.4495874.6981868 1.703829 1.7495029 1.703829.7768842 0 1.0836021-.1373725 1.4952498-.299349v-7.56163824l-1.5456969-.65610743v-1.30606387l5.3574743-.84473833h.3490934v10.87293047l1.5376254.7381208v1.1010303l-5.2041153.567943-.3531292-.0020503-.0040357-1.691527h-.137216c-.8010987 1.0108155-2.1187751 1.7468861-3.8097594 1.7468861-2.5162977 0-3.5918283-1.8206982-3.5918283-4.0268594z"/><path d="m9.54410387 17.314495 1.46658303-.6342229v-13.81684981l-1.53269948-.66980638v-1.33333333l5.27328768-.86028258h.344607v7.06436421h.1382434c1.109955-1.05494506 2.6085945-1.71428572 4.2875516-1.71428572 2.0896805 0 3.133519 1.09052852 3.133519 3.47043433v7.85975928l1.4705901.6342229v1.3521717h-6.9261989v-1.3521717l1.3223289-.6342229v-6.73783359c0-1.31449502-.556981-1.81057038-1.6769535-1.81057038-.6130798 0-1.2021173.11721612-1.7029995.3307169v8.21768707l1.322329.6342229v1.3521717h-6.92018833z"/><path d="m122.422315 17.3142827 1.462376-.6343225v-8.48066151l-1.53249-.66991155v-1.33354269l5.27457-.86251112h.346563v1.72920919h.134218c1.11381-1.05511069 2.608238-1.71455487 4.288969-1.71455487 2.087391 0 3.129084 1.09069974 3.129084 3.47097922v7.86099333l1.474395.6343225v1.352384h-6.927255v-1.352384l1.324151-.6343225v-6.73889148c0-1.31470142-.554901-1.81085466-1.676724-1.81085466-.614999 0-1.201953.11723452-1.702766.33076883v8.21897731l1.324151.6343225v1.352384h-6.919242z"/></g></g></svg>