<?xml version="1.0" encoding="UTF-8"?>
<svg xmlns="http://www.w3.org/2000/svg" xmlns:xlink="http://www.w3.org/1999/xlink" width="56pt" height="40pt" viewBox="0 0 56 40" version="1.1">
<defs>
<radialGradient id="radial0" gradientUnits="userSpaceOnUse" cx="0" cy="0" fx="0" fy="0" r="1" gradientTransform="matrix(0,-26.751728,24.888043,0,21.671876,35.575311)">
<stop offset="0" style="stop-color:rgb(100%,86.666667%,33.333333%);stop-opacity:1;"/>
<stop offset="0.1" style="stop-color:rgb(100%,86.666667%,33.333333%);stop-opacity:1;"/>
<stop offset="0.5" style="stop-color:rgb(100%,32.941176%,24.313725%);stop-opacity:1;"/>
<stop offset="1" style="stop-color:rgb(78.431373%,21.568627%,67.058824%);stop-opacity:1;"/>
</radialGradient>
<radialGradient id="radial1" gradientUnits="userSpaceOnUse" cx="0" cy="0" fx="0" fy="0" r="1" gradientTransform="matrix(2.347746,11.7255,-48.345149,9.680098,9.977337,8.448185)">
<stop offset="0" style="stop-color:rgb(21.568627%,44.313725%,78.431373%);stop-opacity:1;"/>
<stop offset="0.13" style="stop-color:rgb(21.568627%,44.313725%,78.431373%);stop-opacity:1;"/>
<stop offset="1" style="stop-color:rgb(40%,0%,100%);stop-opacity:0;"/>
</radialGradient>
</defs>
<g id="surface1">
<path style=" stroke:none;fill-rule:nonzero;fill:url(#radial0);" d="M 28.003906 6.503906 C 22.367188 6.503906 20.71875 6.507812 20.398438 6.535156 C 19.242188 6.632812 18.523438 6.8125 17.738281 7.203125 C 17.132812 7.503906 16.65625 7.851562 16.1875 8.339844 C 15.332031 9.230469 14.8125 10.324219 14.625 11.625 C 14.53125 12.253906 14.507812 12.382812 14.5 15.609375 C 14.5 16.683594 14.5 18.097656 14.5 19.996094 C 14.5 25.625 14.507812 27.273438 14.535156 27.59375 C 14.628906 28.71875 14.804688 29.425781 15.179688 30.199219 C 15.890625 31.683594 17.257812 32.796875 18.863281 33.210938 C 19.421875 33.355469 20.035156 33.433594 20.824219 33.472656 C 21.160156 33.484375 24.566406 33.496094 27.976562 33.496094 C 31.386719 33.496094 34.792969 33.492188 35.121094 33.476562 C 36.035156 33.433594 36.566406 33.359375 37.152344 33.210938 C 38.769531 32.792969 40.109375 31.695312 40.835938 30.191406 C 41.203125 29.4375 41.390625 28.703125 41.472656 27.636719 C 41.492188 27.402344 41.5 23.695312 41.5 19.992188 C 41.5 16.289062 41.492188 12.585938 41.472656 12.355469 C 41.386719 11.269531 41.203125 10.539062 40.824219 9.769531 C 40.511719 9.140625 40.167969 8.667969 39.667969 8.1875 C 38.773438 7.335938 37.683594 6.816406 36.382812 6.628906 C 35.75 6.535156 35.625 6.507812 32.398438 6.503906 Z M 28.003906 6.503906 "/>
<path style=" stroke:none;fill-rule:nonzero;fill:url(#radial1);" d="M 28.003906 6.503906 C 22.367188 6.503906 20.71875 6.507812 20.398438 6.535156 C 19.242188 6.632812 18.523438 6.8125 17.738281 7.203125 C 17.132812 7.503906 16.65625 7.851562 16.1875 8.339844 C 15.332031 9.230469 14.8125 10.324219 14.625 11.625 C 14.53125 12.253906 14.507812 12.382812 14.5 15.609375 C 14.5 16.683594 14.5 18.097656 14.5 19.996094 C 14.5 25.625 14.507812 27.273438 14.535156 27.59375 C 14.628906 28.71875 14.804688 29.425781 15.179688 30.199219 C 15.890625 31.683594 17.257812 32.796875 18.863281 33.210938 C 19.421875 33.355469 20.035156 33.433594 20.824219 33.472656 C 21.160156 33.484375 24.566406 33.496094 27.976562 33.496094 C 31.386719 33.496094 34.792969 33.492188 35.121094 33.476562 C 36.035156 33.433594 36.566406 33.359375 37.152344 33.210938 C 38.769531 32.792969 40.109375 31.695312 40.835938 30.191406 C 41.203125 29.4375 41.390625 28.703125 41.472656 27.636719 C 41.492188 27.402344 41.5 23.695312 41.5 19.992188 C 41.5 16.289062 41.492188 12.585938 41.472656 12.355469 C 41.386719 11.269531 41.203125 10.539062 40.824219 9.769531 C 40.511719 9.140625 40.167969 8.667969 39.667969 8.1875 C 38.773438 7.335938 37.683594 6.816406 36.382812 6.628906 C 35.75 6.535156 35.625 6.507812 32.398438 6.503906 Z M 28.003906 6.503906 "/>
<path style=" stroke:none;fill-rule:nonzero;fill:rgb(100%,100%,100%);fill-opacity:1;" d="M 28 10.035156 C 25.292969 10.035156 24.953125 10.046875 23.886719 10.09375 C 22.828125 10.144531 22.101562 10.3125 21.46875 10.558594 C 20.8125 10.8125 20.257812 11.152344 19.703125 11.707031 C 19.148438 12.261719 18.808594 12.816406 18.554688 13.472656 C 18.304688 14.105469 18.136719 14.832031 18.089844 15.890625 C 18.042969 16.953125 18.03125 17.292969 18.03125 20 C 18.03125 22.707031 18.042969 23.046875 18.089844 24.109375 C 18.140625 25.171875 18.308594 25.894531 18.554688 26.527344 C 18.808594 27.183594 19.148438 27.742188 19.703125 28.292969 C 20.257812 28.847656 20.8125 29.191406 21.46875 29.445312 C 22.101562 29.691406 22.828125 29.859375 23.886719 29.910156 C 24.949219 29.957031 25.289062 29.96875 27.996094 29.96875 C 30.703125 29.96875 31.042969 29.957031 32.105469 29.910156 C 33.167969 29.859375 33.890625 29.691406 34.527344 29.445312 C 35.183594 29.191406 35.738281 28.847656 36.289062 28.292969 C 36.84375 27.742188 37.1875 27.183594 37.441406 26.53125 C 37.6875 25.894531 37.855469 25.171875 37.902344 24.109375 C 37.953125 23.046875 37.964844 22.707031 37.964844 20 C 37.964844 17.292969 37.953125 16.953125 37.902344 15.890625 C 37.855469 14.832031 37.6875 14.105469 37.441406 13.472656 C 37.1875 12.816406 36.84375 12.261719 36.289062 11.707031 C 35.734375 11.152344 35.183594 10.8125 34.527344 10.558594 C 33.890625 10.3125 33.164062 10.144531 32.105469 10.09375 C 31.042969 10.046875 30.703125 10.035156 27.996094 10.035156 Z M 27.105469 11.828125 C 27.371094 11.828125 27.664062 11.828125 28 11.828125 C 30.660156 11.828125 30.976562 11.839844 32.027344 11.886719 C 32.996094 11.933594 33.523438 12.09375 33.875 12.230469 C 34.339844 12.410156 34.671875 12.628906 35.023438 12.976562 C 35.371094 13.324219 35.585938 13.65625 35.769531 14.121094 C 35.902344 14.472656 36.066406 15 36.109375 15.972656 C 36.160156 17.023438 36.167969 17.339844 36.167969 20 C 36.167969 22.660156 36.160156 22.972656 36.109375 24.023438 C 36.066406 24.996094 35.902344 25.523438 35.769531 25.875 C 35.585938 26.339844 35.371094 26.671875 35.023438 27.019531 C 34.671875 27.371094 34.339844 27.585938 33.875 27.765625 C 33.527344 27.902344 32.996094 28.066406 32.027344 28.109375 C 30.976562 28.15625 30.660156 28.167969 28 28.167969 C 25.335938 28.167969 25.019531 28.15625 23.96875 28.109375 C 23 28.066406 22.472656 27.902344 22.121094 27.765625 C 21.65625 27.585938 21.324219 27.367188 20.972656 27.019531 C 20.625 26.671875 20.410156 26.339844 20.226562 25.875 C 20.089844 25.523438 19.929688 24.996094 19.882812 24.023438 C 19.835938 22.972656 19.828125 22.65625 19.828125 19.996094 C 19.828125 17.335938 19.835938 17.019531 19.882812 15.96875 C 19.929688 15 20.089844 14.472656 20.226562 14.121094 C 20.410156 13.652344 20.625 13.320312 20.972656 12.972656 C 21.324219 12.625 21.65625 12.410156 22.121094 12.226562 C 22.472656 12.089844 23 11.929688 23.96875 11.882812 C 24.890625 11.84375 25.246094 11.828125 27.105469 11.828125 Z M 33.320312 13.484375 C 32.660156 13.484375 32.121094 14.019531 32.121094 14.679688 C 32.121094 15.339844 32.660156 15.875 33.320312 15.875 C 33.980469 15.875 34.515625 15.339844 34.515625 14.679688 C 34.515625 14.019531 33.980469 13.484375 33.320312 13.484375 Z M 28 14.882812 C 25.171875 14.882812 22.878906 17.175781 22.878906 20 C 22.878906 22.828125 25.171875 25.117188 28 25.117188 C 30.824219 25.117188 33.117188 22.828125 33.117188 20 C 33.117188 17.175781 30.824219 14.882812 27.996094 14.882812 Z M 28 16.679688 C 29.832031 16.679688 31.320312 18.167969 31.320312 20 C 31.320312 21.835938 29.832031 23.324219 28 23.324219 C 26.164062 23.324219 24.675781 21.835938 24.675781 20 C 24.675781 18.167969 26.164062 16.679688 28 16.679688 Z M 28 16.679688 "/>
</g>
</svg>
