<svg xmlns="http://www.w3.org/2000/svg" width="34" height="34" viewBox="0 0 34 34">
    <g fill="none" fill-rule="evenodd" transform="translate(-4.6 -4.6)">
        <path d="M0 0h43.2v43.2H0z"/>
        <path fill="#FFC670" fill-rule="nonzero" d="M32.825 6.818l-8.259-.799a.72.72 0 0 0-.792.742l.404 10.757a.72.72 0 0 0 .46.648l5.192 1.994a.814.814 0 0 0 .259.043.677.677 0 0 0 .266-.05l3.06-1.203a.72.72 0 0 0 .454-.597l.893-9.187a2.16 2.16 0 0 0-1.937-2.348z"/>
        <path fill="#FFDEAD" fill-rule="nonzero" d="M23.774 33.606l9.271-9.27 2.714 2.713-9.27 9.271z"/>
        <path fill="#F6716F" fill-rule="nonzero" d="M35.76 27.043l-2.714-2.713.881-.881a1.663 1.663 0 0 1 2.352 0l.362.361a1.663 1.663 0 0 1 0 2.352l-.881.881z"/>
        <path fill="#FFDEAD" fill-rule="nonzero" d="M26.489 36.324l-4.075 1.354 1.353-4.068h.007z"/>
        <path fill="#FFF6E6" fill-rule="nonzero" d="M29.131 11.038h-4.32a.238.238 0 0 1-.237-.238V6.48a1.678 1.678 0 0 0-1.685-1.678H9.929a2.16 2.16 0 0 0-2.16 2.16v29.276a2.16 2.16 0 0 0 2.16 2.16h7.07a.72.72 0 0 0 .677-.49l1.224-3.65L30.6 22.55a.72.72 0 0 0 .209-.51v-9.318a1.678 1.678 0 0 0-1.678-1.684z"/>
        <path fill="#FFDEAD" fill-rule="nonzero" d="M16.07 10.18H8.496v11.038h7.574c.927 0 1.678-.75 1.678-1.677v-7.683c0-.926-.751-1.677-1.678-1.677zM29.743 11.98a.929.929 0 0 0-.612-.222h-4.32a.958.958 0 0 1-.957-.958V6.48a.95.95 0 0 0-.281-.677l6.17 6.178z"/>
        <rect width="3.838" height="3.838" x="11.851" y="23.004" fill="#79DEB4" fill-rule="nonzero" rx=".382"/>
        <rect width="9.598" height="9.598" x="6.091" y="9.562" fill="#79DEB4" fill-rule="nonzero" rx=".958"/>
        <path fill="#3D3D63" fill-rule="nonzero" d="M17 36.958H9.928a.72.72 0 0 1-.72-.72V19.879h5.522c.927 0 1.678-.75 1.678-1.677v-7.683c0-.926-.751-1.677-1.678-1.677H9.21v-1.88a.72.72 0 0 1 .72-.72h12.96c.132 0 .24.106.245.238v4.32c0 .927.75 1.678 1.677 1.678h4.32a.238.238 0 0 1 .238.244v9.36a.72.72 0 0 0 1.44 0v-9.36a1.67 1.67 0 0 0-.569-1.202l-3.823-3.823 6.257.605a.72.72 0 0 1 .64.792l-.878 9.13a.72.72 0 1 0 1.433.143l.893-9.187a2.16 2.16 0 0 0-1.937-2.362l-8-.777-.72-.72a1.67 1.67 0 0 0-1.187-.49H9.958a2.16 2.16 0 0 0-2.16 2.16v1.88h-.72A1.685 1.685 0 0 0 5.4 10.547v7.654c0 .926.751 1.677 1.678 1.677h.72v16.359a2.16 2.16 0 0 0 2.16 2.16h7.07a.72.72 0 0 0 0-1.44h-.029zm7.574-29.139l3.21 3.219h-2.973a.238.238 0 0 1-.237-.238V7.82zM6.81 18.202v-7.683c0-.131.107-.237.238-.237h7.682c.131 0 .238.106.238.237v7.683a.238.238 0 0 1-.238.237H7.05a.238.238 0 0 1-.238-.237z"/>
        <path fill="#3D3D63" fill-rule="nonzero" d="M12.24 22.32a1.102 1.102 0 0 0-1.109 1.102v3.074a1.109 1.109 0 0 0 1.109 1.066h3.067a1.102 1.102 0 0 0 1.102-1.102v-3.074a1.094 1.094 0 0 0-1.102-1.066H12.24zm2.729 3.838H12.57V23.76h2.398v2.398zM25.531 26.38a.72.72 0 0 0-.72-.72h-5.76a.72.72 0 0 0 0 1.44h5.76a.72.72 0 0 0 .72-.72zM19.051 22.745a.72.72 0 0 0 0 1.44h2.398a.72.72 0 0 0 0-1.44H19.05zM24.574 16.762a.72.72 0 0 0-.72-.72H19.05a.72.72 0 0 0 0 1.44h4.803a.72.72 0 0 0 .72-.72zM19.051 14.558h2.398a.72.72 0 0 0 0-1.44H19.05a.72.72 0 0 0 0 1.44zM12.24 12.528l-2.16 2.16-.62-.62a.72.72 0 1 0-1.014 1.023l1.123 1.123a.72.72 0 0 0 .511.216.72.72 0 0 0 .511-.216l2.65-2.642a.723.723 0 0 0-1.001-1.044zM37.13 23.328l-.367-.367a2.383 2.383 0 0 0-3.37 0L23.264 33.12a.634.634 0 0 0-.173.28l-1.36 4.04a.72.72 0 0 0 .907.907l4.075-1.339a.72.72 0 0 0 .28-.18l10.138-10.13c.93-.931.93-2.44 0-3.37zM23.551 36.54l.533-1.598L25.15 36l-1.599.54zm2.938-1.26l-1.7-1.692 6.48-6.48 1.7 1.692-6.48 6.48zm7.502-7.48l-1.699-1.693.72-.72 1.692 1.7-.713.712zm2.117-2.16l-.346.352-1.699-1.656.353-.353a.943.943 0 0 1 1.332 0l.36.36a.943.943 0 0 1 0 1.332v-.036z"/>
    </g>
</svg>
