<?xml version="1.0" encoding="UTF-8"?>
<svg width="81px" height="81px" viewBox="0 0 81 81" version="1.1" xmlns="http://www.w3.org/2000/svg" xmlns:xlink="http://www.w3.org/1999/xlink">
    <!-- Generator: sketchtool 41.2 (35397) - http://www.bohemiancoding.com/sketch -->
    <title>14C51036-0035-45B9-A541-DFB7A710AACB</title>
    <desc>Created with sketchtool.</desc>
    <defs></defs>
    <g id="Page-1" stroke="none" stroke-width="1" fill="none" fill-rule="evenodd">
        <g id="contact-us-desktop-large" transform="translate(-296.000000, -385.000000)">
            <g id="Group-3" transform="translate(296.000000, 385.000000)">
                <g id="chat-1" transform="translate(16.071429, 21.214286)" fill="#2091EB">
                    <g id="Capa_1">
                        <g id="Group">
                            <path d="M34.7465093,0.107591154 L2.46916318,0.107591154 C1.2587627,0.107591154 0.290442319,1.07591154 0.290442319,2.28631201 C0.290442319,3.49671249 1.2587627,4.46503288 2.46916318,4.46503288 L34.7465093,4.46503288 C35.9569097,4.46503288 36.9252301,3.49671249 36.9252301,2.28631201 C36.9252301,1.07591154 35.9407711,0.107591154 34.7465093,0.107591154 Z" id="Shape"></path>
                            <path d="M34.7465093,10.6461447 L2.46916318,10.6461447 C1.2587627,10.6461447 0.290442319,11.614465 0.290442319,12.8248655 C0.290442319,14.035266 1.2587627,15.0035864 2.46916318,15.0035864 L34.7465093,15.0035864 C35.9569097,15.0035864 36.9252301,14.035266 36.9252301,12.8248655 C36.9252301,11.614465 35.9407711,10.6461447 34.7465093,10.6461447 Z" id="Shape"></path>
                            <path d="M34.7465093,21.1846981 L2.46916318,21.1846981 C1.2587627,21.1846981 0.290442319,22.1530185 0.290442319,23.363419 C0.290442319,24.5738195 1.2587627,25.5421399 2.46916318,25.5421399 L34.7465093,25.5421399 C35.9569097,25.5421399 36.9252301,24.5738195 36.9252301,23.363419 C36.9252301,22.1530185 35.9407711,21.1846981 34.7465093,21.1846981 Z" id="Shape"></path>
                        </g>
                    </g>
                </g>
                <g id="Capa_1" fill="#6F7C82">
                    <path d="M80.2905765,76.8691796 L60.6063193,57.1849224 C65.8865854,51.1144124 69.0834812,43.1940133 69.0834812,34.5372506 C69.0834812,15.4815965 53.5839246,0 34.5462306,0 C15.4905765,0 0.00898004435,15.4995565 0.00898004435,34.5372506 C0.00898004435,53.5749446 15.5085366,69.0745011 34.5462306,69.0745011 C43.2029933,69.0745011 51.1233925,65.8776053 57.1939024,60.5973392 L76.8781596,80.2815965 C77.345122,80.7485588 77.9737251,81 78.5843681,81 C79.1950111,81 79.8236142,80.7665188 80.2905765,80.2815965 C81.2245011,79.3476718 81.2245011,77.8031042 80.2905765,76.8691796 Z M4.8402439,34.5372506 C4.8402439,18.1576497 18.1666297,4.84922395 34.5282705,4.84922395 C50.9078714,4.84922395 64.2162971,18.1756098 64.2162971,34.5372506 C64.2162971,50.8988914 50.9078714,64.2432373 34.5282705,64.2432373 C18.1666297,64.2432373 4.8402439,50.9168514 4.8402439,34.5372506 Z" id="Shape"></path>
                </g>
            </g>
        </g>
    </g>
</svg>