<svg xmlns="http://www.w3.org/2000/svg" width="32" height="36" viewBox="0 0 32 36">
    <g fill="none" fill-rule="evenodd" transform="translate(-3.8 -1.8)">
        <path d="M.36.264h38.88v38.88H.36z"/>
        <path fill="#FFEFB0" fill-rule="nonzero" d="M35.009 17.65v.343a2.21 2.21 0 0 1-1.692 2.106 3.583 3.583 0 0 0-2.222 5.372 2.23 2.23 0 0 1-.279 2.69l-.48.479a2.216 2.216 0 0 1-2.682.298 3.596 3.596 0 0 0-5.379 2.222 2.21 2.21 0 0 1-2.106 1.692h-.712a2.21 2.21 0 0 1-2.106-1.692 3.596 3.596 0 0 0-5.379-2.222c-.858.52-1.959.397-2.683-.298l-.505-.48a2.23 2.23 0 0 1-.298-2.69A3.583 3.583 0 0 0 6.263 20.1a2.21 2.21 0 0 1-1.691-2.106v-.343-.344A2.21 2.21 0 0 1 6.263 15.2a3.583 3.583 0 0 0 2.223-5.372 2.223 2.223 0 0 1 .298-2.689l.48-.48a2.216 2.216 0 0 1 2.682-.298 3.583 3.583 0 0 0 5.405-2.21 2.21 2.21 0 0 1 2.106-1.69h.686a2.21 2.21 0 0 1 2.106 1.69 3.583 3.583 0 0 0 5.379 2.223 2.216 2.216 0 0 1 2.683.298l.48.48c.695.726.818 1.829.297 2.69a3.583 3.583 0 0 0 2.223 5.371 2.21 2.21 0 0 1 1.691 2.106c.007.104.007.214.007.33z"/>
        <path fill="#FFC670" fill-rule="nonzero" d="M19.171 8.526c-4.924.304-8.923 3.609-9.208 8.534a9.824 9.824 0 0 0 3.24 7.899 9.467 9.467 0 0 1 3.052 7.057h7.09a9.72 9.72 0 0 1 3.149-7.128 9.83 9.83 0 0 0 3.162-7.238c0-5.651-4.756-9.48-10.485-9.124z"/>
        <path fill="#FFE88A" fill-rule="nonzero" d="M11.052 19.451a9.72 9.72 0 0 1 17.963-5.184c-1.478-3.72-5.327-6.02-9.863-5.741-4.925.304-8.923 3.609-9.208 8.534-.141 2.39.6 4.748 2.08 6.629a9.675 9.675 0 0 1-.972-4.238z"/>
        <path fill="#FF9A42" fill-rule="nonzero" d="M19.8 26.52a11.262 11.262 0 0 1-8.424-3.81c.5.836 1.12 1.594 1.84 2.249a9.467 9.467 0 0 1 3.04 7.057h7.089a9.72 9.72 0 0 1 3.149-7.128 9.908 9.908 0 0 0 1.762-2.19A11.243 11.243 0 0 1 19.8 26.52z"/>
        <path fill="#EDF4FF" fill-rule="nonzero" d="M23.04 31.096c.214.46.324.962.324 1.47a3.545 3.545 0 0 1-7.09 0c0-.508.111-1.01.325-1.47h6.441z"/>
        <path fill="#D8E3F0" fill-rule="nonzero" d="M19.8 34.718a3.538 3.538 0 0 1-3.473-2.838 3.48 3.48 0 0 0-.072.686 3.545 3.545 0 0 0 7.09 0c-.001-.23-.025-.46-.072-.686a3.538 3.538 0 0 1-3.473 2.838z"/>
        <rect width="12.539" height="2.689" x="13.534" y="29.301" fill="#D8E3F0" fill-rule="nonzero" rx="1.244" transform="rotate(180 19.803 30.645)"/>
        <path fill="#FFDEAD" fill-rule="nonzero" d="M22.923 21.894H21.22V20.19c0-.81.656-1.465 1.465-1.465h.233c.809 0 1.464.656 1.464 1.465v.233a1.464 1.464 0 0 1-1.458 1.47zM16.67 18.725h.233c.81 0 1.465.656 1.465 1.465v1.704H16.67a1.464 1.464 0 0 1-1.464-1.465v-.233a1.464 1.464 0 0 1 1.464-1.47z"/>
        <path fill="#3D3D63" fill-rule="nonzero" d="M30.304 18.298a10.562 10.562 0 0 0-3.311-7.666 10.508 10.508 0 1 0-14.256 15.442 8.573 8.573 0 0 1 2.197 3.24h-.188a1.892 1.892 0 0 0-1.893 1.892v.162a1.892 1.892 0 0 0 1.919 1.944h.868a4.193 4.193 0 0 0 8.32 0h.868a1.892 1.892 0 0 0 1.893-1.944v-.195a1.892 1.892 0 0 0-1.893-1.892h-.162a9.072 9.072 0 0 1 2.268-3.305 10.543 10.543 0 0 0 3.37-7.678zM19.8 35.67a2.897 2.897 0 0 1-2.845-2.358h5.69A2.897 2.897 0 0 1 19.8 35.67zm5.028-5.067c.33 0 .597.267.597.596v.169c0 .329-.267.596-.597.596H14.772a.596.596 0 0 1-.597-.596v-.195c0-.329.267-.596.597-.596l10.056.026zm-7.128-8.71h-1.03a.823.823 0 0 1-.816-.816v-.24a.823.823 0 0 1 .816-.816h.24c.45.004.813.367.816.817l-.026 1.056zm1.296 7.414V23.19h1.556v6.117h-1.556zm4.258 0h-1.38V23.19h1.056a2.112 2.112 0 0 0 2.112-2.113v-.24a2.112 2.112 0 0 0-2.112-2.112h-.24a2.119 2.119 0 0 0-2.112 2.113v1.056h-1.556v-1.056a2.119 2.119 0 0 0-2.112-2.113h-.24a2.112 2.112 0 0 0-2.112 2.113v.24c0 1.166.945 2.112 2.112 2.112h1.056v6.117H16.34a9.895 9.895 0 0 0-2.709-4.18 9.17 9.17 0 0 1-3.02-7.367 9.312 9.312 0 0 1 8.6-8.651 9.215 9.215 0 0 1 9.797 9.189 9.247 9.247 0 0 1-2.955 6.752 10.478 10.478 0 0 0-2.773 4.257h-.026zm-1.38-7.413v-1.056a.823.823 0 0 1 .816-.817h.24c.45.004.813.367.816.817v.24a.823.823 0 0 1-.816.816h-1.056z"/>
        <path fill="#3D3D63" fill-rule="nonzero" d="M14.298 12.964a7.84 7.84 0 0 0-1.801 2.67.648.648 0 1 0 1.199.486 6.551 6.551 0 0 1 1.503-2.248.648.648 0 1 0-.9-.933v.025zM17.247 11.157a7.296 7.296 0 0 0-.9.369.648.648 0 1 0 .57 1.166 5.91 5.91 0 0 1 .751-.31.648.648 0 0 0-.421-1.225zM19.8 5.48c.358 0 .648-.29.648-.648V3.09a.648.648 0 0 0-1.296 0v1.743a.648.648 0 0 0 .648.648zM9.82 9.238a.648.648 0 0 0 .908-.92L9.49 7.088A.648.648 0 0 0 8.577 8L9.82 9.238zM6.335 17.65H4.59a.648.648 0 0 0 0 1.296h1.744a.648.648 0 0 0 0-1.296zM9.82 27.357l-1.23 1.237a.648.648 0 0 0 .913.914l1.225-1.231a.65.65 0 1 0-.92-.92h.013zM29.78 27.357a.648.648 0 1 0-.908.92l1.238 1.23a.648.648 0 0 0 .913-.913l-1.244-1.237zM35.009 17.65h-1.744a.648.648 0 0 0 0 1.296h1.744a.648.648 0 0 0 0-1.296zM30.097 7.087l-1.225 1.231a.65.65 0 1 0 .92.92l1.231-1.237a.648.648 0 0 0-.913-.914h-.013z"/>
    </g>
</svg>
