<svg height="40" viewBox="0 0 40 40" width="40" xmlns="http://www.w3.org/2000/svg"><path d="m185.224667 30.4246667v-7.808c0-4.1833334-2.233334-6.13-5.210667-6.13-2.402667 0-3.479333 1.322-4.079333 2.2493333v-1.9293333h-4.526667c.06 1.278 0 13.618 0 13.618h4.526667v-7.6053334c0-.406.029333-.8126666.149333-1.1033333.326667-.8133333 1.071333-1.6553333 2.321333-1.6553333 1.638667 0 2.293334 1.2486666 2.293334 3.0786666v7.286h4.526zm-18.585334-15.4766667c1.578 0 2.561334-1.0466667 2.561334-2.354-.029334-1.3353333-.983334-2.352-2.531334-2.352s-2.560666 1.016-2.560666 2.352c0 1.3073333.982666 2.354 2.502 2.354zm7.360667 26.052c-11.045333 0-20-8.9546667-20-20 0-11.046 8.954667-20 20-20s20 8.954 20 20c0 11.0453333-8.954667 20-20 20zm-5.097333-10.5753333v-13.618h-4.526v13.618z" fill="#fff" fill-rule="evenodd" transform="translate(-154 -1)"/></svg>