<?xml version="1.0" encoding="UTF-8"?>
<svg width="40px" height="40px" viewBox="0 0 40 40" version="1.1" xmlns="http://www.w3.org/2000/svg" xmlns:xlink="http://www.w3.org/1999/xlink">
    <!-- Generator: Sketch 42 (36781) - http://www.bohemiancoding.com/sketch -->
    <title>linkedIn_icon</title>
    <desc>Created with Sketch.</desc>
    <defs></defs>
    <g id="Impact-case-study-page" stroke="none" stroke-width="1" fill="none" fill-rule="evenodd">
        <g id="Impact-case-study-page-no-hero-image" transform="translate(-96.000000, -408.000000)">
            <g id="Group-37" transform="translate(96.000000, 243.000000)">
                <g id="linkedIn_icon" transform="translate(0.000000, 165.000000)">
                    <path d="M40,20 C40,31.0456724 31.0456724,40 20,40 C8.95432756,40 0,31.0456724 0,20 C0,8.95432756 8.95432756,0 20,0 C31.0456724,0 40,8.95432756 40,20" id="Linkedin-Circle" fill="#007EBE"></path>
                    <path d="M11.0157895,15.2400151 L14.8,15.2400151 L14.8,28.4325974 L11.0157895,28.4325974 L11.0157895,15.2400151 Z M25.1394737,15.1131967 C27.8289474,15.1131967 29.9421053,17.0108393 29.9421053,21.0974012 L29.9421053,28.4325974 L25.6510526,28.4325974 L25.6510526,21.6058327 C25.6510526,19.8187943 24.98,18.5986745 23.5036842,18.5986745 C22.3747368,18.5986745 21.7468421,19.4221251 21.4547368,20.2154636 C21.3452632,20.5003705 21.3621053,20.8970398 21.3621053,21.2937091 L21.3621053,28.4325974 L17.1110526,28.4325974 C17.1110526,28.4325974 17.1657895,16.3396865 17.1110526,15.2400151 L21.3621053,15.2400151 L21.3621053,17.3108023 C21.6131579,16.4051224 22.9715789,15.1131967 25.1394737,15.1131967 Z M12.8378947,9.01259736 C14.2342105,9.01259736 15.0926316,9.99761108 15.12,11.2993811 C15.12,12.5774089 14.2342105,13.5896394 12.8115789,13.5896394 L12.7842105,13.5896394 C11.4147368,13.5896394 10.5263158,12.5814625 10.5263158,11.3028556 C10.5263158,9.9999274 11.4405263,9.01259736 12.8378947,9.01259736 Z" id="Linkedin" fill="#FFFFFF"></path>
                </g>
            </g>
        </g>
    </g>
</svg>