<svg xmlns="http://www.w3.org/2000/svg" width="104" height="105" viewBox="0 0 104 105">
    <g fill="#FFF" fill-rule="nonzero">
        <path d="M33.319 13.701V4.098C33.319 1.857 31.52 0 29.274 0h-1.67c-2.246 0-4.108 1.857-4.108 4.098V13.7c-3.402 1.793-5.713 5.314-5.713 9.412 0 2.049.577 3.97 1.605 5.57L5.264 62.808c-2.76.896-4.815 3.457-4.815 6.53 0 2.113.963 3.97 2.44 5.25v17.543c0 .96.385 1.92 1.027 2.625.514.576 1.22.896 1.99 1.024v7.875c0 .705.578 1.345 1.348 1.345.77 0 1.348-.576 1.348-1.345V95.78a3.723 3.723 0 0 0 1.99-1.024 3.73 3.73 0 0 0 1.092-2.625V74.524c1.476-1.28 2.44-3.137 2.44-5.186 0-1.088-.257-2.176-.77-3.073l13.609-32.652c.514.064.963.128 1.477.128h.513v58.198a3.71 3.71 0 0 0 2.825 3.585v8.131c0 .705.578 1.345 1.348 1.345.706 0 1.348-.576 1.348-1.345v-8.067c1.733-.32 3.017-1.856 3.017-3.649V28.747c1.028-1.6 1.605-3.585 1.605-5.634 0-4.098-2.375-7.683-5.777-9.412zm-7.126-9.603c0-.769.642-1.473 1.476-1.473h1.67c.77 0 1.412.64 1.412 1.473v8.643c-.707-.128-1.477-.256-2.247-.256-.77 0-1.541.064-2.311.256V4.098zM7.383 65.177a4.159 4.159 0 0 1 4.173 4.161A4.159 4.159 0 0 1 7.383 73.5a4.159 4.159 0 0 1-4.173-4.162c-.064-2.304 1.862-4.161 4.173-4.161zM9.116 92.13c0 .256-.128.576-.32.768-.194.192-.45.32-.771.32h-.257c-.128-.064-.321-.064-.45-.064-.128 0-.32 0-.449.065h-.257c-.256 0-.513-.129-.706-.32-.192-.193-.257-.449-.257-.769V75.933a7.99 7.99 0 0 0 1.734.192c.577 0 1.22-.064 1.733-.256V92.13zm2.44-28.17c-.9-.705-2.055-1.217-3.275-1.345l13.097-31.564a9.603 9.603 0 0 0 3.081 1.92L11.556 63.96zm8.923-40.848c0-4.418 3.595-8.003 8.025-8.003s8.024 3.585 8.024 8.003c0 4.417-3.595 8.003-8.024 8.003-4.43 0-8.025-3.586-8.025-8.003zm13.225 69.914h-.963c-.578 0-1.092-.512-1.092-1.088v-58.71c1.156-.384 2.247-.897 3.21-1.665v60.311c0 .64-.578 1.152-1.155 1.152z"/>
        <path d="M30.301 18.119a5.164 5.164 0 0 0-1.926-.384c-2.889 0-5.264 2.369-5.264 5.25 0 .704.129 1.408.385 2.049.193.512.706.832 1.22.832.193 0 .321-.064.514-.128.642-.256.963-1.025.706-1.729a2.648 2.648 0 0 1-.193-1.024 2.64 2.64 0 0 1 2.632-2.625c.321 0 .642.064.963.192.706.256 1.413-.064 1.734-.704.192-.64-.129-1.409-.77-1.73zM103.486 59.415c0-20.68-16.498-37.583-37.042-38.223v-5.698c0-.704-.577-1.345-1.348-1.345H48.02c-.321 0-.706.128-.963.385a1.301 1.301 0 0 0-.385.96V103.59c0 .705.577 1.345 1.348 1.345h17.076c.321 0 .706-.128.963-.384s.385-.576.385-.96v-5.955c20.544-.64 37.042-17.542 37.042-38.222zM66.38 38.287h.257c11.684 0 21.121 9.475 21.121 21.064 0 11.588-9.501 21.064-21.121 21.064h-.257V38.287zm-17.012 63.96v-6.338h4.365c.707 0 1.348-.577 1.348-1.345 0-.704-.577-1.344-1.348-1.344h-4.365v-6.083h7.96c.707 0 1.349-.576 1.349-1.344 0-.705-.578-1.345-1.349-1.345h-7.96v-6.082h4.365c.707 0 1.348-.576 1.348-1.345 0-.704-.577-1.344-1.348-1.344h-4.365v-6.082h4.365c.707 0 1.348-.577 1.348-1.345 0-.704-.577-1.345-1.348-1.345h-4.365v-6.082h7.96c.707 0 1.349-.576 1.349-1.344 0-.705-.578-1.345-1.349-1.345h-7.96v-6.146h4.365c.707 0 1.348-.576 1.348-1.345 0-.704-.577-1.344-1.348-1.344h-4.365V43.28h4.365c.707 0 1.348-.576 1.348-1.344 0-.704-.577-1.345-1.348-1.345h-4.365V34.51h7.96c.707 0 1.349-.576 1.349-1.344 0-.705-.578-1.345-1.349-1.345h-7.96v-6.082h4.365c.707 0 1.348-.576 1.348-1.345 0-.704-.577-1.344-1.348-1.344h-4.365v-6.723h14.444v85.537l-14.444.384zm17.012-7.235V83.104h.257c13.096 0 23.753-10.628 23.753-23.69 0-13.06-10.657-23.688-23.753-23.688h-.257V23.817c19.131.704 34.41 16.39 34.41 35.598.064 19.207-15.279 34.957-34.41 35.597z"/>
    </g>
</svg>
