<svg xmlns="http://www.w3.org/2000/svg" width="25" height="23" viewBox="0 0 25 23">
    <g fill="#637381" fill-rule="nonzero">
        <path d="M12.998 3.058a.5.5 0 1 1-1 0V.56a.5.5 0 1 1 1 0v2.497zm5.343 2.308a.5.5 0 1 1-.766-.643l1.604-1.912a.5.5 0 1 1 .766.643l-1.604 1.912zm2.609 5.203a.5.5 0 1 1-.174-.985l2.459-.433a.5.5 0 1 1 .173.985l-2.458.433zM4.22 9.584a.5.5 0 1 1-.174.985l-2.459-.433a.5.5 0 1 1 .174-.985l2.458.433zm3.2-4.86a.5.5 0 1 1-.765.642L5.05 3.454a.5.5 0 1 1 .766-.643L7.42 4.723zM12.487 19.026l-3.182 3.182a.5.5 0 1 1-.707-.707l3.182-3.182a1 1 0 0 1 1.414 0l3.182 3.182a.5.5 0 1 1-.707.707l-3.182-3.182z"/>
        <path d="M.5 15.04a.5.5 0 0 1 0-1h5.988a6.5 6.5 0 1 1 12.02 0H24.5a.5.5 0 1 1 0 1H.5zm7.087-1h9.821a5.5 5.5 0 1 0-9.82 0z"/>
    </g>
</svg>
