<svg xmlns="http://www.w3.org/2000/svg" width="81" height="20" viewBox="0 0 81 20">
    <path fill="#311B92" fill-rule="evenodd" d="M13.945.083h3.25l1.05 15.163h-2.957L14.68 4.954 9.94 15.246H8.304L3.565 4.995l-.608 10.251H0L1.049.083h3.25l4.823 10.455L13.945.083zm6.206 19.545l.293-2.262c.252.123.546.183.902.183.923 0 1.3-.55 1.74-1.385l.567-1.162L18.809 4.26h3.124l3.188 7.745 2.978-7.745h3.103l-5.326 12.25c-.902 2.119-1.866 3.423-4.047 3.423-.65 0-1.259-.123-1.678-.306zM41.1 2.55h-4.74v12.697h-2.956V2.55h-4.72V.164H41.1V2.55zm9.037 1.712v10.985H47.39l-.042-1.345c-.818 1.02-2.055 1.55-3.481 1.55-2.558 0-4.299-1.713-4.299-4.301V4.26h2.852v6.462c0 1.406.985 2.343 2.453 2.343 1.447 0 2.412-.937 2.412-2.343V4.261h2.852zm9.624 8.438v2.241c-.86.347-1.866.51-2.873.51-2.076 0-3.48-1.386-3.48-3.465V6.524H51.54V4.26h1.866V1.04h2.852v3.22h3.335v2.263h-3.335v4.89c0 1 .63 1.652 1.552 1.652.65 0 1.3-.102 1.95-.367zm9.876-2.955c0-1.998-1.237-3.322-3.083-3.322-1.866 0-3.103 1.324-3.103 3.322 0 1.997 1.237 3.321 3.103 3.321 1.846 0 3.083-1.324 3.083-3.321zm-9.143 0c0-3.404 2.433-5.686 6.06-5.686 3.608 0 6.04 2.282 6.04 5.686 0 3.424-2.432 5.706-6.04 5.706-3.627 0-6.06-2.282-6.06-5.706zM80.94 4.058l-.19 2.547c-2.348 0-3.9 1.1-3.9 2.751v5.89h-2.852V4.261h2.747l.043 1.467c.901-1.08 2.327-1.67 4.152-1.67z"/>
</svg>
