<svg xmlns="http://www.w3.org/2000/svg" width="14" height="14" viewBox="33 34 14 14">
    <defs>
        <filter id="xcasfh9vla" width="110.3%" height="143.8%" x="-5.1%" y="-21.9%" filterUnits="objectBoundingBox">
            <feOffset dy="8" in="SourceAlpha" result="shadowOffsetOuter1"/>
            <feGaussianBlur in="shadowOffsetOuter1" result="shadowBlurOuter1" stdDeviation="8"/>
            <feColorMatrix in="shadowBlurOuter1" result="shadowMatrixOuter1" values="0 0 0 0 0.0941176471 0 0 0 0 0.0745098039 0 0 0 0 0.341176471 0 0 0 0.072770979 0"/>
            <feMerge>
                <feMergeNode in="shadowMatrixOuter1"/>
                <feMergeNode in="SourceGraphic"/>
            </feMerge>
        </filter>
    </defs>
    <g fill="none" fill-rule="evenodd">
        <g fill="#0CB" fill-rule="nonzero">
            <g>
                <g>
                    <g filter="url(#xcasfh9vla)" transform="translate(-1137 -923) translate(356 165) translate(-120) translate(240 708)">
                        <g>
                            <g>
                                <path d="M3.5 0L8.5 0 8.5 2 3.5 2z" transform="translate(695 82) translate(0 2)"/>
                                <path d="M10 1h-.25c-.138 0-.25.112-.25.25v.25C9.5 2.328 8.828 3 8 3H4c-.828 0-1.5-.672-1.5-1.5v-.25c0-.138-.112-.25-.25-.25H2C1.172 1 .5 1.672.5 2.5v10c0 .828.672 1.5 1.5 1.5h8c.828 0 1.5-.672 1.5-1.5v-10c0-.828-.672-1.5-1.5-1.5z" transform="translate(695 82) translate(0 2)"/>
                            </g>
                        </g>
                    </g>
                </g>
            </g>
        </g>
    </g>
</svg>
