<?xml version="1.0" encoding="UTF-8"?>
<svg width="76px" height="77px" viewBox="0 0 76 77" version="1.1" xmlns="http://www.w3.org/2000/svg" xmlns:xlink="http://www.w3.org/1999/xlink">
    <!-- Generator: sketchtool 41.2 (35397) - http://www.bohemiancoding.com/sketch -->
    <title>AA99CF63-0A24-4A1D-BE20-92492C58CD59</title>
    <desc>Created with sketchtool.</desc>
    <defs></defs>
    <g id="Page-1" stroke="none" stroke-width="1" fill="none" fill-rule="evenodd">
        <g id="contact-us-desktop-large" transform="translate(-681.000000, -387.000000)">
            <g id="phone-call" transform="translate(681.000000, 387.500000)">
                <g id="Capa_1">
                    <g id="Group">
                        <path d="M60.0393586,47.0600338 C58.4840844,45.4406245 56.608135,44.5748017 54.6199494,44.5748017 C52.6477975,44.5748017 50.7558143,45.4245907 49.1364051,47.044 L44.0697384,52.0946329 C43.6528608,51.8701603 43.2359831,51.6617215 42.8351392,51.4532827 C42.2579241,51.1646751 41.7127764,50.8921013 41.2477975,50.6034937 C36.5018059,47.5891477 32.1887257,43.6608776 28.0520169,38.5781772 C26.0477975,36.0448439 24.700962,33.9123544 23.722903,31.7477975 C25.0376709,30.5452658 26.2562363,29.2946329 27.4427342,28.0921013 C27.8916793,27.6431561 28.3406245,27.1781772 28.7895696,26.7292321 C32.1566582,23.3621435 32.1566582,19.000962 28.7895696,15.6338734 L24.4123544,11.2566582 C23.915308,10.7596118 23.4022278,10.2465316 22.9212152,9.73345148 C21.9591899,8.73935865 20.9490633,7.71319831 19.9068692,6.751173 C18.3515949,5.21193249 16.4916793,4.39421097 14.5355612,4.39421097 C12.579443,4.39421097 10.6874599,5.21193249 9.08408439,6.751173 C9.06805063,6.76720675 9.06805063,6.76720675 9.05201688,6.78324051 L3.60054008,12.2828186 C1.54821941,14.3351392 0.377755274,16.8364051 0.12121519,19.7385148 C-0.263594937,24.4203713 1.11530802,28.7815527 2.17353586,31.6355612 C4.77100422,38.6423122 8.651173,45.1359831 14.4393586,52.0946329 C21.4621435,60.4802869 29.9119325,67.1022278 39.5642532,71.7680506 C43.2520169,73.51573 48.1743797,75.5840844 53.6739578,75.936827 C54.0106667,75.9528608 54.3634093,75.9688945 54.6840844,75.9688945 C58.3878819,75.9688945 61.4984304,74.6380928 63.9355612,71.9925232 C63.9515949,71.9604557 63.9836624,71.9444219 63.9996962,71.9123544 C64.8334515,70.9022278 65.7954768,69.9883038 66.8056034,69.0102447 C67.4950549,68.3528608 68.2005401,67.6634093 68.8899916,66.9418903 C70.4773333,65.2904135 71.3110886,63.3663629 71.3110886,61.394211 C71.3110886,59.4060253 70.4612996,57.4980084 68.8418903,55.8946329 L60.0393586,47.0600338 Z M65.779443,63.9435781 C65.7634093,63.9435781 65.7634093,63.9596118 65.779443,63.9435781 C65.1541266,64.6169958 64.5127764,65.2262785 63.8233249,65.8996962 C62.7811308,66.893789 61.722903,67.9359831 60.7288101,69.1064473 C59.1094008,70.8380928 57.201384,71.6558143 54.7001181,71.6558143 C54.4596118,71.6558143 54.2030717,71.6558143 53.9625654,71.6397806 C49.2005401,71.3351392 44.7752236,69.4752236 41.4562363,67.8878819 C32.3811308,63.4946329 24.4123544,57.2575021 17.7904135,49.3528608 C12.322903,42.7629873 8.66720675,36.6701603 6.2461097,30.1283882 C4.75497046,26.1359831 4.20982278,23.0254346 4.45032911,20.0912574 C4.61066667,18.215308 5.33218565,16.6600338 6.66298734,15.3292321 L12.1304979,9.86172152 C12.9161519,9.12416878 13.7499072,8.72332489 14.5676287,8.72332489 C15.5777553,8.72332489 16.3954768,9.33260759 16.908557,9.84568776 C16.9245907,9.86172152 16.9406245,9.87775527 16.9566582,9.89378903 C17.9347173,10.8077131 18.8646751,11.7537046 19.8427342,12.7638312 C20.3397806,13.2769114 20.8528608,13.7899916 21.3659409,14.3191055 L25.7431561,18.6963207 C27.4427342,20.3958987 27.4427342,21.9672068 25.7431561,23.6667848 C25.2781772,24.1317637 24.8292321,24.5967426 24.3642532,25.0456878 C23.0174177,26.4245907 21.7347173,27.7072911 20.3397806,28.9579241 C20.3077131,28.9899916 20.2756456,29.0060253 20.2596118,29.0380928 C18.8807089,30.4169958 19.1372489,31.7638312 19.4258565,32.6777553 C19.4418903,32.7258565 19.4579241,32.7739578 19.4739578,32.8220591 C20.6123544,35.579865 22.21573,38.1773333 24.6528608,41.2718481 L24.6688945,41.2878819 C29.094211,46.7393586 33.7600338,50.9883038 38.9068692,54.2431561 C39.5642532,54.6600338 40.2376709,54.9967426 40.8790211,55.3174177 C41.4562363,55.6060253 42.001384,55.8785992 42.4663629,56.1672068 C42.5304979,56.1992743 42.5946329,56.2473755 42.6587679,56.279443 C43.2039156,56.5520169 43.7169958,56.6802869 44.2461097,56.6802869 C45.5769114,56.6802869 46.4106667,55.8465316 46.6832405,55.5739578 L52.1667848,50.0904135 C52.7119325,49.5452658 53.5777553,48.8878819 54.5878819,48.8878819 C55.5819747,48.8878819 56.3996962,49.5131983 56.8967426,50.058346 C56.9127764,50.0743797 56.9127764,50.0743797 56.9288101,50.0904135 L65.7634093,58.9250127 C67.4148861,60.5604557 67.4148861,62.244 65.779443,63.9435781 Z" id="Shape" fill="#6F7C82"></path>
                        <path d="M41.0553924,18.0710042 C45.2562363,18.7764895 49.07227,20.7646751 52.1186835,23.8110886 C55.165097,26.8575021 57.1372489,30.6735359 57.8587679,34.8743797 C58.0351392,35.9326076 58.9490633,36.6701603 59.9912574,36.6701603 C60.1195274,36.6701603 60.2317637,36.6541266 60.3600338,36.6380928 C61.5465316,36.4456878 62.3321857,35.3233249 62.1397806,34.136827 C61.2739578,29.0541266 58.8688945,24.4203713 55.1971646,20.7486414 C51.5254346,17.0769114 46.8916793,14.6718481 41.8089789,13.8060253 C40.622481,13.6136203 39.5161519,14.3992743 39.3077131,15.5697384 C39.0992743,16.7402025 39.8688945,17.8785992 41.0553924,18.0710042 Z" id="Shape" fill="#2091EB"></path>
                        <path d="M75.8807089,33.5115105 C74.4537046,25.1418903 70.5094008,17.5258565 64.4486414,11.465097 C58.3878819,5.40433755 50.7718481,1.46003376 42.4022278,0.0330295359 C41.2317637,-0.175409283 40.1254346,0.626278481 39.9169958,1.79674262 C39.7245907,2.98324051 40.5102447,4.08956962 41.6967426,4.29800844 C49.1684726,5.56467511 55.9828186,9.10813502 61.4022278,14.5115105 C66.8216371,19.9309198 70.3490633,26.7452658 71.61573,34.2169958 C71.7921013,35.2752236 72.7060253,36.0127764 73.7482194,36.0127764 C73.8764895,36.0127764 73.9887257,35.9967426 74.1169958,35.9807089 C75.2874599,35.8043376 76.0891477,34.6819747 75.8807089,33.5115105 Z" id="Shape" fill="#2091EB"></path>
                    </g>
                </g>
            </g>
        </g>
    </g>
</svg>