<svg xmlns="http://www.w3.org/2000/svg" width="104" height="113" viewBox="0 0 104 113">
    <g fill="#FFF" fill-rule="nonzero" stroke="#A3A3A3" stroke-width=".3">
        <path d="M50.588 47.126c-5.2 0-9.373 4.238-9.373 9.374s4.237 9.374 9.373 9.374c5.2 0 9.372-4.238 9.372-9.374s-4.172-9.374-9.372-9.374zm0 15.538a6.165 6.165 0 0 1-6.163-6.164 6.165 6.165 0 0 1 6.163-6.164A6.165 6.165 0 0 1 56.75 56.5a6.165 6.165 0 0 1-6.163 6.164z"/>
        <path d="M103.807 70.753c0-3.66-3.017-6.677-6.676-6.677-.321 0-.578 0-.899.064-1.54-2.504-3.467-5.072-5.713-7.64 1.155-1.284 2.182-2.632 3.145-3.916 7.126-9.567 9.116-18.17 5.65-24.206-3.467-6.035-11.941-8.603-23.818-7.255-1.605.193-3.274.45-4.943.77-.578-1.604-1.155-3.21-1.797-4.686C64.005 6.227 57.586.257 50.588.257c-2.76 0-5.457.963-8.025 2.825-1.027-.706-2.311-1.092-3.595-1.092-3.66 0-6.677 3.018-6.677 6.678 0 1.862.77 3.53 1.99 4.75-1.348 2.569-2.567 5.394-3.659 8.54a71.324 71.324 0 0 0-4.943-.77c-11.877-1.413-20.286 1.22-23.817 7.255-3.467 6.035-1.477 14.638 5.65 24.205a84.033 84.033 0 0 0 3.145 3.916C9.5 57.848 8.474 59.197 7.51 60.481c-7.126 9.566-9.116 18.17-5.65 24.205 1.927 3.338 5.522 5.714 10.4 6.805.579 3.082 3.339 5.394 6.549 5.394 3.081 0 5.65-2.12 6.42-4.944 1.733-.193 3.53-.45 5.392-.835.578 1.605 1.156 3.21 1.798 4.687 4.75 10.98 11.17 16.95 18.168 16.95 6.997 0 13.417-6.035 18.168-16.95.642-1.477 1.22-3.082 1.797-4.687 1.67.321 3.338.578 4.943.77 2.119.258 4.109.386 5.97.386 8.732 0 14.959-2.632 17.848-7.576 1.412-2.376 1.926-5.2 1.54-8.411 1.798-1.22 2.953-3.274 2.953-5.522zm-3.21 0a3.452 3.452 0 0 1-3.466 3.467 3.452 3.452 0 0 1-3.467-3.467 3.452 3.452 0 0 1 3.467-3.467c1.862 0 3.467 1.541 3.467 3.467zm-24.651-46.42c10.335-1.22 17.847.835 20.607 5.65 2.76 4.816.77 12.328-5.393 20.674-.834 1.156-1.797 2.312-2.76 3.403-3.788-4.045-8.281-7.961-13.353-11.685-.706-6.228-1.862-12.07-3.467-17.4 1.477-.256 2.953-.513 4.366-.641zM61.63 75.57c-3.595 2.118-7.319 3.98-10.978 5.65a127.207 127.207 0 0 1-10.978-5.65 137.584 137.584 0 0 1-10.4-6.678c-.385-3.98-.578-8.154-.578-12.327 0-4.237.193-8.346.578-12.327a106.544 106.544 0 0 1 10.4-6.677c3.66-2.12 7.319-3.981 10.978-5.65 3.66 1.669 7.318 3.53 10.978 5.65a137.584 137.584 0 0 1 10.4 6.677c.385 3.98.577 8.154.577 12.327 0 4.238-.192 8.347-.577 12.327a169.304 169.304 0 0 1-10.4 6.678zm9.822-2.44c-.706 5.072-1.733 9.823-3.082 14.19-4.43-1.028-9.116-2.569-13.802-4.43 2.889-1.413 5.778-2.89 8.602-4.56 2.89-1.669 5.65-3.402 8.282-5.2zm-24.845 9.76c-4.75 1.925-9.372 3.402-13.802 4.43-1.348-4.367-2.375-9.118-3.082-14.19a129.973 129.973 0 0 0 8.282 5.2c2.825 1.67 5.714 3.147 8.602 4.56zm-20.8-16.63c-4.044-3.146-7.64-6.42-10.785-9.759 3.146-3.339 6.741-6.613 10.785-9.76-.256 3.211-.385 6.421-.385 9.76 0 3.274.129 6.549.385 9.76zm3.916-26.388c.707-5.072 1.734-9.823 3.082-14.19 4.43 1.028 9.116 2.569 13.867 4.43-2.89 1.413-5.778 2.89-8.603 4.56a115.659 115.659 0 0 0-8.346 5.2zm24.845-9.76c4.75-1.925 9.373-3.402 13.802-4.43 1.349 4.367 2.376 9.182 3.082 14.19a129.973 129.973 0 0 0-8.282-5.2c-2.824-1.67-5.713-3.147-8.602-4.56zm20.864 16.63c4.045 3.146 7.64 6.42 10.785 9.759-3.145 3.339-6.74 6.613-10.785 9.76.257-3.211.385-6.421.385-9.76 0-3.274-.128-6.549-.385-9.76zM38.968 5.2a3.452 3.452 0 0 1 3.467 3.467 3.452 3.452 0 0 1-3.467 3.467A3.452 3.452 0 0 1 35.5 8.668 3.452 3.452 0 0 1 38.968 5.2zm-1.926 9.823c.578.192 1.22.257 1.926.257 3.66 0 6.676-3.018 6.676-6.678 0-1.155-.32-2.247-.834-3.21 1.926-1.284 3.852-1.99 5.778-1.99 5.52 0 11.106 5.457 15.214 15.024.578 1.284 1.092 2.696 1.605 4.109-5.392 1.284-11.042 3.21-16.82 5.714-5.713-2.504-11.427-4.43-16.82-5.714.964-2.697 2.055-5.2 3.275-7.512zM10.079 50.657C3.852 42.311 1.926 34.8 4.686 29.984c2.76-4.816 10.272-6.87 20.608-5.65 1.412.192 2.889.385 4.365.642-1.605 5.329-2.76 11.171-3.466 17.399-5.008 3.724-9.566 7.705-13.353 11.75-.963-1.156-1.862-2.312-2.761-3.468zm8.73 42.953c-1.86 0-3.402-1.54-3.466-3.403v-.192a3.469 3.469 0 0 1 3.467-3.339 3.452 3.452 0 0 1 3.467 3.467 3.452 3.452 0 0 1-3.467 3.467zm6.549-4.944c-.706-2.953-3.338-5.2-6.484-5.2a6.647 6.647 0 0 0-6.355 4.687c-3.724-.963-6.356-2.697-7.768-5.2-2.76-4.816-.77-12.328 5.392-20.675.835-1.155 1.798-2.311 2.76-3.402 3.788 4.044 8.346 7.96 13.354 11.685.706 6.228 1.862 12.07 3.466 17.4-1.54.32-3.017.513-4.365.705zm40.444 5.843c-4.108 9.567-9.693 15.024-15.214 15.024-5.521 0-11.107-5.457-15.215-15.024-.578-1.284-1.092-2.697-1.605-4.109 5.392-1.284 11.042-3.21 16.82-5.714 5.713 2.504 11.427 4.43 16.82 5.714-.514 1.412-1.028 2.825-1.606 4.11zm30.751-11.493c-2.76 4.816-10.272 6.87-20.607 5.65-1.413-.192-2.89-.385-4.366-.642 1.605-5.329 2.76-11.171 3.467-17.399 5.007-3.724 9.565-7.64 13.353-11.685 1.862 2.183 3.467 4.301 4.815 6.484-1.67 1.22-2.76 3.21-2.76 5.394 0 3.66 3.017 6.677 6.676 6.677.192 0 .45 0 .642-.064.128 2.118-.321 3.98-1.22 5.585z"/>
    </g>
</svg>
