<svg xmlns="http://www.w3.org/2000/svg" width="50" height="54" viewBox="0 0 50 54">
    <g fill="none" fill-rule="evenodd" transform="translate(-5.186 -2.946)">
        <path d="M0 0h60v60H0z"/>
        <path fill="#FFEFB0" fill-rule="nonzero" d="M53.47 26.83v.53a3.41 3.41 0 0 1-2.61 3.25 5.53 5.53 0 0 0-3.43 8.29 3.44 3.44 0 0 1-.43 4.15l-.74.74a3.42 3.42 0 0 1-4.14.46 5.55 5.55 0 0 0-8.3 3.43 3.41 3.41 0 0 1-3.25 2.61h-1.1a3.41 3.41 0 0 1-3.25-2.61 5.55 5.55 0 0 0-8.3-3.43 3.42 3.42 0 0 1-4.14-.46l-.78-.74a3.44 3.44 0 0 1-.46-4.15 5.53 5.53 0 0 0-3.43-8.29 3.41 3.41 0 0 1-2.61-3.25v-.53-.53a3.41 3.41 0 0 1 2.61-3.25 5.53 5.53 0 0 0 3.43-8.29 3.43 3.43 0 0 1 .46-4.15l.74-.74a3.42 3.42 0 0 1 4.14-.46A5.53 5.53 0 0 0 26.22 6a3.41 3.41 0 0 1 3.25-2.61h1.06A3.41 3.41 0 0 1 33.78 6a5.53 5.53 0 0 0 8.3 3.43 3.42 3.42 0 0 1 4.14.46l.74.74a3.43 3.43 0 0 1 .46 4.15 5.53 5.53 0 0 0 3.43 8.29 3.41 3.41 0 0 1 2.61 3.25c.01.16.01.33.01.51z"/>
        <path fill="#FFC670" fill-rule="nonzero" d="M45.21 26.83c0-8.72-7.34-14.63-16.18-14.08-7.6.47-13.77 5.57-14.21 13.17a15.16 15.16 0 0 0 5 12.19A14.61 14.61 0 0 1 24.53 49h10.94a15 15 0 0 1 4.86-11 15.17 15.17 0 0 0 4.88-11.17z"/>
        <path fill="#FFE88A" fill-rule="nonzero" d="M16.5 29.61a15 15 0 0 1 27.72-8C41.94 15.87 36 12.32 29 12.75c-7.6.47-13.77 5.57-14.21 13.17A15.1 15.1 0 0 0 18 36.15a14.93 14.93 0 0 1-1.5-6.54z"/>
        <path fill="#FF9A42" fill-rule="nonzero" d="M30 40.52a17.38 17.38 0 0 1-13-5.88 15.35 15.35 0 0 0 2.84 3.47A14.61 14.61 0 0 1 24.53 49h10.94a15 15 0 0 1 4.86-11 15.29 15.29 0 0 0 2.72-3.38A17.35 17.35 0 0 1 30 40.52z"/>
        <path fill="#EDF4FF" fill-rule="nonzero" d="M35 47.58c.33.711.5 1.486.5 2.27a5.47 5.47 0 1 1-10.94 0c0-.784.17-1.559.5-2.27H35z"/>
        <path fill="#D8E3F0" fill-rule="nonzero" d="M30 53.17a5.46 5.46 0 0 1-5.36-4.38 5.37 5.37 0 0 0-.11 1.06 5.47 5.47 0 1 0 10.94 0 5.37 5.37 0 0 0-.11-1.06A5.46 5.46 0 0 1 30 53.17z"/>
        <rect width="19.35" height="4.15" x="20.33" y="44.81" fill="#D8E3F0" fill-rule="nonzero" rx="1.92" transform="rotate(180 30.005 46.885)"/>
        <path fill="#FFDEAD" fill-rule="nonzero" d="M34.82 33.38h-2.63v-2.63a2.26 2.26 0 0 1 2.26-2.26h.36a2.26 2.26 0 0 1 2.26 2.26v.36a2.26 2.26 0 0 1-2.25 2.27zM25.17 28.49h.36a2.26 2.26 0 0 1 2.26 2.26v2.63h-2.62a2.26 2.26 0 0 1-2.26-2.26v-.36a2.26 2.26 0 0 1 2.26-2.27z"/>
        <path fill="#3D3D63" fill-rule="nonzero" d="M46.21 27.83A16.3 16.3 0 0 0 41.1 16a16.216 16.216 0 1 0-22 23.83 13.23 13.23 0 0 1 3.39 5h-.29a2.92 2.92 0 0 0-2.92 2.92V48a2.92 2.92 0 0 0 2.96 3h1.34a6.47 6.47 0 0 0 12.84 0h1.34a2.92 2.92 0 0 0 2.92-3v-.3a2.92 2.92 0 0 0-2.92-2.92h-.25a14 14 0 0 1 3.5-5.1 16.27 16.27 0 0 0 5.2-11.85zM30 54.64A4.47 4.47 0 0 1 25.61 51h8.78A4.47 4.47 0 0 1 30 54.64zm7.76-7.82a.92.92 0 0 1 .92.92V48a.92.92 0 0 1-.92.92H22.24a.92.92 0 0 1-.92-.92v-.3a.92.92 0 0 1 .92-.92l15.52.04zm-11-13.44h-1.59a1.27 1.27 0 0 1-1.26-1.26v-.37a1.27 1.27 0 0 1 1.26-1.26h.37a1.27 1.27 0 0 1 1.26 1.26l-.04 1.63zm2 11.44v-9.44h2.4v9.44h-2.4zm6.57 0H33.2v-9.44h1.63c1.8 0 3.26-1.46 3.26-3.26v-.37c0-1.8-1.46-3.26-3.26-3.26h-.37a3.27 3.27 0 0 0-3.26 3.26v1.63h-2.4v-1.63a3.27 3.27 0 0 0-3.26-3.26h-.37a3.26 3.26 0 0 0-3.26 3.26v.37c0 1.8 1.46 3.26 3.26 3.26h1.63v9.44h-2.14a15.27 15.27 0 0 0-4.18-6.45A14.15 14.15 0 0 1 15.82 27a14.37 14.37 0 0 1 13.27-13.35 14.22 14.22 0 0 1 15.12 14.18 14.27 14.27 0 0 1-4.56 10.42 16.17 16.17 0 0 0-4.28 6.57h-.04zM33.2 33.38v-1.63a1.27 1.27 0 0 1 1.26-1.26h.37a1.27 1.27 0 0 1 1.26 1.26v.37a1.27 1.27 0 0 1-1.26 1.26H33.2z"/>
        <path fill="#3D3D63" fill-rule="nonzero" d="M21.51 19.6a12.1 12.1 0 0 0-2.78 4.12 1 1 0 0 0 .54 1.3c.12.05.25.077.38.08a1 1 0 0 0 .93-.63A10.11 10.11 0 0 1 22.9 21a1 1 0 0 0-1.39-1.44v.04zM26.06 16.81c-.476.159-.94.35-1.39.57a1 1 0 0 0 .44 1.9 1 1 0 0 0 .44-.1 9.12 9.12 0 0 1 1.16-.48 1 1 0 0 0-.65-1.89zM30 8.05a1 1 0 0 0 1-1V4.36a1 1 0 0 0-2 0v2.69a1 1 0 0 0 1 1zM14.6 13.85a1 1 0 0 0 1.4-1.42l-1.91-1.9a1 1 0 0 0-1.41 1.41l1.92 1.91zM9.22 26.83H6.53a1 1 0 0 0 0 2h2.69a1 1 0 0 0 0-2zM14.6 41.81l-1.9 1.91a1 1 0 0 0 1.41 1.41l1.89-1.9a1.004 1.004 0 1 0-1.42-1.42h.02zM45.4 41.81a1 1 0 1 0-1.4 1.42l1.91 1.9a1 1 0 0 0 1.41-1.41l-1.92-1.91zM53.47 26.83h-2.69a1 1 0 0 0 0 2h2.69a1 1 0 0 0 0-2zM45.89 10.53L44 12.43a1.004 1.004 0 1 0 1.42 1.42l1.9-1.91a1 1 0 0 0-1.41-1.41h-.02z"/>
    </g>
</svg>
