<svg xmlns="http://www.w3.org/2000/svg" width="200" height="200" viewBox="0 0 200 200">
  <g fill="none" fill-rule="evenodd">
    <path fill="#EBEFF4" d="M0,0 L0,200 L200,200 L200,0 L0,0"/>
    <path fill="#708095" fill-opacity=".301" d="M99.8020936,163.688428 L39.1298765,163.688428 C39.1298765,123.696904 78.0982727,123.706292 86.7457113,113.249229 L87.7352616,108.480733 C75.5860459,102.931286 67.0096277,89.5518444 67.0096277,73.9038036 C67.0096277,53.2884018 81.8879189,36.5734879 100.236738,36.5734879 C118.585558,36.5734879 133.463849,53.2884018 133.463849,73.9038036 C133.463849,89.4186986 125.039888,102.714498 113.052598,108.351855 L114.179455,113.770717 C123.666827,123.720802 161.338865,124.369461 161.338865,163.690135 L100.669489,163.690135 L99.8020936,163.688428 Z"/>
  </g>
</svg>
