<svg xmlns="http://www.w3.org/2000/svg" width="48" height="48" viewBox="0 0 48 48">
    <g fill="none" fill-rule="evenodd">
        <path fill="#542EFF" d="M0 0H48V48H0z"/>
        <path fill="#FFF" d="M23.996 8c.04 0 .076.022.094.057l5.095 10.096c.176.349.519.584.908.622l9.812.973c.05.004.079.025.09.056.011.03.003.065-.02.088L31.9 27.897c-.294.29-.407.717-.298 1.115l2.994 10.877c.007.027-.005.066-.035.09-.029.023-.07.028-.103.01l-9.955-4.929c-.32-.158-.694-.158-1.014 0l-9.934 4.92c-.04.02-.08.016-.11-.008-.03-.023-.042-.062-.033-.099l2.992-10.867c.11-.398-.004-.825-.298-1.115l-8.081-8.005c-.023-.023-.031-.057-.02-.088.011-.03.04-.052.072-.055l9.83-.974c.39-.038.732-.273.908-.622l5.09-10.096c.016-.029.052-.051.091-.051z"/>
    </g>
</svg>
