<svg xmlns="http://www.w3.org/2000/svg" xmlns:xlink="http://www.w3.org/1999/xlink" width="68" height="16" viewBox="0 0 68 16"><defs><path id="a" d="M35.928 15.992H.008V.027h35.92v15.965z"/></defs><g fill="none" fill-rule="evenodd"><mask id="b" fill="#fff"><use xlink:href="#a"/></mask><path fill="#FFF" d="M28.366 4.845c0-.674.162-1.214.427-1.633.53-.837 1.474-1.195 2.382-1.193.894.002 1.815.354 2.363 1.12.31.433.5.998.5 1.706h-5.672zM6.412 4.651c-1.184-.07-2.272-.094-2.863-.613-.34-.299-.273-1.158.204-1.47.686-.448 1.516-.433 1.995-.406.969.055 2.084.403 2.963 1.044l1.028-1.044s1.085 1.09 1.085 1.044c1.266-.966 1.712-.969 2.891-.968 1.612.002 2.075.345 2.312.734.15.245.002 1.741.002 1.741s-1.423.048-2.45-.008c-.815-.045-1.271-.048-2.092.098-.733.131-1.237.367-1.748.83 0 0-.437-.334-.914-.573-.866-.435-1.486-.354-2.413-.409zm8.765 4.602c-.53.183-1.38.275-2.284.156-.753-.1-1.469-.158-1.762-.899-.159-.402-.125-.77.122-1.113.388-.54 1.286-.644 1.825-.65h2.95c.08.843.326 2.103-.85 2.506zm4.524-3.596c.02-.618.074-1.278.134-1.926.029-.317.378-.699.867-.992.445-.266 1.007-.458 1.552-.461.415-.003.84.083 1.218.243.656.276 1.165.775 1.218 1.412.048.594.104 1.156.13 1.694.031.672.016 1.308-.117 1.924a1.825 1.825 0 0 1-.63 1.045c-.415.36-1.057.68-1.819.633-1.065-.065-2.018-.528-2.299-1.175-.237-.545-.286-1.417-.254-2.397zm16.227-.78c0-1.677-1.187-4.805-5.023-4.818a5.284 5.284 0 0 0-3.495 1.33V.2h-2.566v1.19C24.216.794 23.452.257 22.683.13c-.817-.134-1.635-.094-2.645.24-.84.278-1.377.688-1.895 1.33C17.07.383 15.379.121 14.03.067 12.494.006 10.945.214 9.739 1.18 8.576.53 7.106.017 5.475.027 4.04.036 2.665.39 1.692 1.312c-.35.332-.509.597-.683 1.068-.344.934-.2 2.013.183 2.576.717 1.05 1.52 1.458 2.96 1.636 1.267.156 2.154.156 3.09.345.443.09.849.449.849.981 0 .621-.792 1.64-2.705 1.502-1.593-.113-2.195-.36-3.694-1.428L0 9.492s.289.252.485.394c.19.137.387.265.59.385h.005c1.707 1.01 3.867 1.432 5.822 1.089.958-.169 1.868-.521 2.651-1.08.633.475 1.469 1.289 3.493 1.189 1.274-.063 2.22-.013 3.104-1.128v1.114h2.478v-1.114s.39.347.665.527c1.574 1.036 4.077.644 5.558-.59l.003 1.44c-.042.89-.787 1.498-1.57 1.841-1.353.592-2.585.061-3.685-.79l-1.878 1.377c.507.557.97.882 1.693 1.245 2.03 1.02 4.407.672 6.046-.394 1.081-.704 1.5-1.566 1.76-2.891.14-.705.153-1.22.174-1.838l.001-.05.065.05c.523.4.986.697 1.693.933 1.142.38 2.44.397 3.891-.017a5.281 5.281 0 0 0 1.802-.916h.002a6.35 6.35 0 0 0 .81-.76l-1.62-1.264c-.548.49-1.365.985-2.296 1.114-1.075.15-2.294-.063-2.954-.848-.357-.424-.481-.557-.481-1.631l7.62.009V4.877z" mask="url(#b)"/><path fill="#FFF" d="M38 .333h1.218v2.175A3.881 3.881 0 0 1 40.742.666C41.435.222 42.23 0 43.126 0c1.583 0 2.79.572 3.624 1.717C47.583 2.86 48 4.305 48 6.047c0 1.728-.42 3.168-1.26 4.32-.841 1.151-2.045 1.727-3.614 1.727a4.245 4.245 0 0 1-2.31-.648c-.687-.433-1.17-1.045-1.45-1.837L39.324 16H38V.333zm5.126.843c-1.344 0-2.314.454-2.91 1.362-.595.908-.892 2.077-.892 3.51 0 1.357.308 2.509.924 3.453.616.945 1.575 1.417 2.878 1.417 1.162 0 2.045-.483 2.647-1.45.602-.967.903-2.107.903-3.42 0-1.33-.297-2.473-.892-3.433-.596-.96-1.481-1.439-2.658-1.439zM49.46 3.81c0-1.278.401-2.232 1.203-2.863C51.465.316 52.522 0 53.833 0c1.157 0 2.11.264 2.855.793.747.528 1.12 1.482 1.12 2.862v6.033c0 .558.258.837.774.837.14 0 .278-.03.418-.088v1.167c-.265.058-.55.088-.858.088-.627 0-1.042-.158-1.244-.474-.203-.315-.304-.818-.304-1.508-.53.8-1.077 1.381-1.642 1.745-.565.363-1.342.545-2.333.545-1.06 0-1.928-.278-2.604-.835C49.338 10.608 49 9.781 49 8.682c0-.996.258-1.733.774-2.208a3.771 3.771 0 0 1 1.778-.934 28.7 28.7 0 0 1 2.49-.407c.99-.124 1.646-.252 1.966-.384.321-.132.482-.55.482-1.253 0-.879-.248-1.487-.743-1.824-.495-.337-1.19-.505-2.082-.505-.864 0-1.562.217-2.092.65-.53.433-.795 1.097-.795 1.992H49.46zm7.03 1.673a.74.74 0 0 1-.356.285c-.167.073-.62.179-1.36.318-.74.138-1.667.31-2.782.515-1.116.365-1.674 1.03-1.674 1.995 0 .673.237 1.214.711 1.623.475.41 1.04.614 1.695.614 1.046 0 1.935-.325 2.667-.976.732-.65 1.099-1.51 1.099-2.577V5.483z"/><path fill="#FFF" d="M58 .006L59.476 0l3.692 9.321L66.626.006H68l-4.88 12.636c-.392.927-.775 1.551-1.152 1.874-.376.323-.977.484-1.802.484-.507 0-.854-.028-1.042-.085v-1.126c.361.057.673.085.933.085.637 0 1.07-.175 1.302-.527a9.06 9.06 0 0 0 .651-1.18l.478-1.245L58 .006"/></g></svg>