<svg height="48" viewBox="0 0 100 48" width="100" xmlns="http://www.w3.org/2000/svg"><g fill="none" fill-rule="evenodd"><path d="m0 0h100v48h-100z" fill="none"/><g fill="#4c5157" transform="translate(24 7)"><path d="m23.0599379.83134021c0-.5014433-.3291926-.70927835-.7439752-.70927835h-2.603913c-1.0369565 0-1.7743478.51793814-1.7743478 1.78804123v22.38680411c0 .4981443.3291925.7092784.7439751.7092784h2.6006211c1.0402485 0 1.7743479-.5179382 1.7743479-1.7913402v-22.38350519z"/><path d="m52.6576398 9.01608247c.1020496-.21773195.2073913-.42226804.2073913-.63340206 0-.42226804-.3061491-.63010309-.7275156-.63010309h-3.1635403c-.6320497 0-.9184472.2243299-1.148882.73896907l-4.460559 9.92329901-6.2250311-9.82432994c-.3851553-.60701031-.7900621-.84123711-1.7118012-.84123711h-3.7593789c-.7834783 0-1.1982609.20783505-1.6657143.70597938l-6.623354 7.13237117 5.9419254 8.6762886c.3423603.4981444.6320497.7356701 1.148882.7356701h3.5388199c.53 0 .839441-.211134.839441-.6564948 0-.2738144-.131677-.4519588-.309441-.7059794l-5.2177019-7.7426804 3.9601864-4.2754639 7.8216149 11.5892783-3.4565218 7.3270103c-.0954658.214433-.2040994.425567-.2040994.6301031 0 .4222681.3061491.6268041.7308075.6268041h3.137205c.6386335 0 .9118633-.2210309 1.148882-.7356701z"/><path d="m6.48838509 13.7171134c-1.03695652-.2309278-1.35956521-.5245361-1.35956521-1.0556701 0-.4057732.32260869-.7290722 1.26080745-.7290722h7.59447207c1.2640994 0 1.7776397-.738969 1.7776397-1.7781443v-1.6527835c0-.4156701-.2073913-.74886598-.7011801-.74886598h-8.89807453c-3.96347826 0-6.04397515 2.29938148-6.04397515 5.23216498 0 2.6061855 1.59987577 4.1929897 4.7963354 4.9088659l5.10248448 1.1447423c1.0369565.2342268 1.3628571.5278351 1.3628571 1.0556701 0 .4090722-.3226087.7323712-1.2608074.7323712h-7.91378884c-1.2673913 0-1.78093167.7356701-1.78093167 1.7748453v1.6560825c0 .4156701.2073913.748866.70447204.748866h8.68080746c4.68770191 0 6.58055901-2.3026804 6.58055901-5.0243299 0-2.8173196-1.6229193-4.4008248-4.7996273-5.1134021z"/></g></g></svg>