<svg xmlns="http://www.w3.org/2000/svg" width="20" height="20" viewBox="0 0 20 20">
  <g fill="none" fill-rule="evenodd" transform="translate(-1 -1)">
    <rect width="22" height="22" fill="#FFF" opacity="0"/>
    <path fill="#FFFFFF" d="M11.0023864,18.0023864 C11.8308135,18.0023864 12.5023864,18.6739593 12.5023864,19.5023864 C12.5023864,20.3308135 11.8265773,20.9329687 11.0023864,21.0023864 L10.7909552,21.0023864 C7.10428927,20.9216572 3.60312998,18.7966456 1.93930853,15.228569 C-0.394747678,10.2231693 1.77080409,4.27336474 6.77620378,1.93930853 C11.7816035,-0.394747678 17.7314081,1.77080409 20.0654643,6.77620378 C20.4155727,7.52701374 20.0907399,8.41948443 19.33993,8.76959286 C18.58912,9.11970129 17.6966493,8.79486852 17.3465409,8.04405857 C15.7127016,4.54027878 11.5478384,3.02439255 8.04405857,4.65823189 C4.54027878,6.29207124 3.02439255,10.4569344 4.65823189,13.9607142 C5.83555928,16.485501 8.32711865,17.9780757 10.9385337,18.0037209 C10.9597075,18.0028342 10.9809946,18.0023864 11.0023864,18.0023864 Z"/>
  </g>
</svg>
