<svg xmlns="http://www.w3.org/2000/svg" width="91" height="17" viewBox="0 0 91 17"><path d="M8.946 13.322L4.789 16.35c-.712.52-1.092.254-.845-.602L5.42 10.64 1.385 7.437c-.692-.549-.543-1.01.353-1.029l5.029-.107 1.673-5.04c.28-.841.73-.845 1.01 0l1.674 5.04 5.029.107c.887.02 1.04.484.353 1.03L12.47 10.64l1.476 5.108c.246.852-.137 1.118-.845.602l-4.156-3.028zm18.606 0l-4.156 3.028c-.713.52-1.093.254-.845-.602l1.476-5.108-4.035-3.203c-.692-.549-.543-1.01.353-1.029l5.028-.107 1.673-5.04c.28-.841.73-.845 1.011 0l1.674 5.04 5.028.107c.887.02 1.04.484.353 1.03l-4.035 3.202 1.476 5.108c.246.852-.137 1.118-.845.602l-4.156-3.028zm18.367.01l-4.16 3.03c-.714.52-1.094.255-.847-.602l1.478-5.112-4.04-3.205c-.692-.55-.543-1.01.354-1.03l5.034-.107 1.675-5.045c.28-.841.731-.845 1.012 0L48.1 6.306l5.034.107c.888.019 1.04.484.353 1.03l-4.04 3.205 1.478 5.112c.247.853-.137 1.12-.846.603l-4.16-3.03zm18.351-.01l-4.157 3.028c-.713.52-1.092.254-.845-.602l1.476-5.108-4.035-3.203c-.692-.549-.543-1.01.353-1.029l5.028-.107 1.674-5.04c.279-.841.73-.845 1.01 0l1.674 5.04 5.028.107c.887.02 1.04.484.353 1.03l-4.034 3.202 1.475 5.108c.247.852-.137 1.118-.845.602l-4.156-3.028zm18.693 0l-4.156 3.028c-.713.52-1.092.254-.845-.602l1.476-5.108-4.035-3.203c-.692-.549-.543-1.01.353-1.029l5.028-.107 1.674-5.04c.279-.841.73-.845 1.01 0l1.674 5.04 5.028.107c.887.02 1.04.484.353 1.03l-4.035 3.202 1.476 5.108c.246.852-.137 1.118-.845.602l-4.156-3.028z" fill="#FFB400" fill-rule="evenodd"/></svg>