<svg height="23" viewBox="0 0 128 23" width="128" xmlns="http://www.w3.org/2000/svg"><g fill="#fac219" fill-rule="evenodd"><path d="m11.7612234 17.7595165-6.27042591 4.3062247c-.38813095.2665489-.91887835.1680227-1.18545844-.2200648-.14717343-.2142553-.18854437-.4839426-.112363-.732456l2.20660679-7.198166-6.05776236-4.53254384c-.37699639-.28207668-.45391808-.81632523-.17181127-1.19327804.15736306-.2102685.40286904-.336277.6654662-.34155808l7.61207231-.15309161 2.50951628-7.12504641c.1564082-.44407523.6432369-.67728949 1.0873618-.5208988.2435919.08577597.43517.27733408.520957.5208988l2.5095178 7.12504641 7.6120708.15309161c.4707663.00946673.8447219.3987307.8352527.86944433-.0052817.2625678-.1313043.50804633-.3415963.66539179l-6.0577638 4.53254384 2.2066082 7.198166c.1379899.4501378-.1150969.9268969-.565285 1.0648713-.2485397.0761742-.5182572.0348065-.7325378-.1123505z" transform="translate(104)"/><path d="m11.7612234 17.7595165-6.27042591 4.3062247c-.38813095.2665489-.91887835.1680227-1.18545844-.2200648-.14717343-.2142553-.18854437-.4839426-.112363-.732456l2.20660679-7.198166-6.05776236-4.53254384c-.37699639-.28207668-.45391808-.81632523-.17181127-1.19327804.15736306-.2102685.40286904-.336277.6654662-.34155808l7.61207231-.15309161 2.50951628-7.12504641c.1564082-.44407523.6432369-.67728949 1.0873618-.5208988.2435919.08577597.43517.27733408.520957.5208988l2.5095178 7.12504641 7.6120708.15309161c.4707663.00946673.8447219.3987307.8352527.86944433-.0052817.2625678-.1313043.50804633-.3415963.66539179l-6.0577638 4.53254384 2.2066082 7.198166c.1379899.4501378-.1150969.9268969-.565285 1.0648713-.2485397.0761742-.5182572.0348065-.7325378-.1123505z" transform="translate(78)"/><path d="m11.7612234 17.7595165-6.27042591 4.3062247c-.38813095.2665489-.91887835.1680227-1.18545844-.2200648-.14717343-.2142553-.18854437-.4839426-.112363-.732456l2.20660679-7.198166-6.05776236-4.53254384c-.37699639-.28207668-.45391808-.81632523-.17181127-1.19327804.15736306-.2102685.40286904-.336277.6654662-.34155808l7.61207231-.15309161 2.50951628-7.12504641c.1564082-.44407523.6432369-.67728949 1.0873618-.5208988.2435919.08577597.43517.27733408.520957.5208988l2.5095178 7.12504641 7.6120708.15309161c.4707663.00946673.8447219.3987307.8352527.86944433-.0052817.2625678-.1313043.50804633-.3415963.66539179l-6.0577638 4.53254384 2.2066082 7.198166c.1379899.4501378-.1150969.9268969-.565285 1.0648713-.2485397.0761742-.5182572.0348065-.7325378-.1123505z" transform="translate(52)"/><path d="m11.7612234 17.7595165-6.27042591 4.3062247c-.38813095.2665489-.91887835.1680227-1.18545844-.2200648-.14717343-.2142553-.18854437-.4839426-.112363-.732456l2.20660679-7.198166-6.05776236-4.53254384c-.37699639-.28207668-.45391808-.81632523-.17181127-1.19327804.15736306-.2102685.40286904-.336277.6654662-.34155808l7.61207231-.15309161 2.50951628-7.12504641c.1564082-.44407523.6432369-.67728949 1.0873618-.5208988.2435919.08577597.43517.27733408.520957.5208988l2.5095178 7.12504641 7.6120708.15309161c.4707663.00946673.8447219.3987307.8352527.86944433-.0052817.2625678-.1313043.50804633-.3415963.66539179l-6.0577638 4.53254384 2.2066082 7.198166c.1379899.4501378-.1150969.9268969-.565285 1.0648713-.2485397.0761742-.5182572.0348065-.7325378-.1123505z" transform="translate(26)"/><path d="m11.7612234 17.7595165-6.27042591 4.3062247c-.38813095.2665489-.91887835.1680227-1.18545844-.2200648-.14717343-.2142553-.18854437-.4839426-.112363-.732456l2.20660679-7.198166-6.05776236-4.53254384c-.37699639-.28207668-.45391808-.81632523-.17181127-1.19327804.15736306-.2102685.40286904-.336277.6654662-.34155808l7.61207231-.15309161 2.50951628-7.12504641c.1564082-.44407523.6432369-.67728949 1.0873618-.5208988.2435919.08577597.43517.27733408.520957.5208988l2.5095178 7.12504641 7.6120708.15309161c.4707663.00946673.8447219.3987307.8352527.86944433-.0052817.2625678-.1313043.50804633-.3415963.66539179l-6.0577638 4.53254384 2.2066082 7.198166c.1379899.4501378-.1150969.9268969-.565285 1.0648713-.2485397.0761742-.5182572.0348065-.7325378-.1123505z"/></g></svg>