<svg height="48" viewBox="0 0 160 48" width="160" xmlns="http://www.w3.org/2000/svg"><g fill="none" fill-rule="evenodd"><path d="m0 0h160v48h-160z" fill="none"/><g fill="#4c5157" transform="translate(5 17)"><path d="m1.16331181 14.3763462.40639022.0092307c.12034472-.3455769.35921993-.6628846.79403327-.6628846.80431397 0 1.48465474.9219231 4.57672793.9219231 2.00715644 0 4.52048637-1.4232692 4.52048637-4.6361539 0-4.70134612-7.88530062-3.89134612-7.88530062-7.06211535 0-1.17230769 1.13511078-1.73134615 2.40084697-1.73134615 1.881369 0 3.20697519 1.36788462 3.79237062 3.11826923h.43602283v-3.73269231h-.61381855c-.10038806.2948077-.16932926.49096154-.47472667.49096154-.71420661 0-1.29113558-.84346154-3.35876677-.84346154-2.52179644 0-5.13914296 1.0373077-5.13914296 4.05461539 0 5.04 7.98810772 4.34423077 7.98810772 7.50173079 0 1.0257692-1.23791782 1.8796154-2.71894408 1.8796154-1.99264251 0-3.97802805-1.5351923-4.31789606-3.4817308h-.56906725z"/><path d="m106.491553 14.3013462v-.5544231c-1.191957 0-1.663056-.7159616-1.663056-2.1975v-8.27711541c0-1.48096154.330797-2.06769231 1.453208-2.06769231v-.60403846h-6.7090668v.60403846c1.1375298 0 1.4725598.58673077 1.4725598 2.06769231v8.27711541c0 1.4815384-.474122 2.1975-1.6811976 2.1975v.5544231z"/><path d="m116.218309 14.3013462 4.453964-11.00653851v8.25461541c0 1.6378846-.307212 2.025-1.93761 2.1975v.5544231h7.558132v-.5544231c-1.814242-.1725-1.938215-.7159616-1.938215-2.1975v-8.14788464c0-1.8375.328378-1.93442308 1.938215-2.19692308v-.60403846h-5.892658l-3.535958 8.92038462-3.473669-8.92038462h-5.875725v.60403846c1.371567 0 1.916444.71596154 1.916444 2.19692308v8.35903844c0 1.4809616-.281812 1.7492308-1.916444 1.9863462v.5544231h5.135515v-.5544231c-1.871089-.27-1.939425-.5053846-1.939425-1.9863462v-7.88019228l4.386232 10.42096158z"/><path d="m139.330543 14.3013462v-4.0673077h-.502545c-.807942 2.9261538-1.774329 3.1032692-3.105982 3.1032692h-1.775539c-.847855 0-1.009323-.2705769-1.009323-1.0009615v-4.63153851c2.146248.03403846 3.63937-.22673077 3.777857 1.72096154h.542458v-4.36788461h-.542458c-.135464 1.7076923-1.721111 1.54153846-3.777857 1.54153846v-5.03653846h2.258731c2.300459 0 3.288617.8475 3.510559 2.92557692h.444489v-3.88788462h-11.860305v.59192308c1.391524 0 1.938215.32596154 1.938215 1.80865385v8.94980765c0 1.4815385-.546691 1.8092308-1.938215 1.8092308v.5411539z"/><path d="m141.100034 14.3763462h.406995c.11853-.345577.35922-.6536539.791614-.6536539.41788 0 2.310135.9219231 4.579147.9219231 2.005342 0 4.519882-1.4232692 4.519882-4.6361539 0-4.70134612-7.885906-3.89134612-7.885906-7.06211535 0-1.17230769 1.135111-1.73134615 2.399033-1.73134615 1.883788 0 3.209999 1.36788462 3.794185 3.11826923h.436627v-3.73269231h-.612004c-.103412.2948077-.171143.49096154-.476541.49096154-.713602 0-1.292345-.84346154-3.358767-.84346154-2.521191 0-5.137933 1.0373077-5.137933 4.05461539 0 5.04 7.986898 4.34423077 7.986898 7.50173079 0 1.0257692-1.236708 1.8796154-2.720153 1.8796154-1.992643 0-3.976819-1.5351923-4.316082-3.4817308h-.570277z"/><path d="m96.7496776 14.3013462v-.5913462c-1.4761883 0-2.3990328-.3248077-2.3990328-1.8086538v-9.99980774c2.9197202 0 3.6109465.50019231 3.8818733 2.69423077h.6851787v-3.99519231h-13.0697997v3.99519231h.6833645c.2715316-2.19403846.9645721-2.69423077 3.8818733-2.69423077v9.99980774c0 1.4838461-.919216 1.8086538-2.3978233 1.8086538v.5913462z"/><path d="m26.8928925 1.20461538c.8067329 0 1.079474.19211539 1.7840046.9998077v9.68250002c0 1.4809615-.7129971 1.8086538-2.1909996 1.8086538v.6057693h5.7934796v-.6057693c-1.5959283 0-2.2992494-.3276923-2.2992494-1.8086538v-7.6494231h.0399133l8.1235711 10.0638462h1.6999448v-10.98461543c0-1.48326923.5091973-2.01115385 1.936401-2.11211539v-.60403846h-4.9625567v.60403846c1.4278085.2625 1.7338106.62884616 1.7338106 2.11211539v5.75134615h-.0399133l-6.6225882-8.4675h-10.3575078v.60403846c1.2911356.03865385 1.9097921.61615385 1.9097921 1.80865385v6.70384615c0 2.53961542-.8653934 3.50134612-3.0400649 3.50134612-1.371567 0-3.0249462-.614423-3.0249462-2.6555769v-7.54961537c0-1.48211538.5454821-1.80865385 1.936401-1.80865385v-.60403846h-7.5587371v.60403846c1.3927331 0 1.9357962.32653847 1.9357962 1.80865385v7.29346157c0 3.2711538 2.3802856 4.3713461 5.6477355 4.3713461 3.5788948 0 5.471754-1.1965384 5.471754-4.4117307v-7.25307697c0-1.48211538.6573604-1.80865385 2.0839594-1.80865385"/><path d="m44.4311703 11.8869231c0 1.4809615-.5436679 1.8086538-1.9351915 1.8086538v.6057693h7.1656513c4.5174627 0 7.5835317-1.7965385 7.5835317-6.83307697 0-5.07923077-3.066069-6.86769231-7.5835317-6.86769231h-7.1656513v.60403846c1.3915236 0 1.9351915.32653847 1.9351915 1.80865385zm3.7385481-10.30903848c3.7736234-.42173077 5.30182 2.40923076 5.30182 5.52576923 0 4.52538465-1.2548508 6.14769235-3.9762138 6.14769235-.8926071 0-1.3256062-.3057693-1.3256062-1.4215385z"/><path d="m71.2505057 13.7076923c-.8956309.0057692-1.5058209-.4280769-1.8704836-1.2732692l-4.5888229-12.2844231-2.6179512.64846154-4.0651117 11.08096156c-.5872097 1.4440384-1.3727765 1.7544231-2.5961804 1.8282692v.5936539h5.711234v-.5936539c-1.2306609 0-2.0428365-.3646154-2.0428365-.8653846 0-.3663462.1015975-.6548077.263065-1.0771154l.7341633-1.6915385h4.274959l.9343347 1.9996154c.1015975.2676923.2213375.615577.2213375.923077 0 .4615384-.3622436.7113461-.8272944.7113461h-1.1109208v.5936539h15.3974722v-.6057693c-1.3903142 0-2.2097468-.3276923-2.2097468-1.8086538v-4.05115387l3.3992848-5.16865385c.8490653-1.23346153 1.3927332-1.36153846 2.5840854-1.4625v-.60403846h-5.2020367v.60403846c.809152 0 1.3758003.21115385 1.3758003.75 0 .4425-.2201281.84634616-.4239279 1.21269231l-2.3101349 3.30576923-2.0392081-3.32423077c-.2624603-.48173077-.5660435-1.00153846-.5660435-1.34711538 0-.34673077.3223304-.59711539 1.1302728-.59711539v-.60403846h-7.6343305v.60403846c.7861716.135 1.6993401.03576924 2.3778666 1.03846154l3.6520692 5.59269231v4.05115387c0 1.4809615-.8871644 1.8155769-1.9509149 1.8207692zm-7.1390425-4.81730768h-3.5341435l1.7670718-4.97884616z"/></g></g></svg>