<svg xmlns="http://www.w3.org/2000/svg" width="108" height="21" viewBox="0 0 108 21">
    <g fill="none" fill-rule="nonzero">
        <path fill="#01B67B" d="M0 .47h19.925v19.925H0z"/>
        <path fill="#FFF" d="M9.975 13.945l3.025-.8 1.275 3.925-4.3-3.125zM16.95 8.87H11.6L9.95 3.795 8.3 8.87H2.95l4.325 3.15-1.65 5.075L9.95 13.97l2.675-1.95 4.325-3.15z"/>
        <path fill="#01B67B" d="M22 .47h19.925v19.925H22z"/>
        <path fill="#FFF" d="M31.975 13.945l3.025-.8 1.275 3.925-4.3-3.125zM38.95 8.87H33.6l-1.65-5.075L30.3 8.87h-5.35l4.325 3.15-1.65 5.075 4.325-3.125 2.675-1.95 4.325-3.15z"/>
        <path fill="#01B67B" d="M44 .47h19.925v19.925H44z"/>
        <path fill="#FFF" d="M53.975 13.945l3.025-.8 1.275 3.925-4.3-3.125zM60.95 8.87H55.6l-1.65-5.075L52.3 8.87h-5.35l4.325 3.15-1.65 5.075 4.325-3.125 2.675-1.95 4.325-3.15z"/>
        <g>
            <path fill="#01B67B" d="M66 .47h19.925v19.925H66z"/>
            <path fill="#FFF" d="M75.975 13.945l3.025-.8 1.275 3.925-4.3-3.125zM82.95 8.87H77.6l-1.65-5.075L74.3 8.87h-5.35l4.325 3.15-1.65 5.075 4.325-3.125 2.675-1.95 4.325-3.15z"/>
        </g>
        <g>
            <path fill="#01B67B" d="M88 .47h19.925v19.925H88z"/>
            <path fill="#FFF" d="M97.975 13.945l3.025-.8 1.275 3.925-4.3-3.125zm6.975-5.075H99.6l-1.65-5.075L96.3 8.87h-5.35l4.325 3.15-1.65 5.075 4.325-3.125 2.675-1.95 4.325-3.15z"/>
        </g>
    </g>
</svg>
