<svg xmlns="http://www.w3.org/2000/svg" width="239" height="26" viewBox="0 0 239 26">
    <g fill="none" fill-rule="nonzero">
        <path fill="#FFF" d="M137.05 3.623h13.978v2.608h-5.496v14.66h-3.022V6.231h-5.472V3.623h.012zm13.381 4.765h2.584V10.8h.048c.086-.341.244-.67.476-.987.231-.317.511-.622.84-.878a4.481 4.481 0 0 1 1.097-.646 3.355 3.355 0 0 1 1.231-.243c.317 0 .548.012.67.024s.244.037.378.049v2.656a8.798 8.798 0 0 0-.597-.085 5.062 5.062 0 0 0-.597-.036 3.23 3.23 0 0 0-1.316.28 3.033 3.033 0 0 0-1.073.816 4.146 4.146 0 0 0-.73 1.34c-.184.537-.269 1.146-.269 1.841v5.947h-2.754V8.388h.012zm19.986 12.503h-2.706v-1.743h-.048c-.342.634-.841 1.134-1.512 1.512-.67.377-1.352.572-2.047.572-1.645 0-2.84-.402-3.57-1.218-.732-.817-1.097-2.048-1.097-3.693V8.388h2.754v7.665c0 1.097.207 1.877.634 2.328.414.45 1.011.682 1.767.682.585 0 1.06-.085 1.45-.268.39-.183.707-.414.938-.719.244-.292.414-.658.524-1.072.11-.415.159-.866.159-1.353v-7.25h2.754v12.49zm4.691-4.01c.086.805.39 1.366.914 1.695.537.317 1.17.487 1.914.487.256 0 .548-.024.877-.06.33-.037.646-.123.926-.232.293-.11.524-.28.72-.5.182-.22.267-.5.255-.853a1.177 1.177 0 0 0-.39-.865c-.243-.232-.548-.402-.926-.549a9.296 9.296 0 0 0-1.292-.353c-.487-.098-.975-.207-1.474-.317a13.995 13.995 0 0 1-1.487-.414 4.54 4.54 0 0 1-1.28-.658 2.894 2.894 0 0 1-.901-1.048c-.232-.427-.342-.95-.342-1.585 0-.682.171-1.243.5-1.706a3.788 3.788 0 0 1 1.255-1.109 5.817 5.817 0 0 1 1.694-.597c.622-.11 1.219-.17 1.78-.17.645 0 1.267.073 1.852.207a4.775 4.775 0 0 1 1.596.67c.475.305.865.707 1.182 1.194.317.488.512 1.085.597 1.78h-2.876c-.134-.658-.426-1.11-.901-1.329-.476-.231-1.024-.341-1.633-.341-.195 0-.427.012-.695.049a3.802 3.802 0 0 0-.756.183c-.231.085-.426.219-.597.39a.942.942 0 0 0-.243.67c0 .341.121.61.353.816.232.207.536.378.914.524.378.134.804.256 1.292.354.487.097.987.207 1.499.317.5.11.987.255 1.474.414.488.158.914.378 1.292.658s.682.621.914 1.036c.231.414.353.938.353 1.547 0 .744-.17 1.365-.512 1.89-.34.511-.78.938-1.316 1.255a6.188 6.188 0 0 1-1.803.706 9.05 9.05 0 0 1-1.962.22 8.323 8.323 0 0 1-2.194-.268c-.67-.183-1.255-.451-1.742-.805a3.988 3.988 0 0 1-1.158-1.352c-.28-.537-.427-1.182-.451-1.926h2.778v-.024zm9.092-8.493h2.083V4.634h2.754v3.754h2.487v2.06h-2.487v6.678c0 .292.013.536.037.755.024.207.085.39.17.536.086.147.22.256.403.33.183.072.414.109.731.109.195 0 .39 0 .585-.012.195-.012.39-.037.585-.086v2.133c-.305.037-.61.061-.89.098a7.125 7.125 0 0 1-.89.048c-.73 0-1.315-.073-1.754-.207-.439-.134-.792-.341-1.036-.61-.256-.267-.414-.596-.512-.998a7.513 7.513 0 0 1-.158-1.377v-7.373h-2.084V8.388h-.024zm9.273 0h2.608v1.694h.049c.39-.731.926-1.243 1.62-1.56a5.34 5.34 0 0 1 2.255-.475c.987 0 1.84.17 2.572.524.73.34 1.34.816 1.828 1.425.487.61.84 1.317 1.084 2.12.244.805.366 1.67.366 2.584 0 .841-.11 1.658-.33 2.438a6.523 6.523 0 0 1-.986 2.096c-.44.61-1 1.084-1.682 1.45-.683.366-1.475.548-2.4.548-.403 0-.805-.036-1.207-.11a5.31 5.31 0 0 1-1.158-.353 4.18 4.18 0 0 1-1.024-.621 3.86 3.86 0 0 1-.792-.878h-.049v6.24h-2.754V8.388zm9.628 6.264c0-.56-.074-1.11-.22-1.645-.146-.537-.365-1-.658-1.414a3.353 3.353 0 0 0-1.084-.987 3.04 3.04 0 0 0-1.5-.378c-1.157 0-2.034.402-2.62 1.206-.584.805-.877 1.877-.877 3.218 0 .633.073 1.218.232 1.755.158.536.377.999.694 1.389.305.39.67.694 1.097.914.427.231.926.341 1.487.341.634 0 1.158-.134 1.596-.39a3.371 3.371 0 0 0 1.073-1c.28-.414.487-.877.609-1.4.11-.525.17-1.06.17-1.61zm4.862-11.029h2.754v2.608h-2.754V3.623zm0 4.765h2.754V20.89h-2.754V8.388zm5.216-4.765h2.754v17.268h-2.754V3.623zm11.199 17.61c-1 0-1.889-.171-2.669-.5a5.893 5.893 0 0 1-1.986-1.365 5.943 5.943 0 0 1-1.231-2.084 8.043 8.043 0 0 1-.427-2.657c0-.95.147-1.828.427-2.632a5.943 5.943 0 0 1 1.23-2.084c.537-.585 1.207-1.036 1.987-1.365.78-.329 1.67-.5 2.669-.5 1 0 1.889.171 2.669.5.78.33 1.438.792 1.986 1.365.536.585.95 1.28 1.231 2.084a7.95 7.95 0 0 1 .427 2.632c0 .963-.147 1.853-.427 2.657a5.943 5.943 0 0 1-1.23 2.084c-.537.585-1.207 1.036-1.987 1.365-.78.329-1.67.5-2.669.5zm0-2.182c.61 0 1.146-.134 1.596-.39.451-.256.817-.597 1.11-1.011.292-.415.499-.89.645-1.414a6.47 6.47 0 0 0 .207-1.609c0-.536-.073-1.06-.207-1.596a4.17 4.17 0 0 0-.646-1.414 3.362 3.362 0 0 0-1.109-.999c-.45-.256-.987-.39-1.596-.39-.61 0-1.146.134-1.596.39a3.5 3.5 0 0 0-1.11 1c-.292.414-.499.877-.645 1.413a6.523 6.523 0 0 0-.207 1.596c0 .549.073 1.085.207 1.609s.353 1 .646 1.414c.292.414.658.755 1.109 1.011.45.268.987.39 1.596.39zm7.117-10.663h2.084V4.634h2.754v3.754h2.486v2.06h-2.486v6.678c0 .292.012.536.036.755.025.207.086.39.171.536.085.147.22.256.402.33.183.072.414.109.731.109.195 0 .39 0 .585-.012.195-.012.39-.037.585-.086v2.133c-.304.037-.61.061-.89.098a7.125 7.125 0 0 1-.889.048c-.731 0-1.316-.073-1.755-.207-.439-.134-.792-.341-1.036-.61-.256-.267-.414-.596-.511-.998a7.513 7.513 0 0 1-.159-1.377v-7.373h-2.084V8.388h-.024z"/>
        <path fill="#017F4E" d="M.543.762h24v24h-24zM26.543.762h24v24h-24zM52.543.762h24v24h-24zM78.543.762h24v24h-24zM104.543.762h24v24h-24z"/>
        <path fill="#FFF" d="M12.543 16.937l3.65-.925 1.525 4.7-5.175-3.775zm8.4-6.075h-6.425l-1.975-6.05-1.975 6.05H4.143l5.2 3.75-1.975 6.05 5.2-3.75 3.2-2.3 5.175-3.75zM38.543 16.937l3.65-.925 1.525 4.7-5.175-3.775zm8.4-6.075h-6.425l-1.975-6.05-1.975 6.05h-6.425l5.2 3.75-1.975 6.05 5.2-3.75 3.2-2.3 5.175-3.75zM64.543 16.937l3.65-.925 1.525 4.7-5.175-3.775zm8.4-6.075h-6.425l-1.975-6.05-1.975 6.05h-6.425l5.2 3.75-1.975 6.05 5.2-3.75 3.2-2.3 5.175-3.75zM90.543 16.937l3.65-.925 1.525 4.7-5.175-3.775zm8.4-6.075h-6.425l-1.975-6.05-1.975 6.05h-6.425l5.2 3.75-1.975 6.05 5.2-3.75 3.2-2.3 5.175-3.75zM116.543 16.937l3.65-.925 1.525 4.7-5.175-3.775zm8.4-6.075h-6.425l-1.975-6.05-1.975 6.05h-6.425l5.2 3.75-1.975 6.05 5.2-3.75 3.2-2.3 5.175-3.75z"/>
    </g>
</svg>
