<svg xmlns="http://www.w3.org/2000/svg" width="139" height="35" viewBox="0 0 139 35">
    <g fill="none" fill-rule="nonzero">
        <path fill="#191919" d="M36.779 12.55h13.978v2.607H45.26v14.66h-3.023v-14.66h-5.471V12.55h.012zm13.38 4.764h2.584v2.413h.049c.085-.341.243-.67.475-.987.232-.317.512-.621.84-.877a4.481 4.481 0 0 1 1.098-.646 3.355 3.355 0 0 1 1.23-.244c.317 0 .549.012.67.024.123.013.244.037.379.05v2.656a8.798 8.798 0 0 0-.598-.085 5.062 5.062 0 0 0-.597-.037 3.23 3.23 0 0 0-1.316.28 3.033 3.033 0 0 0-1.072.817 4.146 4.146 0 0 0-.731 1.34c-.183.536-.269 1.146-.269 1.84v5.947h-2.754v-12.49h.012zm19.986 12.504H67.44v-1.743h-.049c-.341.634-.84 1.133-1.511 1.511-.67.378-1.353.573-2.047.573-1.646 0-2.84-.402-3.571-1.219-.731-.816-1.097-2.047-1.097-3.692v-7.934h2.754v7.666c0 1.096.208 1.876.634 2.327.414.451 1.012.683 1.767.683.585 0 1.06-.086 1.45-.269.39-.182.707-.414.939-.719.243-.292.414-.658.524-1.072.11-.414.158-.865.158-1.353v-7.25h2.754v12.49zm4.692-4.01c.085.805.39 1.365.914 1.694.536.317 1.17.488 1.913.488.256 0 .549-.025.878-.061.329-.037.645-.122.926-.232.292-.11.524-.28.719-.5.183-.219.268-.5.256-.853a1.177 1.177 0 0 0-.39-.865c-.244-.231-.549-.402-.926-.548a9.296 9.296 0 0 0-1.292-.354c-.488-.097-.975-.207-1.475-.316a13.995 13.995 0 0 1-1.487-.415 4.54 4.54 0 0 1-1.28-.658 2.894 2.894 0 0 1-.9-1.048c-.232-.426-.342-.95-.342-1.584 0-.683.17-1.243.5-1.706a3.788 3.788 0 0 1 1.255-1.11 5.817 5.817 0 0 1 1.694-.596c.621-.11 1.218-.17 1.779-.17.646 0 1.267.072 1.852.206a4.775 4.775 0 0 1 1.597.67c.475.305.865.707 1.182 1.195.317.487.512 1.084.597 1.779H79.93c-.134-.658-.427-1.109-.902-1.328-.475-.232-1.024-.342-1.633-.342-.195 0-.426.013-.695.05a3.802 3.802 0 0 0-.755.182c-.232.085-.427.22-.597.39a.942.942 0 0 0-.244.67c0 .341.122.61.353.817.232.207.537.377.914.524.378.134.805.256 1.292.353.488.098.987.207 1.5.317.499.11.986.256 1.474.414.487.159.914.378 1.291.658.378.28.683.622.914 1.036.232.415.354.939.354 1.548 0 .743-.17 1.365-.512 1.889-.341.512-.78.938-1.316 1.255a6.188 6.188 0 0 1-1.804.707 9.05 9.05 0 0 1-1.962.22 8.323 8.323 0 0 1-2.193-.269c-.67-.183-1.256-.45-1.743-.804a3.988 3.988 0 0 1-1.158-1.353c-.28-.536-.426-1.182-.45-1.925h2.778v-.025zm9.091-8.494h2.084v-3.753h2.754v3.753h2.486v2.06h-2.486v6.678c0 .292.012.536.037.755.024.208.085.39.17.537.085.146.22.256.402.329.183.073.415.11.731.11.195 0 .39 0 .585-.013.195-.012.39-.036.585-.085v2.133c-.304.036-.609.06-.89.097a7.125 7.125 0 0 1-.889.049c-.731 0-1.316-.073-1.755-.207-.438-.134-.792-.342-1.036-.61-.255-.268-.414-.597-.511-.999a7.513 7.513 0 0 1-.159-1.377v-7.373h-2.084v-2.084h-.024zm9.274 0h2.608v1.694h.048c.39-.731.927-1.243 1.621-1.56a5.34 5.34 0 0 1 2.255-.475c.987 0 1.84.17 2.571.524.731.341 1.34.817 1.828 1.426.487.61.84 1.316 1.085 2.12.243.805.365 1.67.365 2.584 0 .84-.11 1.657-.329 2.437a6.523 6.523 0 0 1-.987 2.096c-.439.61-1 1.085-1.682 1.45-.682.366-1.474.549-2.4.549-.403 0-.805-.037-1.207-.11a5.31 5.31 0 0 1-1.158-.353 4.18 4.18 0 0 1-1.023-.622 3.86 3.86 0 0 1-.792-.877h-.05v6.24h-2.753V17.313zm9.627 6.264c0-.56-.073-1.109-.22-1.645-.146-.536-.365-1-.657-1.414a3.353 3.353 0 0 0-1.085-.987 3.04 3.04 0 0 0-1.499-.378c-1.158 0-2.035.403-2.62 1.207s-.877 1.877-.877 3.217c0 .634.073 1.219.231 1.755.159.536.378 1 .695 1.39.304.39.67.694 1.097.913.426.232.926.341 1.486.341.634 0 1.158-.134 1.597-.39a3.371 3.371 0 0 0 1.072-.999c.28-.414.488-.877.61-1.401.11-.524.17-1.06.17-1.609zm4.862-11.029h2.755v2.608h-2.755V12.55zm0 4.765h2.755v12.504h-2.755V17.314zm5.216-4.765h2.754v17.269h-2.754V12.549zm11.2 17.61c-1 0-1.89-.17-2.67-.5a5.893 5.893 0 0 1-1.986-1.365 5.943 5.943 0 0 1-1.23-2.084 8.043 8.043 0 0 1-.427-2.656c0-.95.146-1.828.426-2.633a5.943 5.943 0 0 1 1.231-2.083c.536-.585 1.207-1.036 1.987-1.365.78-.33 1.67-.5 2.668-.5 1 0 1.89.17 2.67.5.78.329 1.437.792 1.986 1.365.536.585.95 1.28 1.23 2.083a7.95 7.95 0 0 1 .427 2.633c0 .962-.146 1.852-.427 2.656a5.943 5.943 0 0 1-1.23 2.084c-.537.585-1.207 1.036-1.987 1.365-.78.33-1.67.5-2.669.5zm0-2.182c.609 0 1.145-.134 1.596-.39.45-.255.816-.597 1.109-1.011.292-.414.5-.89.646-1.414a6.47 6.47 0 0 0 .207-1.608c0-.536-.073-1.06-.207-1.597a4.17 4.17 0 0 0-.646-1.413 3.362 3.362 0 0 0-1.11-1c-.45-.256-.986-.39-1.596-.39-.609 0-1.145.134-1.596.39a3.5 3.5 0 0 0-1.109 1c-.292.414-.5.877-.646 1.413a6.523 6.523 0 0 0-.207 1.597c0 .548.073 1.084.207 1.608s.354 1 .646 1.414c.293.414.658.756 1.109 1.011.45.269.987.39 1.596.39zm7.116-10.663h2.084v-3.753h2.754v3.753h2.486v2.06h-2.486v6.678c0 .292.012.536.037.755.024.208.085.39.17.537.086.146.22.256.403.329.182.073.414.11.73.11.196 0 .39 0 .586-.013.195-.012.39-.036.585-.085v2.133c-.305.036-.61.06-.89.097a7.125 7.125 0 0 1-.89.049c-.73 0-1.316-.073-1.754-.207-.44-.134-.792-.342-1.036-.61-.256-.268-.415-.597-.512-.999a7.513 7.513 0 0 1-.158-1.377v-7.373h-2.084v-2.084h-.025z"/>
        <path fill="#00B67A" d="M33.562 12.55H20.937L17.037.533l-3.912 12.015L.5 12.537l10.224 7.434-3.911 12.004 10.224-7.422 10.212 7.422-3.9-12.004 10.213-7.422z"/>
        <path fill="#005128" d="M24.227 22.688l-.878-2.717-6.312 4.582z"/>
    </g>
</svg>
