<svg height="40" viewBox="0 0 40 40" width="40" xmlns="http://www.w3.org/2000/svg"><path d="m73 40c-11.045695 0-20-8.954305-20-20s8.954305-20 20-20 20 8.954305 20 20-8.954305 20-20 20zm-4.1625288-9.7560976c8.4678595 0 13.0985561-7.1308805 13.0985561-13.3142127 0-.202629-.004039-.4043457-.0131044-.6049676.8988176-.6604373 1.6801444-1.4845471 2.2965893-2.4228809-.8248585.3724141-1.7126361.6234879-2.6437659.7367083.9504274-.5792397 1.6802342-1.4959512 2.0243591-2.5885604-.8897522.5359952-1.8745561.925926-2.9231766 1.1357625-.8401171-.9095041-2.0365659-1.4784345-3.3604683-1.4784345-2.5426107 0-4.6043981 2.0957185-4.6043981 4.6791699 0 .367305.04048.7243006.1194654 1.0669726-3.8260332-.1955128-7.2189034-2.0576742-9.4891941-4.8890976-.3957347.6913655-.6235357 1.4949478-.6235357 2.3519927 0 1.6234954.8128313 3.0566782 2.048683 3.8951116-.7551181-.0236294-1.46464-.2345606-2.0851239-.5854437-.0009873.019524-.0009873.0391391-.0009873.0596666 0 2.2665984 1.5870673 4.1585931 3.6934634 4.587663-.3866693.1069253-.7935337.164676-1.2135922.164676-.2966439 0-.58512-.0299245-.8654283-.084482.5860175 1.8591508 2.2854595 3.2120484 4.3007532 3.2501838-1.5760274 1.2551868-3.5608937 2.0031169-5.7178225 2.0031169-.3715005 0-.7378849-.0216223-1.0982556-.0648669 2.0375532 1.3272611 4.4566595 2.1019224 7.0569834 2.1019224z" fill="#fff" fill-rule="evenodd" transform="translate(-53)"/></svg>