<?xml version="1.0" encoding="UTF-8"?>
<svg width="40px" height="40px" viewBox="0 0 40 40" version="1.1" xmlns="http://www.w3.org/2000/svg" xmlns:xlink="http://www.w3.org/1999/xlink">
    <!-- Generator: Sketch 42 (36781) - http://www.bohemiancoding.com/sketch -->
    <title>twitter_icon</title>
    <desc>Created with Sketch.</desc>
    <defs></defs>
    <g id="Impact-case-study-page" stroke="none" stroke-width="1" fill="none" fill-rule="evenodd">
        <g id="Impact-case-study-page-no-hero-image" transform="translate(-96.000000, -298.000000)">
            <g id="Group-37" transform="translate(96.000000, 243.000000)">
                <g id="twitter_icon" transform="translate(0.000000, 55.000000)">
                    <path d="M40,20 C40,31.0456724 31.0456724,40 20,40 C8.95432756,40 0,31.0456724 0,20 C0,8.95432756 8.95432756,0 20,0 C31.0456724,0 40,8.95432756 40,20" id="Twitter-Circle" fill="#59B2F2"></path>
                    <path d="M30.2944737,11.9155844 C29.5123684,12.3841558 28.6481579,12.7249351 27.7244737,12.9072727 C26.9886842,12.1124675 25.9371053,11.6158442 24.7728947,11.6158442 C22.5413158,11.6158442 20.7302632,13.4485714 20.7302632,15.7088312 C20.7302632,16.0293506 20.765,16.341039 20.8344737,16.6407792 C17.4734211,16.4698701 14.4939474,14.8423377 12.4981579,12.3628571 C12.1497368,12.9696104 11.9507895,13.6735065 11.9507895,14.4225974 C11.9507895,15.8423377 12.6644737,17.0953247 13.7502632,17.8293506 C13.0881579,17.8096104 12.4634211,17.6236364 11.9171053,17.3187013 L11.9171053,17.3690909 C11.9171053,19.352987 13.3113158,21.0080519 15.1628947,21.3825974 C14.8239474,21.4787013 14.4660526,21.5264935 14.0971053,21.5264935 C13.8365789,21.5264935 13.5823684,21.5020779 13.3360526,21.4542857 C13.8507895,23.0797403 15.3434211,24.2636364 17.1134211,24.2948052 C15.7297368,25.3935065 13.985,26.0480519 12.0907895,26.0480519 C11.7644737,26.0480519 11.4418421,26.0293506 11.1260526,25.9919481 C12.9155263,27.1514286 15.0423684,27.8293506 17.3255263,27.8293506 C24.765,27.8293506 28.8318421,21.5935065 28.8318421,16.1841558 C28.8318421,16.005974 28.8286842,15.8283117 28.8218421,15.6537662 C29.6118421,15.0761039 30.2981579,14.3561039 30.8381579,13.5353247 C30.1139474,13.8605195 29.3339474,14.0807792 28.5160526,14.1794805 C29.3513158,13.6735065 29.9923684,12.8709091 30.2944737,11.9155844" id="Twitter" fill="#FFFFFF"></path>
                </g>
            </g>
        </g>
    </g>
</svg>