<?xml version="1.0" encoding="UTF-8" standalone="no"?>
<svg
   xmlns:dc="http://purl.org/dc/elements/1.1/"
   xmlns:cc="http://creativecommons.org/ns#"
   xmlns:rdf="http://www.w3.org/1999/02/22-rdf-syntax-ns#"
   xmlns:svg="http://www.w3.org/2000/svg"
   xmlns="http://www.w3.org/2000/svg"
   xmlns:sodipodi="http://sodipodi.sourceforge.net/DTD/sodipodi-0.dtd"
   xmlns:inkscape="http://www.inkscape.org/namespaces/inkscape"
   version="1.1"
   id="whatsapp-logo-notext"
   x="0px"
   y="0px"
   viewBox="0 0 40 40"
   xml:space="preserve"
   sodipodi:docname="whatsapp.svg"
   inkscape:version="0.92.3 (2405546, 2018-03-11)"
   width="40"
   height="40"><metadata
     id="metadata13"><rdf:RDF><cc:Work
         rdf:about=""><dc:format>image/svg+xml</dc:format><dc:type
           rdf:resource="http://purl.org/dc/dcmitype/StillImage" /><dc:title></dc:title></cc:Work></rdf:RDF></metadata><defs
     id="defs11" /><sodipodi:namedview
     pagecolor="#ffffff"
     bordercolor="#666666"
     borderopacity="1"
     objecttolerance="10"
     gridtolerance="10"
     guidetolerance="10"
     inkscape:pageopacity="0"
     inkscape:pageshadow="2"
     inkscape:window-width="1920"
     inkscape:window-height="1137"
     id="namedview9"
     showgrid="false"
     inkscape:pagecheckerboard="true"
     inkscape:zoom="12.102564"
     inkscape:cx="29.267173"
     inkscape:cy="21.395608"
     inkscape:window-x="1912"
     inkscape:window-y="-8"
     inkscape:window-maximized="1"
     inkscape:current-layer="layer2" /><style
     type="text/css"
     id="style2">
                            .logo_white{fill:#FFFFFF;}
                            .logo_green{fill:#00E676;}
                        </style><g
     inkscape:groupmode="layer"
     id="layer1"
     inkscape:label="background"><ellipse
       style="opacity:1;vector-effect:none;fill:#fdfffd;fill-opacity:1;stroke:none;stroke-width:15.11811066;stroke-linecap:butt;stroke-linejoin:miter;stroke-miterlimit:4;stroke-dasharray:none;stroke-dashoffset:0;stroke-opacity:1"
       id="path5078"
       cx="20.863348"
       cy="18.516949"
       rx="14.50106"
       ry="14.377119" /></g><g
     inkscape:groupmode="layer"
     id="layer2"
     inkscape:label="shape"><path
       class="logo_white"
       d="m 19.975505,43.964473 c -16.9574465,1.136324 -8.478723,0.568161 0,0 z M 20.10662,39.89993 v 0 c -3.540086,0 -7.080171,-0.9178 -10.095799,-2.7534 L 9.2241349,36.753188 1.6195071,38.719902 3.5862212,31.246388 3.0617641,30.459703 C -2.7072646,21.150589 0.04613514,8.8258472 9.4863635,3.0568192 18.926591,-2.7122088 31.120218,0.04119088 36.889246,9.4814186 42.658275,18.921646 39.904875,31.115274 30.464647,36.884302 27.449019,38.851016 23.777819,39.89993 20.10662,39.89993 Z M 31.644676,25.346246 30.202419,24.690675 c 0,0 -2.097829,-0.9178 -3.408972,-1.573372 -0.131114,0 -0.262228,-0.131114 -0.393342,-0.131114 -0.393343,0 -0.655572,0.131114 -0.9178,0.262229 v 0 c 0,0 -0.131115,0.131114 -1.966714,2.228942 -0.131115,0.262229 -0.393343,0.393343 -0.655572,0.393343 h -0.131114 c -0.131114,0 -0.393343,-0.131114 -0.524457,-0.262229 l -0.655571,-0.262228 v 0 c -1.442257,-0.655571 -2.7534,-1.442257 -3.802314,-2.491171 -0.262229,-0.262229 -0.655572,-0.524457 -0.9178,-0.786686 -0.9178,-0.9178 -1.8356,-1.966714 -2.491171,-3.146743 l -0.131115,-0.262228 c -0.131114,-0.131114 -0.131114,-0.262229 -0.262228,-0.524457 0,-0.262229 0,-0.524457 0.131114,-0.655572 0,0 0.524457,-0.655571 0.9178,-1.048914 0.262228,-0.262228 0.393343,-0.655571 0.655571,-0.9178 0.262229,-0.393342 0.393343,-0.9178 0.262229,-1.311142 C 15.779849,13.545961 14.206477,10.005876 13.813134,9.21919 13.550906,8.8258472 13.288677,8.6947329 12.895335,8.5636187 h -0.393343 -1.048914 c -0.262229,0 -0.524458,0.1311142 -0.786686,0.1311142 L 10.535278,8.8258472 C 10.273049,8.9569615 10.010821,9.21919 9.748592,9.3503043 9.4863635,9.6125329 9.3552492,9.8747614 9.0930206,10.13699 c -0.9177999,1.180029 -1.442257,2.622286 -1.442257,4.064543 v 0 c 0,1.048914 0.2622286,2.097828 0.6555714,3.015628 l 0.1311143,0.393343 c 1.1800284,2.491171 2.7533997,4.720114 4.8512277,6.686828 l 0.524457,0.524457 c 0.393343,0.393343 0.786686,0.655571 1.048915,1.048914 2.753399,2.360057 5.900142,4.064542 9.440227,4.982342 0.393343,0.131115 0.9178,0.131115 1.311143,0.262229 v 0 h 1.311143 c 0.655571,0 1.442257,-0.262229 1.966714,-0.524457 0.393343,-0.262229 0.655571,-0.262229 0.9178,-0.524457 l 0.262228,-0.262229 c 0.262229,-0.262228 0.524457,-0.393343 0.786686,-0.655571 0.262228,-0.262229 0.524457,-0.524457 0.655571,-0.786686 0.262229,-0.524457 0.393343,-1.180028 0.524457,-1.8356 v -0.9178 c 0,0 -0.131114,-0.131114 -0.393342,-0.262228 z"
       id="path6"
       inkscape:connector-curvature="0"
       style="fill:#25d366;fill-opacity:1;stroke-width:1.31114268"
       sodipodi:nodetypes="cccccccccsscccccscccsscccssccccscccccscccccccccsccccscssssccc" /></g></svg>