<?xml version="1.0" encoding="utf-8"?>
<!-- Generator: Adobe Illustrator 16.0.0, SVG Export Plug-In . SVG Version: 6.00 Build 0)  -->
<!DOCTYPE svg PUBLIC "-//W3C//DTD SVG 1.1//EN" "http://www.w3.org/Graphics/SVG/1.1/DTD/svg11.dtd">
<svg version="1.1" id="Layer_1" xmlns="http://www.w3.org/2000/svg" xmlns:xlink="http://www.w3.org/1999/xlink" x="0px" y="0px"
	 width="40px" height="40px" viewBox="0 0 40 40" enable-background="new 0 0 40 40" xml:space="preserve">
<circle fill="#FFFFFF" cx="20" cy="20" r="20"/>
<path fill="#FFFFFF" d="M26.175,12.539H13.198c-0.79,0-1.434,0.644-1.434,1.435v12.976c0,0.79,0.644,1.434,1.434,1.434h12.977
	c0.79,0,1.434-0.644,1.434-1.434V13.974C27.608,13.183,26.965,12.539,26.175,12.539z"/>
<path fill="#FFFFFF" d="M16.667,26.22c0,0.229-0.187,0.417-0.417,0.417h-1.775c-0.229,0-0.416-0.188-0.416-0.417v-7.442
	c0-0.23,0.187-0.417,0.416-0.417h1.775c0.23,0,0.417,0.187,0.417,0.417V26.22z"/>
<circle fill="#5D5D5D" cx="51.844" cy="58.511" r="1.687"/>
<path fill="#FFFFFF" d="M25.945,26.253c0,0.212-0.173,0.384-0.384,0.384h-1.904c-0.212,0-0.384-0.172-0.384-0.384v-3.491
	c0-0.521,0.152-2.281-1.361-2.281c-1.174,0-1.412,1.205-1.459,1.747v4.025c0,0.212-0.173,0.384-0.384,0.384h-1.843
	c-0.211,0-0.383-0.172-0.383-0.384v-7.509c0-0.212,0.172-0.384,0.383-0.384h1.843c0.211,0,0.384,0.172,0.384,0.384v0.648
	c0.435-0.653,1.082-1.157,2.459-1.157c3.05,0,3.033,2.851,3.033,4.416V26.253L25.945,26.253z"/>
</svg>
